<svg width="165" height="114" viewBox="0 0 165 114" fill="none" xmlns="http://www.w3.org/2000/svg">
<path d="M9.9944 11.3705H6.09082C3.3294 11.3705 1.09082 13.6091 1.09082 16.3705V108C1.09082 110.762 3.32939 113 6.09081 113H159C161.761 113 164 110.762 164 108V16.3705C164 13.6091 161.761 11.3705 159 11.3705H155.096" stroke="#FF1D92" stroke-width="2"/>
<path d="M82.5455 106.778V13.575V6.91764M82.5455 106.778C82.5455 106.778 60.3021 100.86 46.0496 100.86C31.7971 100.86 9.55371 106.778 9.55371 106.778M82.5455 106.778V6.91764M82.5455 106.778C82.5455 106.778 104.789 100.86 119.041 100.86C133.294 100.86 155.537 106.778 155.537 106.778M82.5455 106.778H9.55371M82.5455 106.778H155.537M9.55371 106.778V10.7613C9.55371 8.49501 11.0776 6.51535 13.2813 5.98595C20.2188 4.31928 35.3753 1 46.0496 1C60.3021 1 82.5455 6.91764 82.5455 6.91764M82.5455 6.91764C82.5455 6.91764 104.789 1 119.041 1C129.716 1 144.872 4.31929 151.81 5.98595C154.013 6.51535 155.537 8.49501 155.537 10.7614V13.575V106.778M72.1181 3.85938V29.5656C72.1181 30.4549 73.1918 30.9018 73.8227 30.2752L77.264 26.8575C77.6939 26.4306 78.4016 26.4809 78.7667 26.9644L82.5455 31.9682" stroke="#FF1D92" stroke-width="2"/>
<path d="M144.366 15.3821C144.366 15.3821 128.478 12.0709 118.297 12.7931C115.587 12.9854 112.472 13.4161 109.36 13.9447M92.229 17.6012C92.229 17.6012 96.0609 16.6157 101.167 15.5272M145.111 32.8682C145.111 32.8682 129.223 29.5571 119.042 30.2793C116.332 30.4716 113.217 30.9023 110.105 31.4308L101.912 33.0134C96.8057 34.1019 92.9738 35.0874 92.9738 35.0874M92.9738 75.0314C92.9738 75.0314 96.8057 74.046 101.912 72.9575L110.105 71.3749M125.379 70.2012C134.734 70.6498 145.111 72.8123 145.111 72.8123M145.111 81.6887C145.111 81.6887 129.223 78.3776 119.042 79.0998C116.332 79.2921 113.217 79.7228 110.105 80.2514L101.912 81.8339C96.8057 82.9224 92.9738 83.9079 92.9738 83.9079M92.9738 92.7843C92.9738 92.7843 96.8057 91.7989 101.912 90.7104L110.105 89.1278C113.217 88.5992 116.332 88.1685 119.042 87.9762C123.516 87.6589 129.093 88.1205 133.939 88.7377M145.111 50.6211C145.111 50.6211 129.223 47.31 119.042 48.0322C116.332 48.2245 113.217 48.6552 110.105 49.1838L101.912 50.7663M119.042 39.1557C129.223 38.4335 145.111 41.7447 145.111 41.7447M92.9738 43.9638C92.9738 43.9638 96.8057 42.9784 101.912 41.8899L110.105 40.3073M92.9738 26.2109C92.9738 26.2109 96.8057 25.2255 101.912 24.1369L110.105 22.5544C113.217 22.0258 116.332 21.5951 119.042 21.4028C120.443 21.3035 121.951 21.2804 123.511 21.3146" stroke="#FF1D92" stroke-width="2"/>
<path d="M67.6492 14.1693C67.6492 14.1693 51.7611 10.8581 41.5807 11.5803C38.8702 11.7726 35.7551 12.2033 32.6429 12.7319M15.5122 16.3884C15.5122 16.3884 19.3441 15.403 24.45 14.3145M68.394 31.6555C68.394 31.6555 52.5059 28.3443 42.3255 29.0665C39.615 29.2588 36.4999 29.6895 33.3877 30.2181L25.1948 31.8006C20.0889 32.8891 16.257 33.8746 16.257 33.8746M16.257 73.8187C16.257 73.8187 20.0889 72.8332 25.1948 71.7447L33.3877 70.1622C36.4999 69.6336 39.615 69.2029 42.3255 69.0106M48.6623 68.9884C58.0172 69.437 68.394 71.5996 68.394 71.5996M68.394 80.476C68.394 80.476 52.5059 77.1648 42.3255 77.887C39.615 78.0793 36.4999 78.51 33.3877 79.0386L25.1948 80.6211C20.0889 81.7097 16.257 82.6951 16.257 82.6951M16.257 91.5715C16.257 91.5715 20.0889 90.5861 25.1948 89.4976M33.3877 87.915C36.4999 87.3865 39.615 86.9557 42.3255 86.7635C46.7996 86.4461 52.376 86.9077 57.2218 87.5249M68.394 49.4084C68.394 49.4084 52.5059 46.0972 42.3255 46.8194C39.615 47.0117 36.4999 47.4424 33.3877 47.971L25.1948 49.5535M42.3255 37.943C52.5059 37.2208 68.394 40.5319 68.394 40.5319M16.257 42.751C16.257 42.751 20.0889 41.7656 25.1948 40.6771L33.3877 39.0945M16.257 24.9981C16.257 24.9981 20.0889 24.0127 25.1948 22.9242L33.3877 21.3416C36.4999 20.8131 39.615 20.3823 42.3255 20.19C43.7259 20.0907 45.2342 20.0677 46.7944 20.1019" stroke="#FF1D92" stroke-width="2"/>
<path d="M77.2554 106.778V113H87.8339V106.778" stroke="#FF1D92" stroke-width="2"/>
</svg>
