<svg width="86" height="85" viewBox="0 0 86 85" fill="none" xmlns="http://www.w3.org/2000/svg">
<circle cx="43" cy="42.5" r="41.5" stroke="#FF1D92" stroke-width="2"/>
<circle cx="42.9998" cy="42.5" r="36.3333" stroke="#FF1D92"/>
<path d="M34.9883 54.125C34.2852 53.487 34.1029 52.9401 34.4414 52.4844L35.2227 51.4297C35.6263 50.8828 36.1927 50.9219 36.9219 51.5469C37.8854 52.3672 38.8034 52.9076 39.6758 53.168C40.5482 53.4154 41.4531 53.5716 42.3906 53.6367V43.2852C41.4401 43.0117 40.5091 42.6146 39.5977 42.0938C38.3607 41.3906 37.4036 40.5898 36.7266 39.6914C36.0495 38.793 35.6198 37.9596 35.4375 37.1914C35.2552 36.4232 35.1641 35.4271 35.1641 34.2031C35.1641 33.3698 35.4635 32.4128 36.0625 31.332C36.6615 30.2513 37.5013 29.4049 38.582 28.793C39.6628 28.181 40.9323 27.8034 42.3906 27.6602V25.3164C42.3906 24.7305 42.6185 24.4375 43.0742 24.4375H44.0508C44.5065 24.4375 44.7344 24.7305 44.7344 25.3164V27.6992C45.5807 27.6992 46.5508 27.901 47.6445 28.3047C48.7513 28.6953 49.5781 29.1576 50.125 29.6914C50.724 30.2773 50.8802 30.7852 50.5938 31.2148L49.7539 32.4453C49.3242 33.0703 48.7383 32.9792 47.9961 32.1719C47.5534 31.6901 46.974 31.3255 46.2578 31.0781C45.5547 30.8177 45.0469 30.6875 44.7344 30.6875V40.2188C45.763 40.5443 46.9089 41.0781 48.1719 41.8203C49.0573 42.3411 49.8125 42.9596 50.4375 43.6758C51.0625 44.3919 51.5052 45.1797 51.7656 46.0391C52.026 46.8984 52.1562 47.7839 52.1562 48.6953C52.1562 49.9193 51.9479 51.013 51.5312 51.9766C51.1146 52.9401 50.3529 53.8841 49.2461 54.8086C48.1393 55.7331 46.6354 56.306 44.7344 56.5273V59.2227C44.7344 59.8086 44.5065 60.1016 44.0508 60.1016H43.0742C42.6185 60.1016 42.3906 59.8086 42.3906 59.2227V56.5664C41.0885 56.5664 39.7409 56.3581 38.3477 55.9414C36.9674 55.5117 35.8477 54.9062 34.9883 54.125ZM38.7969 34.4375C38.7969 35.4661 38.9661 36.3125 39.3047 36.9766C39.6562 37.6406 40.2812 38.2266 41.1797 38.7344C41.5703 38.9557 41.974 39.1576 42.3906 39.3398V30.6289C41.5573 30.694 40.75 31.0326 39.9688 31.6445C39.1875 32.2565 38.7969 33.1875 38.7969 34.4375ZM44.7344 53.5195C45.724 53.2982 46.5703 52.8424 47.2734 52.1523C47.9766 51.4622 48.3281 50.3164 48.3281 48.7148C48.3281 47.8424 48.1263 47.0612 47.7227 46.3711C47.332 45.668 46.8307 45.1341 46.2188 44.7695C45.5417 44.3789 45.0469 44.1315 44.7344 44.0273V53.5195Z" fill="#FF1D92"/>
</svg>
