<svg width="225" height="155" viewBox="0 0 225 155" fill="none" xmlns="http://www.w3.org/2000/svg">
<path d="M151.209 154V57.9008M151.209 57.9008V6C151.209 3.23858 153.448 1 156.209 1H219C221.761 1 224 3.23858 224 6V154H193.706M151.209 57.9008H112.03C109.269 57.9008 107.03 60.1394 107.03 62.9008V154M62.0094 154V111.008L74.2113 123.231L41.1443 90.1068C39.1909 88.15 36.0204 88.15 34.0671 90.1068L13.2019 111.008M1 123.231L13.2019 111.008M13.2019 111.008V154M30.8736 154V135.818C30.8736 133.057 33.1122 130.818 35.8736 130.818H40.1792C42.9407 130.818 45.1792 133.057 45.1792 135.818V154M116.287 154H135.221M212.64 81.4463V91.2562C212.64 94.0176 210.401 96.2562 207.64 96.2562H198.706C195.944 96.2562 193.706 94.0176 193.706 91.2562V81.4463C193.706 78.6849 195.944 76.4463 198.706 76.4463H207.64C210.401 76.4463 212.64 78.6849 212.64 81.4463ZM212.64 51.0992V60.9091C212.64 63.6705 210.401 65.9091 207.64 65.9091H198.706C195.944 65.9091 193.706 63.6705 193.706 60.9091V51.0992C193.706 48.3377 195.944 46.0992 198.706 46.0992H207.64C210.401 46.0992 212.64 48.3377 212.64 51.0992ZM176.504 65.9091H167.57C164.808 65.9091 162.57 63.6705 162.57 60.9091V51.0992C162.57 48.3377 164.808 46.0992 167.57 46.0992H176.504C179.265 46.0992 181.504 48.3377 181.504 51.0992V60.9091C181.504 63.6705 179.265 65.9091 176.504 65.9091ZM212.64 20.7521V30.562C212.64 33.3234 210.401 35.562 207.64 35.562H198.706C195.944 35.562 193.706 33.3234 193.706 30.562V20.7521C193.706 17.9906 195.944 15.7521 198.706 15.7521H207.64C210.401 15.7521 212.64 17.9906 212.64 20.7521ZM181.504 20.7521V30.562C181.504 33.3234 179.265 35.562 176.504 35.562H167.57C164.808 35.562 162.57 33.3234 162.57 30.562V20.7521C162.57 17.9906 164.808 15.7521 167.57 15.7521H176.504C179.265 15.7521 181.504 17.9906 181.504 20.7521Z" stroke="#FF1D92" stroke-width="2"/>
</svg>
