<svg width="85" height="105" viewBox="0 0 85 105" fill="none" xmlns="http://www.w3.org/2000/svg">
<path d="M37.7969 58.172L38.4693 58.7903L39.1457 58.1764L66.6234 33.2407L71.4799 38.1118L38.4729 68.6386L17.5214 49.3051L22.4233 44.0371L27.06 48.3002L37.7969 58.172ZM67.3661 31.1529L66.6924 30.4773L65.9859 31.1184L38.4781 56.0815L28.4137 46.828L23.0453 41.8921L22.3135 41.2193L21.6363 41.947L15.3732 48.6778L14.6891 49.4129L15.4271 50.0939L37.7955 70.7349L38.4744 71.3614L39.1527 70.7342L73.6 38.8752L74.3623 38.1702L73.6292 37.435L67.3661 31.1529ZM42.5356 1.42177C42.9264 1.79271 43.4605 2.2932 44.1082 2.88424C45.5346 4.18586 47.5161 5.93075 49.7332 7.69975C51.9471 9.46624 54.4134 11.2708 56.8076 12.6827C59.1743 14.0783 61.5826 15.1587 63.656 15.3545C68.2796 15.7912 73.7022 15.0971 77.9194 14.3135C80.0384 13.9197 81.8735 13.4994 83.1797 13.1773C83.4824 13.1027 83.7569 13.0333 84 12.9707V26.9231V45.3205V49.06C84 64.9638 76.2814 79.8784 63.2977 89.063L42.5 103.775L21.7023 89.063C8.71859 79.8784 1 64.9638 1 49.06V12.9707C1.24315 13.0333 1.51758 13.1027 1.82025 13.1773C3.12649 13.4994 4.96163 13.9197 7.08059 14.3135C11.2978 15.0971 16.7204 15.7912 21.344 15.3545C23.7907 15.1235 26.3844 14.042 28.8504 12.6253C31.3297 11.201 33.7543 9.39437 35.8759 7.63109C38.0002 5.86554 39.838 4.1291 41.1442 2.83489C41.7156 2.26873 42.1862 1.78625 42.5356 1.42177Z" stroke="#FF1D92" stroke-width="2"/>
</svg>
