<svg width="307" height="156" viewBox="0 0 307 156" fill="none" xmlns="http://www.w3.org/2000/svg">
<path d="M55 59C50.6667 59.1667 41.8 58 41 52C41.4 60.8 49.8333 64.9667 54 65.8L55 59Z" fill="#FF1D92" stroke="#FF1D92" stroke-width="0.5"/>
<path d="M51.5 30.5C50.6667 30.5 48.8 30.6 48 31C47 31.5 47 30 47.5 29.5C48 29 52 27 54.5 29.5C54.5 30.6999 52.5 30.6666 51.5 30.5Z" fill="#FF1D92"/>
<path d="M63.1592 29.2159C62.2728 29.4772 60.6 30.1 61 30.5C61.3185 30.8185 62.651 31.3397 63.7059 31.6763C64.3073 31.8682 64.8185 32 65 32C65.5 32 66.5 31 66 30.5C65.6 30.1 63.9394 29.4772 63.1592 29.2159Z" fill="#FF1D92"/>
<path d="M115.5 65L110.5 62.5L108.33 66.6421C108.934 66.5399 109.529 66.5 110 66.5C111.267 67.1334 112.422 67.9433 113.455 68.8323L115.5 65Z" fill="#FF1D92"/>
<path d="M102.361 78.0383L94 94L94.6064 94.3854L98.5 96.8601L101.547 91.1506L106 81.5C104.883 81.1277 103.558 79.7158 102.361 78.0383Z" fill="#FF1D92"/>
<path d="M31.0001 59.0002C25 59.8335 11.6999 60.7002 6.49987 57.5002C1.29987 54.3002 5.66653 45.1668 8.49987 41.0002C9.8332 39.3335 13.2999 36.0002 16.4999 36.0002C19.6999 36.0002 20.1665 28.0002 19.9999 24.0002C11.9996 24.0002 9.0001 18 9.0001 12.5C9.0001 8.1 13.6668 6.33333 16.0001 6C15.8334 4.33333 17.0001 1 23.0001 1C29.0001 1 31.8334 6.05219 32.5001 8.57828M31.0001 59.0002L35.0001 43.5002C32.0001 43.1668 26.0001 41.8002 26.0001 39.0002C25.8334 35.6668 26.7001 29.2002 31.5001 30.0002C36.3001 30.8002 38.5001 30.3335 39.0001 30.0002C41.1668 28.8335 45.5001 26.1002 45.5001 24.5002C48.8334 25.8335 55.7001 28.4002 56.5001 28.0002C57.1668 27.0002 58.3001 24.7002 57.5001 23.5002L60.0001 28.5002C60.6668 27.6668 61.9001 25.9002 61.5001 25.5002L63.0001 28.5002M31.0001 59.0002L30.0001 64C28.8457 63.9732 27.4846 63.9835 26 64.0465M63.0001 28.5002C64.8334 28.8335 68.6001 29.3002 69.0001 28.5002C69.1668 25.3335 69.0001 19.5002 67.5001 17.0002C66.0001 14.6668 62.5001 11.0002 59.0001 10.0002C56.8261 9.37902 52.9001 9.00015 52.5001 9.00015C51.5001 7.83349 47.2001 5.80015 38.0001 7.00015C36.6668 7.24253 34.2053 7.81984 32.5001 8.57828M63.0001 28.5002L63.1592 29.2159M31.0001 9.5C31.3274 9.17269 31.8606 8.86274 32.5001 8.57828M64.0001 33C65.0001 34.1667 67.0001 37 67.0001 39C67.0001 41.5 66.0529 44.1584 66.5001 45.5C67.0001 47 68.5001 49.5 70.0001 51C71.1668 52.3333 73.0001 56 71.0001 60C66.3334 59.3333 56.7001 58.2 55.5001 59M64.0001 33C65.0001 35 65.5001 46.5 64.5001 51C63.7001 54.6 58.1668 57.8333 55.5001 59M64.0001 33L63.7059 31.6763M55.5001 59L54.5 65.5C55.1771 65.4203 56.0445 65.3559 57 65.3367M25 114C26.6921 112.776 28.7684 111.287 31.0001 109.706M31.0001 109.706C39.0996 103.966 49.2456 97 50.5 97C52.1125 97 65.4259 102.85 67.6416 108M31.0001 109.706V91.5M112 94C111.5 95 111 95.5 106 94.5C103.827 94.0653 102.342 92.6762 101.547 91.1506M112 94C112.5 93 121 83.5 119 76C118.264 74.4052 116.336 71.3114 113.455 68.8323M112 94C113.167 94.6667 115 96.5 113 98.5C110.5 101 96.5 130.5 88 128.5C79.5 126.5 75 124.5 68.5 117.5M105.5 69C104.667 68.3333 102.7 67.1 101.5 67.5C100.324 67.8919 101.299 70.7413 104.665 73.6404M105.5 69C105.213 67.5648 106.797 66.902 108.33 66.6421M105.5 69L106.722 69.7128L111.5 72.5M68.5 117.5L76 155M68.5 117.5C70.3622 114 73.928 106.6 73.2934 105M5.87458 125C0.436702 105.747 1.45262 77.595 4.5001 71.5C7.18465 66.1309 18.2678 64.3746 26 64.0465M5.87458 125C7.57425 131.018 9.90441 136.166 13.0001 139.5C26.0001 153.5 61.5 117 67 111.5C68.0656 110.434 68.174 109.237 67.6416 108M5.87458 125L1 155M53 97.5C54.3333 95.5 57.5 93.2 59.5 92C62 90.5 71.5 84 72.5 84C72.7941 84 74.7195 84.0451 77.3515 84.1103M76 88C76.8679 88 77.9941 88 79.2398 88C80.2709 88 81.3839 88 82.5 88M82.5 88C85.4732 88 88.4691 88 90 88C92.8 88 92.8333 86.3333 92.5 85.5C88.4952 85.3946 81.8782 84.2226 77.3515 84.1103M82.5 88C83.8333 89.1667 86.2 91.6 85 92M85 92C85.5 93.0734 86.2 95.5482 85 96.8601M85 92L81.9854 92.2153L78 92.5M85 96.8601C86.0972 98.5537 87.1122 100.124 88 101.5L94.6064 94.3854M85 96.8601C83.5 99.9068 80.4 106 80 106C79.5 106 77 104 78.5 101.5C79.7 99.5 80.3333 97.5734 80.5 96.8601C78.7675 99.0297 75.3938 103.062 73.2934 105M67.6416 108C68.4277 107.667 70.4 106.8 72 106C72.3206 105.84 72.767 105.486 73.2934 105M77.3515 84.1103C71.8873 75.7611 66.6697 68.9037 65.5 67.5C63.9779 65.6735 60.0427 65.2757 57 65.3367M79.2398 96L81.5 97.5M26 64.0465C30.8333 69.031 41.6 78.8 46 78C51.5 77 56 74.6735 57 65.3367M108.33 66.6421L110.5 62.5L115.5 65L113.455 68.8323M108.33 66.6421C108.934 66.5399 109.529 66.5 110 66.5C111.267 67.1334 112.422 67.9433 113.455 68.8323M104.665 73.6404C105.593 74.44 106.703 75.2434 108 76C107.087 75.3553 105.868 74.5235 104.623 73.719M104.665 73.6404L104.623 73.719M104.623 73.719C102.006 72.028 99.2711 70.4579 99 71C98.6862 71.6277 100.342 75.2103 102.361 78.0383M102.361 78.0383L94 94L94.6064 94.3854M102.361 78.0383C103.558 79.7158 104.883 81.1277 106 81.5L101.547 91.1506M101.547 91.1506L98.5 96.8601L94.6064 94.3854M63.1592 29.2159C62.2728 29.4772 60.6 30.1 61 30.5C61.3185 30.8185 62.651 31.3397 63.7059 31.6763M63.1592 29.2159C63.9394 29.4772 65.6 30.1 66 30.5C66.5 31 65.5 32 65 32C64.8185 32 64.3073 31.8682 63.7059 31.6763M51.5 30.5C50.6667 30.5 48.8 30.6 48 31C47 31.5 47 30 47.5 29.5C48 29 52 27 54.5 29.5C54.5 30.6999 52.5 30.6666 51.5 30.5Z" stroke="#FF1D92"/>
<circle cx="53.5" cy="36.5" r="1.5" fill="#FF1D92"/>
<path d="M56.5 42.5C56.6667 42.6667 57.4 43 59 43C61 43 61.5 40 61 39.5C60.5 39 60 39.5 59 38.5C58.7887 38.2887 58.689 37.9333 58.666 37.5M31.5001 34C32.5001 35 34.4 37.1 34 37.5C33.6 37.9 31.1667 38.6667 30 39M112.5 71L110.5 73.5M107.5 77L108.5 75M46 99.5C51.6667 104.5 63.2 114.5 64 114.5M61.5 117C59.3333 115.5 54.8 112.2 54 111M111.5 100.5C108.562 100.366 102.822 99.0989 99.2151 95.3087M52 53.5C52.5 52.8333 53.9 51.8 55.5 53M54.5 38.5C54.1667 38 52.2 37.2 51 38M61.5 38.5C61.8333 38.1667 62.7 37.7 63.5 38.5M54 44.5C53.3333 44.1667 52.1325 43.1325 51.5 42.5C51 42 48 44.5 50 46C52 47.5 54 49 55.5 48C57 47 57 46 56.5 45.5C56 45 56 45.5 54 44.5Z" stroke="#FF1D92" stroke-width="0.5"/>
<circle cx="62.75" cy="36.75" r="1.25" fill="#FF1D92"/>
<path d="M34 43C34 44.6569 32.6569 46 31 46C29.3431 46 28 44.6569 28 43C28 41.3431 29.3431 40 31 40" stroke="#FF1D92"/>
<path d="M147.99 44H145.458L150.067 30.9091H152.995L157.61 44H155.078L151.582 33.5938H151.48L147.99 44ZM148.073 38.8672H154.976V40.772H148.073V38.8672ZM165.291 39.8707V34.1818H167.605V44H165.362V42.255H165.259C165.038 42.8047 164.673 43.2543 164.166 43.6037C163.664 43.9531 163.043 44.1278 162.306 44.1278C161.663 44.1278 161.094 43.9851 160.6 43.6996C160.11 43.4098 159.726 42.9901 159.449 42.4403C159.172 41.8864 159.034 41.2173 159.034 40.4332V34.1818H161.347V40.0753C161.347 40.6974 161.518 41.1918 161.859 41.5582C162.2 41.9247 162.647 42.108 163.201 42.108C163.542 42.108 163.872 42.0249 164.192 41.8587C164.512 41.6925 164.774 41.4453 164.978 41.1172C165.187 40.7848 165.291 40.3693 165.291 39.8707ZM174.689 34.1818V35.9716H169.045V34.1818H174.689ZM170.439 31.8295H172.753V41.0469C172.753 41.358 172.799 41.5966 172.893 41.7628C172.991 41.9247 173.119 42.0355 173.277 42.0952C173.434 42.1548 173.609 42.1847 173.801 42.1847C173.946 42.1847 174.078 42.174 174.197 42.1527C174.321 42.1314 174.415 42.1122 174.478 42.0952L174.868 43.9041C174.745 43.9467 174.568 43.9936 174.338 44.0447C174.112 44.0959 173.835 44.1257 173.507 44.1342C172.927 44.1513 172.405 44.0639 171.941 43.8722C171.476 43.6761 171.108 43.3736 170.835 42.9645C170.567 42.5554 170.434 42.044 170.439 41.4304V31.8295ZM180.604 44.1918C179.645 44.1918 178.814 43.9808 178.111 43.5589C177.408 43.1371 176.862 42.5469 176.475 41.7884C176.091 41.0298 175.899 40.1435 175.899 39.1293C175.899 38.1151 176.091 37.2266 176.475 36.4638C176.862 35.701 177.408 35.1087 178.111 34.6868C178.814 34.2649 179.645 34.054 180.604 34.054C181.563 34.054 182.394 34.2649 183.097 34.6868C183.8 35.1087 184.343 35.701 184.727 36.4638C185.114 37.2266 185.308 38.1151 185.308 39.1293C185.308 40.1435 185.114 41.0298 184.727 41.7884C184.343 42.5469 183.8 43.1371 183.097 43.5589C182.394 43.9808 181.563 44.1918 180.604 44.1918ZM180.617 42.3381C181.136 42.3381 181.571 42.1953 181.921 41.9098C182.27 41.62 182.53 41.2322 182.7 40.7464C182.875 40.2607 182.962 39.7195 182.962 39.1229C182.962 38.522 182.875 37.9787 182.7 37.4929C182.53 37.0028 182.27 36.6129 181.921 36.3232C181.571 36.0334 181.136 35.8885 180.617 35.8885C180.084 35.8885 179.641 36.0334 179.287 36.3232C178.938 36.6129 178.676 37.0028 178.501 37.4929C178.33 37.9787 178.245 38.522 178.245 39.1229C178.245 39.7195 178.33 40.2607 178.501 40.7464C178.676 41.2322 178.938 41.62 179.287 41.9098C179.641 42.1953 180.084 42.3381 180.617 42.3381ZM187.074 44V34.1818H189.286V35.8501H189.401C189.606 35.2876 189.944 34.8487 190.417 34.5334C190.89 34.2138 191.455 34.054 192.111 34.054C192.776 34.054 193.336 34.2159 193.792 34.5398C194.253 34.8594 194.576 35.2962 194.764 35.8501H194.866C195.084 35.3047 195.45 34.87 195.966 34.5462C196.486 34.218 197.101 34.054 197.813 34.054C198.716 34.054 199.454 34.3395 200.025 34.9105C200.596 35.4815 200.881 36.3146 200.881 37.4098V44H198.561V37.7678C198.561 37.1584 198.399 36.7131 198.075 36.4318C197.751 36.1463 197.355 36.0036 196.886 36.0036C196.328 36.0036 195.891 36.1783 195.576 36.5277C195.265 36.8729 195.109 37.3224 195.109 37.8764V44H192.84V37.6719C192.84 37.1648 192.687 36.7599 192.38 36.4574C192.077 36.1548 191.681 36.0036 191.191 36.0036C190.858 36.0036 190.556 36.0888 190.283 36.2592C190.01 36.4254 189.793 36.6619 189.631 36.9688C189.469 37.2713 189.388 37.625 189.388 38.0298V44H187.074ZM205.856 44.1982C205.234 44.1982 204.673 44.0874 204.175 43.8658C203.68 43.6399 203.288 43.3075 202.999 42.8686C202.713 42.4297 202.57 41.8885 202.57 41.245C202.57 40.6911 202.673 40.233 202.877 39.8707C203.082 39.5085 203.361 39.2188 203.715 39.0014C204.068 38.7841 204.467 38.62 204.91 38.5092C205.357 38.3942 205.82 38.3111 206.297 38.2599C206.872 38.2003 207.339 38.147 207.697 38.1001C208.055 38.049 208.315 37.9723 208.477 37.87C208.643 37.7635 208.726 37.5994 208.726 37.3778V37.3395C208.726 36.858 208.583 36.4851 208.298 36.2209C208.012 35.9567 207.601 35.8246 207.064 35.8246C206.497 35.8246 206.048 35.9482 205.715 36.1953C205.387 36.4425 205.166 36.7344 205.05 37.071L202.89 36.7642C203.06 36.1676 203.342 35.669 203.734 35.2685C204.126 34.8636 204.605 34.5611 205.172 34.3608C205.739 34.1562 206.365 34.054 207.051 34.054C207.524 34.054 207.995 34.1094 208.464 34.2202C208.933 34.331 209.361 34.5142 209.749 34.7699C210.136 35.0213 210.447 35.3643 210.682 35.799C210.921 36.2337 211.04 36.777 211.04 37.429V44H208.815V42.6513H208.739C208.598 42.924 208.4 43.1797 208.144 43.4183C207.893 43.6527 207.575 43.8423 207.192 43.9872C206.813 44.1278 206.367 44.1982 205.856 44.1982ZM206.457 42.4979C206.921 42.4979 207.324 42.4062 207.665 42.223C208.006 42.0355 208.268 41.7884 208.451 41.4815C208.639 41.1747 208.732 40.8402 208.732 40.478V39.321C208.66 39.3807 208.536 39.4361 208.362 39.4872C208.191 39.5384 207.999 39.5831 207.786 39.6214C207.573 39.6598 207.362 39.6939 207.153 39.7237C206.945 39.7536 206.764 39.7791 206.61 39.8004C206.265 39.8473 205.956 39.924 205.683 40.0305C205.411 40.1371 205.195 40.2862 205.038 40.478C204.88 40.6655 204.801 40.9084 204.801 41.2067C204.801 41.6328 204.957 41.9545 205.268 42.1719C205.579 42.3892 205.975 42.4979 206.457 42.4979ZM218.071 34.1818V35.9716H212.427V34.1818H218.071ZM213.821 31.8295H216.134V41.0469C216.134 41.358 216.181 41.5966 216.275 41.7628C216.373 41.9247 216.501 42.0355 216.659 42.0952C216.816 42.1548 216.991 42.1847 217.183 42.1847C217.328 42.1847 217.46 42.174 217.579 42.1527C217.703 42.1314 217.796 42.1122 217.86 42.0952L218.25 43.9041C218.127 43.9467 217.95 43.9936 217.72 44.0447C217.494 44.0959 217.217 44.1257 216.889 44.1342C216.309 44.1513 215.787 44.0639 215.323 43.8722C214.858 43.6761 214.49 43.3736 214.217 42.9645C213.948 42.5554 213.816 42.044 213.821 41.4304V31.8295ZM219.808 44V34.1818H222.122V44H219.808ZM220.972 32.7884C220.605 32.7884 220.29 32.6669 220.026 32.424C219.762 32.1768 219.629 31.8807 219.629 31.5355C219.629 31.1861 219.762 30.8899 220.026 30.647C220.29 30.3999 220.605 30.2763 220.972 30.2763C221.343 30.2763 221.658 30.3999 221.918 30.647C222.182 30.8899 222.314 31.1861 222.314 31.5355C222.314 31.8807 222.182 32.1768 221.918 32.424C221.658 32.6669 221.343 32.7884 220.972 32.7884ZM224.176 44V42.5298L229.238 36.1825V36.0994H224.342V34.1818H232.07V35.7607L227.251 41.9993V42.0824H232.236V44H224.176ZM237.038 44.1982C236.416 44.1982 235.856 44.0874 235.357 43.8658C234.863 43.6399 234.471 43.3075 234.181 42.8686C233.896 42.4297 233.753 41.8885 233.753 41.245C233.753 40.6911 233.855 40.233 234.06 39.8707C234.264 39.5085 234.543 39.2188 234.897 39.0014C235.251 38.7841 235.649 38.62 236.092 38.5092C236.54 38.3942 237.002 38.3111 237.48 38.2599C238.055 38.2003 238.521 38.147 238.879 38.1001C239.237 38.049 239.497 37.9723 239.659 37.87C239.825 37.7635 239.909 37.5994 239.909 37.3778V37.3395C239.909 36.858 239.766 36.4851 239.48 36.2209C239.195 35.9567 238.784 35.8246 238.247 35.8246C237.68 35.8246 237.23 35.9482 236.898 36.1953C236.57 36.4425 236.348 36.7344 236.233 37.071L234.073 36.7642C234.243 36.1676 234.524 35.669 234.916 35.2685C235.308 34.8636 235.788 34.5611 236.355 34.3608C236.921 34.1562 237.548 34.054 238.234 34.054C238.707 34.054 239.178 34.1094 239.646 34.2202C240.115 34.331 240.543 34.5142 240.931 34.7699C241.319 35.0213 241.63 35.3643 241.864 35.799C242.103 36.2337 242.222 36.777 242.222 37.429V44H239.998V42.6513H239.921C239.781 42.924 239.583 43.1797 239.327 43.4183C239.075 43.6527 238.758 43.8423 238.374 43.9872C237.995 44.1278 237.55 44.1982 237.038 44.1982ZM237.639 42.4979C238.104 42.4979 238.507 42.4062 238.847 42.223C239.188 42.0355 239.45 41.7884 239.634 41.4815C239.821 41.1747 239.915 40.8402 239.915 40.478V39.321C239.842 39.3807 239.719 39.4361 239.544 39.4872C239.374 39.5384 239.182 39.5831 238.969 39.6214C238.756 39.6598 238.545 39.6939 238.336 39.7237C238.127 39.7536 237.946 39.7791 237.793 39.8004C237.448 39.8473 237.139 39.924 236.866 40.0305C236.593 40.1371 236.378 40.2862 236.22 40.478C236.063 40.6655 235.984 40.9084 235.984 41.2067C235.984 41.6328 236.139 41.9545 236.45 42.1719C236.762 42.3892 237.158 42.4979 237.639 42.4979ZM248.634 44.1918C247.654 44.1918 246.812 43.9766 246.109 43.5462C245.41 43.1158 244.871 42.5213 244.492 41.7628C244.117 41 243.929 40.1222 243.929 39.1293C243.929 38.1321 244.121 37.2521 244.505 36.4893C244.888 35.7223 245.429 35.1257 246.128 34.6996C246.831 34.2692 247.662 34.054 248.621 34.054C249.418 34.054 250.123 34.201 250.737 34.495C251.355 34.7848 251.847 35.196 252.213 35.7287C252.58 36.2571 252.789 36.875 252.84 37.5824H250.628C250.539 37.1094 250.326 36.7152 249.989 36.3999C249.657 36.0803 249.211 35.9205 248.653 35.9205C248.18 35.9205 247.764 36.0483 247.407 36.304C247.049 36.5554 246.769 36.9176 246.569 37.3906C246.373 37.8636 246.275 38.4304 246.275 39.0909C246.275 39.7599 246.373 40.3352 246.569 40.8168C246.765 41.294 247.04 41.6626 247.394 41.9226C247.752 42.1783 248.171 42.3061 248.653 42.3061C248.994 42.3061 249.299 42.2422 249.567 42.1143C249.84 41.9822 250.068 41.7926 250.251 41.5455C250.434 41.2983 250.56 40.9979 250.628 40.6442H252.84C252.784 41.3388 252.58 41.9545 252.226 42.4915C251.872 43.0241 251.391 43.4418 250.782 43.7443C250.172 44.0426 249.456 44.1918 248.634 44.1918ZM247.969 43.9489H249.222L249.12 44.4922C249.52 44.5518 249.859 44.7053 250.136 44.9524C250.417 45.2038 250.558 45.5639 250.558 46.0327C250.562 46.6378 250.291 47.1236 249.746 47.4901C249.201 47.8565 248.423 48.0398 247.413 48.0398L247.387 46.902C247.877 46.902 248.267 46.8359 248.557 46.7038C248.847 46.576 248.994 46.3714 248.998 46.0902C249.007 45.8175 248.904 45.6172 248.691 45.4893C248.483 45.3658 248.15 45.2805 247.694 45.2337L247.969 43.9489ZM257.367 44.1982C256.745 44.1982 256.185 44.0874 255.686 43.8658C255.192 43.6399 254.8 43.3075 254.51 42.8686C254.224 42.4297 254.082 41.8885 254.082 41.245C254.082 40.6911 254.184 40.233 254.388 39.8707C254.593 39.5085 254.872 39.2188 255.226 39.0014C255.579 38.7841 255.978 38.62 256.421 38.5092C256.869 38.3942 257.331 38.3111 257.808 38.2599C258.383 38.2003 258.85 38.147 259.208 38.1001C259.566 38.049 259.826 37.9723 259.988 37.87C260.154 37.7635 260.237 37.5994 260.237 37.3778V37.3395C260.237 36.858 260.094 36.4851 259.809 36.2209C259.523 35.9567 259.112 35.8246 258.575 35.8246C258.008 35.8246 257.559 35.9482 257.226 36.1953C256.898 36.4425 256.677 36.7344 256.562 37.071L254.401 36.7642C254.572 36.1676 254.853 35.669 255.245 35.2685C255.637 34.8636 256.116 34.5611 256.683 34.3608C257.25 34.1562 257.876 34.054 258.562 34.054C259.035 34.054 259.506 34.1094 259.975 34.2202C260.444 34.331 260.872 34.5142 261.26 34.7699C261.648 35.0213 261.959 35.3643 262.193 35.799C262.432 36.2337 262.551 36.777 262.551 37.429V44H260.327V42.6513H260.25C260.109 42.924 259.911 43.1797 259.655 43.4183C259.404 43.6527 259.087 43.8423 258.703 43.9872C258.324 44.1278 257.878 44.1982 257.367 44.1982ZM257.968 42.4979C258.432 42.4979 258.835 42.4062 259.176 42.223C259.517 42.0355 259.779 41.7884 259.962 41.4815C260.15 41.1747 260.244 40.8402 260.244 40.478V39.321C260.171 39.3807 260.048 39.4361 259.873 39.4872C259.702 39.5384 259.511 39.5831 259.298 39.6214C259.084 39.6598 258.873 39.6939 258.665 39.7237C258.456 39.7536 258.275 39.7791 258.121 39.8004C257.776 39.8473 257.467 39.924 257.195 40.0305C256.922 40.1371 256.707 40.2862 256.549 40.478C256.391 40.6655 256.312 40.9084 256.312 41.2067C256.312 41.6328 256.468 41.9545 256.779 42.1719C257.09 42.3892 257.486 42.4979 257.968 42.4979ZM256.785 32.9865L255.386 32.9545C255.386 32.196 255.582 31.6016 255.974 31.1712C256.366 30.7408 256.849 30.5256 257.425 30.5256C257.702 30.5256 257.942 30.5724 258.147 30.6662C258.351 30.7557 258.539 30.8601 258.709 30.9794C258.884 31.0987 259.055 31.2053 259.221 31.299C259.387 31.3885 259.57 31.4332 259.771 31.4332C260.013 31.4332 260.205 31.3416 260.346 31.1584C260.491 30.9751 260.565 30.7408 260.57 30.4553L261.944 30.5128C261.94 31.2756 261.741 31.8679 261.349 32.2898C260.957 32.7074 260.476 32.9183 259.905 32.9226C259.598 32.9268 259.34 32.8821 259.131 32.7884C258.923 32.6946 258.739 32.5881 258.582 32.4688C258.428 32.3494 258.273 32.245 258.115 32.1555C257.957 32.0618 257.772 32.0149 257.559 32.0149C257.333 32.0149 257.148 32.1044 257.003 32.2834C256.858 32.4624 256.785 32.6967 256.785 32.9865ZM268.962 44.1918C268.004 44.1918 267.173 43.9808 266.47 43.5589C265.766 43.1371 265.221 42.5469 264.833 41.7884C264.45 41.0298 264.258 40.1435 264.258 39.1293C264.258 38.1151 264.45 37.2266 264.833 36.4638C265.221 35.701 265.766 35.1087 266.47 34.6868C267.173 34.2649 268.004 34.054 268.962 34.054C269.921 34.054 270.752 34.2649 271.455 34.6868C272.158 35.1087 272.702 35.701 273.085 36.4638C273.473 37.2266 273.667 38.1151 273.667 39.1293C273.667 40.1435 273.473 41.0298 273.085 41.7884C272.702 42.5469 272.158 43.1371 271.455 43.5589C270.752 43.9808 269.921 44.1918 268.962 44.1918ZM268.975 42.3381C269.495 42.3381 269.93 42.1953 270.279 41.9098C270.629 41.62 270.889 41.2322 271.059 40.7464C271.234 40.2607 271.321 39.7195 271.321 39.1229C271.321 38.522 271.234 37.9787 271.059 37.4929C270.889 37.0028 270.629 36.6129 270.279 36.3232C269.93 36.0334 269.495 35.8885 268.975 35.8885C268.443 35.8885 267.999 36.0334 267.646 36.3232C267.296 36.6129 267.034 37.0028 266.859 37.4929C266.689 37.9787 266.604 38.522 266.604 39.1229C266.604 39.7195 266.689 40.2607 266.859 40.7464C267.034 41.2322 267.296 41.62 267.646 41.9098C267.999 42.1953 268.443 42.3381 268.975 42.3381Z" fill="#FF1D92"/>
<path d="M284.046 44.1918C283.062 44.1918 282.212 43.9872 281.496 43.5781C280.784 43.1648 280.237 42.581 279.853 41.8267C279.47 41.0682 279.278 40.1754 279.278 39.1484C279.278 38.1385 279.47 37.2521 279.853 36.4893C280.241 35.7223 280.782 35.1257 281.477 34.6996C282.171 34.2692 282.987 34.054 283.925 34.054C284.53 34.054 285.101 34.152 285.638 34.348C286.179 34.5398 286.656 34.8381 287.07 35.2429C287.487 35.6477 287.816 36.1634 288.054 36.7898C288.293 37.4119 288.412 38.1534 288.412 39.0142V39.7237H280.365V38.1641H286.194C286.19 37.7209 286.094 37.3267 285.906 36.9815C285.719 36.6321 285.457 36.3572 285.12 36.157C284.788 35.9567 284.4 35.8565 283.957 35.8565C283.484 35.8565 283.068 35.9716 282.71 36.2017C282.352 36.4276 282.073 36.7259 281.873 37.0966C281.677 37.4631 281.577 37.8658 281.573 38.3047V39.6662C281.573 40.2372 281.677 40.7273 281.886 41.1364C282.095 41.5412 282.387 41.8523 282.762 42.0696C283.137 42.2827 283.575 42.3892 284.078 42.3892C284.415 42.3892 284.72 42.3423 284.992 42.2486C285.265 42.1506 285.502 42.0078 285.702 41.8203C285.902 41.6328 286.053 41.4006 286.156 41.1236L288.316 41.3665C288.18 41.9375 287.92 42.4361 287.536 42.8622C287.157 43.2841 286.671 43.6122 286.079 43.8466C285.487 44.0767 284.809 44.1918 284.046 44.1918ZM169.644 71.1982C169.021 71.1982 168.461 71.0874 167.963 70.8658C167.468 70.6399 167.076 70.3075 166.786 69.8686C166.501 69.4297 166.358 68.8885 166.358 68.245C166.358 67.6911 166.46 67.233 166.665 66.8707C166.869 66.5085 167.149 66.2188 167.502 66.0014C167.856 65.7841 168.254 65.62 168.698 65.5092C169.145 65.3942 169.607 65.3111 170.085 65.2599C170.66 65.2003 171.127 65.147 171.485 65.1001C171.842 65.049 172.102 64.9723 172.264 64.87C172.431 64.7635 172.514 64.5994 172.514 64.3778V64.3395C172.514 63.858 172.371 63.4851 172.085 63.2209C171.8 62.9567 171.389 62.8246 170.852 62.8246C170.285 62.8246 169.835 62.9482 169.503 63.1953C169.175 63.4425 168.953 63.7344 168.838 64.071L166.678 63.7642C166.848 63.1676 167.129 62.669 167.521 62.2685C167.913 61.8636 168.393 61.5611 168.96 61.3608C169.526 61.1562 170.153 61.054 170.839 61.054C171.312 61.054 171.783 61.1094 172.252 61.2202C172.72 61.331 173.149 61.5142 173.536 61.7699C173.924 62.0213 174.235 62.3643 174.47 62.799C174.708 63.2337 174.828 63.777 174.828 64.429V71H172.603V69.6513H172.526C172.386 69.924 172.188 70.1797 171.932 70.4183C171.681 70.6527 171.363 70.8423 170.98 70.9872C170.6 71.1278 170.155 71.1982 169.644 71.1982ZM170.244 69.4979C170.709 69.4979 171.112 69.4062 171.453 69.223C171.793 69.0355 172.056 68.7884 172.239 68.4815C172.426 68.1747 172.52 67.8402 172.52 67.478V66.321C172.448 66.3807 172.324 66.4361 172.149 66.4872C171.979 66.5384 171.787 66.5831 171.574 66.6214C171.361 66.6598 171.15 66.6939 170.941 66.7237C170.732 66.7536 170.551 66.7791 170.398 66.8004C170.053 66.8473 169.744 66.924 169.471 67.0305C169.198 67.1371 168.983 67.2862 168.825 67.478C168.668 67.6655 168.589 67.9084 168.589 68.2067C168.589 68.6328 168.744 68.9545 169.056 69.1719C169.367 69.3892 169.763 69.4979 170.244 69.4979ZM181.226 74.8864C180.395 74.8864 179.681 74.7734 179.085 74.5476C178.488 74.326 178.009 74.0277 177.647 73.6527C177.284 73.2777 177.033 72.8622 176.892 72.4062L178.976 71.9013C179.07 72.093 179.206 72.2827 179.385 72.4702C179.564 72.6619 179.805 72.8196 180.108 72.9432C180.414 73.071 180.8 73.1349 181.265 73.1349C181.921 73.1349 182.464 72.9751 182.894 72.6555C183.325 72.3402 183.54 71.8203 183.54 71.0959V69.2358H183.425C183.306 69.4744 183.131 69.7195 182.901 69.9709C182.675 70.2223 182.375 70.4332 182 70.6037C181.629 70.7741 181.162 70.8594 180.6 70.8594C179.845 70.8594 179.162 70.6825 178.548 70.3288C177.939 69.9709 177.453 69.4382 177.09 68.7308C176.733 68.0192 176.554 67.1286 176.554 66.0589C176.554 64.9808 176.733 64.071 177.09 63.3295C177.453 62.5838 177.941 62.0192 178.554 61.6357C179.168 61.2479 179.852 61.054 180.606 61.054C181.181 61.054 181.654 61.152 182.025 61.348C182.4 61.5398 182.698 61.772 182.92 62.0447C183.142 62.3132 183.31 62.5668 183.425 62.8054H183.553V61.1818H185.835V71.1598C185.835 71.9993 185.635 72.6939 185.234 73.2436C184.833 73.7933 184.286 74.2045 183.591 74.4773C182.897 74.75 182.108 74.8864 181.226 74.8864ZM181.245 69.044C181.735 69.044 182.153 68.9247 182.498 68.6861C182.843 68.4474 183.105 68.1044 183.284 67.657C183.463 67.2095 183.553 66.6726 183.553 66.0462C183.553 65.4283 183.463 64.8871 183.284 64.4226C183.11 63.9581 182.85 63.598 182.505 63.3423C182.164 63.0824 181.744 62.9524 181.245 62.9524C180.73 62.9524 180.299 63.0866 179.954 63.3551C179.609 63.6236 179.349 63.9922 179.174 64.4609C179 64.9254 178.912 65.4538 178.912 66.0462C178.912 66.647 179 67.1733 179.174 67.625C179.353 68.0724 179.615 68.4219 179.961 68.6733C180.31 68.9205 180.738 69.044 181.245 69.044ZM188.008 71V61.1818H190.322V71H188.008ZM189.172 59.7884C188.805 59.7884 188.49 59.6669 188.226 59.424C187.961 59.1768 187.829 58.8807 187.829 58.5355C187.829 58.1861 187.961 57.8899 188.226 57.647C188.49 57.3999 188.805 57.2763 189.172 57.2763C189.542 57.2763 189.858 57.3999 190.118 57.647C190.382 57.8899 190.514 58.1861 190.514 58.5355C190.514 58.8807 190.382 59.1768 190.118 59.424C189.858 59.6669 189.542 59.7884 189.172 59.7884ZM194.818 57.9091V71H192.504V57.9091H194.818ZM196.999 71V61.1818H199.313V71H196.999ZM198.162 59.7884C197.796 59.7884 197.481 59.6669 197.216 59.424C196.952 59.1768 196.82 58.8807 196.82 58.5355C196.82 58.1861 196.952 57.8899 197.216 57.647C197.481 57.3999 197.796 57.2763 198.162 57.2763C198.533 57.2763 198.848 57.3999 199.108 57.647C199.373 57.8899 199.505 58.1861 199.505 58.5355C199.505 58.8807 199.373 59.1768 199.108 59.424C198.848 59.6669 198.533 59.7884 198.162 59.7884ZM205.138 71.1726C204.366 71.1726 203.676 70.9744 203.067 70.5781C202.457 70.1818 201.976 69.6065 201.622 68.8523C201.268 68.098 201.092 67.1818 201.092 66.1037C201.092 65.0128 201.271 64.0923 201.629 63.3423C201.991 62.5881 202.479 62.0192 203.092 61.6357C203.706 61.2479 204.39 61.054 205.144 61.054C205.719 61.054 206.192 61.152 206.563 61.348C206.934 61.5398 207.228 61.772 207.445 62.0447C207.663 62.3132 207.831 62.5668 207.95 62.8054H208.046V57.9091H210.366V71H208.091V69.4531H207.95C207.831 69.6918 207.658 69.9453 207.433 70.2138C207.207 70.478 206.908 70.7038 206.538 70.8913C206.167 71.0788 205.7 71.1726 205.138 71.1726ZM205.783 69.2741C206.273 69.2741 206.691 69.142 207.036 68.8778C207.381 68.6094 207.643 68.2365 207.822 67.7592C208.001 67.282 208.091 66.7259 208.091 66.0909C208.091 65.456 208.001 64.9041 207.822 64.4354C207.648 63.9666 207.388 63.6023 207.043 63.3423C206.702 63.0824 206.282 62.9524 205.783 62.9524C205.268 62.9524 204.837 63.0866 204.492 63.3551C204.147 63.6236 203.887 63.9943 203.712 64.4673C203.538 64.9403 203.45 65.4815 203.45 66.0909C203.45 66.7045 203.538 67.2521 203.712 67.7337C203.891 68.2109 204.153 68.5881 204.499 68.8651C204.848 69.1378 205.276 69.2741 205.783 69.2741ZM215.46 71.1982C214.837 71.1982 214.277 71.0874 213.778 70.8658C213.284 70.6399 212.892 70.3075 212.602 69.8686C212.317 69.4297 212.174 68.8885 212.174 68.245C212.174 67.6911 212.276 67.233 212.481 66.8707C212.685 66.5085 212.964 66.2188 213.318 66.0014C213.672 65.7841 214.07 65.62 214.513 65.5092C214.961 65.3942 215.423 65.3111 215.901 65.2599C216.476 65.2003 216.942 65.147 217.3 65.1001C217.658 65.049 217.918 64.9723 218.08 64.87C218.246 64.7635 218.33 64.5994 218.33 64.3778V64.3395C218.33 63.858 218.187 63.4851 217.901 63.2209C217.616 62.9567 217.205 62.8246 216.668 62.8246C216.101 62.8246 215.651 62.9482 215.319 63.1953C214.991 63.4425 214.769 63.7344 214.654 64.071L212.494 63.7642C212.664 63.1676 212.945 62.669 213.337 62.2685C213.729 61.8636 214.209 61.5611 214.776 61.3608C215.342 61.1562 215.969 61.054 216.655 61.054C217.128 61.054 217.599 61.1094 218.067 61.2202C218.536 61.331 218.964 61.5142 219.352 61.7699C219.74 62.0213 220.051 62.3643 220.286 62.799C220.524 63.2337 220.643 63.777 220.643 64.429V71H218.419V69.6513H218.342C218.202 69.924 218.004 70.1797 217.748 70.4183C217.496 70.6527 217.179 70.8423 216.795 70.9872C216.416 71.1278 215.971 71.1982 215.46 71.1982ZM216.06 69.4979C216.525 69.4979 216.928 69.4062 217.268 69.223C217.609 69.0355 217.871 68.7884 218.055 68.4815C218.242 68.1747 218.336 67.8402 218.336 67.478V66.321C218.263 66.3807 218.14 66.4361 217.965 66.4872C217.795 66.5384 217.603 66.5831 217.39 66.6214C217.177 66.6598 216.966 66.6939 216.757 66.7237C216.548 66.7536 216.367 66.7791 216.214 66.8004C215.869 66.8473 215.56 66.924 215.287 67.0305C215.014 67.1371 214.799 67.2862 214.641 67.478C214.484 67.6655 214.405 67.9084 214.405 68.2067C214.405 68.6328 214.56 68.9545 214.871 69.1719C215.183 69.3892 215.579 69.4979 216.06 69.4979ZM226.416 71.1726C225.644 71.1726 224.954 70.9744 224.345 70.5781C223.735 70.1818 223.254 69.6065 222.9 68.8523C222.546 68.098 222.369 67.1818 222.369 66.1037C222.369 65.0128 222.548 64.0923 222.906 63.3423C223.269 62.5881 223.757 62.0192 224.37 61.6357C224.984 61.2479 225.668 61.054 226.422 61.054C226.997 61.054 227.47 61.152 227.841 61.348C228.212 61.5398 228.506 61.772 228.723 62.0447C228.94 62.3132 229.109 62.5668 229.228 62.8054H229.324V57.9091H231.644V71H229.369V69.4531H229.228C229.109 69.6918 228.936 69.9453 228.71 70.2138C228.485 70.478 228.186 70.7038 227.815 70.8913C227.445 71.0788 226.978 71.1726 226.416 71.1726ZM227.061 69.2741C227.551 69.2741 227.969 69.142 228.314 68.8778C228.659 68.6094 228.921 68.2365 229.1 67.7592C229.279 67.282 229.369 66.7259 229.369 66.0909C229.369 65.456 229.279 64.9041 229.1 64.4354C228.926 63.9666 228.666 63.6023 228.32 63.3423C227.98 63.0824 227.56 62.9524 227.061 62.9524C226.546 62.9524 226.115 63.0866 225.77 63.3551C225.425 63.6236 225.165 63.9943 224.99 64.4673C224.815 64.9403 224.728 65.4815 224.728 66.0909C224.728 66.7045 224.815 67.2521 224.99 67.7337C225.169 68.2109 225.431 68.5881 225.776 68.8651C226.126 69.1378 226.554 69.2741 227.061 69.2741ZM238.259 71.1918C237.274 71.1918 236.424 70.9872 235.708 70.5781C234.997 70.1648 234.449 69.581 234.065 68.8267C233.682 68.0682 233.49 67.1754 233.49 66.1484C233.49 65.1385 233.682 64.2521 234.065 63.4893C234.453 62.7223 234.994 62.1257 235.689 61.6996C236.384 61.2692 237.2 61.054 238.137 61.054C238.742 61.054 239.313 61.152 239.85 61.348C240.391 61.5398 240.869 61.8381 241.282 62.2429C241.7 62.6477 242.028 63.1634 242.266 63.7898C242.505 64.4119 242.624 65.1534 242.624 66.0142V66.7237H234.577V65.1641H240.406C240.402 64.7209 240.306 64.3267 240.119 63.9815C239.931 63.6321 239.669 63.3572 239.333 63.157C239 62.9567 238.612 62.8565 238.169 62.8565C237.696 62.8565 237.281 62.9716 236.923 63.2017C236.565 63.4276 236.286 63.7259 236.085 64.0966C235.889 64.4631 235.789 64.8658 235.785 65.3047V66.6662C235.785 67.2372 235.889 67.7273 236.098 68.1364C236.307 68.5412 236.599 68.8523 236.974 69.0696C237.349 69.2827 237.788 69.3892 238.291 69.3892C238.627 69.3892 238.932 69.3423 239.205 69.2486C239.477 69.1506 239.714 69.0078 239.914 68.8203C240.114 68.6328 240.266 68.4006 240.368 68.1236L242.529 68.3665C242.392 68.9375 242.132 69.4361 241.749 69.8622C241.369 70.2841 240.884 70.6122 240.291 70.8466C239.699 71.0767 239.021 71.1918 238.259 71.1918ZM250.965 65.2472V71H248.651V61.1818H250.862V62.8501H250.978C251.203 62.3004 251.563 61.8636 252.058 61.5398C252.556 61.2159 253.172 61.054 253.905 61.054C254.583 61.054 255.173 61.1989 255.676 61.4886C256.183 61.7784 256.575 62.1982 256.852 62.7479C257.133 63.2976 257.272 63.9645 257.267 64.7486V71H254.953V65.1065C254.953 64.4503 254.783 63.9368 254.442 63.5661C254.105 63.1953 253.639 63.0099 253.042 63.0099C252.637 63.0099 252.277 63.0994 251.962 63.2784C251.651 63.4531 251.406 63.7067 251.227 64.0391C251.052 64.3714 250.965 64.7741 250.965 65.2472ZM262.247 71.1982C261.625 71.1982 261.064 71.0874 260.566 70.8658C260.071 70.6399 259.679 70.3075 259.39 69.8686C259.104 69.4297 258.961 68.8885 258.961 68.245C258.961 67.6911 259.064 67.233 259.268 66.8707C259.473 66.5085 259.752 66.2188 260.106 66.0014C260.459 65.7841 260.858 65.62 261.301 65.5092C261.748 65.3942 262.211 65.3111 262.688 65.2599C263.263 65.2003 263.73 65.147 264.088 65.1001C264.446 65.049 264.706 64.9723 264.868 64.87C265.034 64.7635 265.117 64.5994 265.117 64.3778V64.3395C265.117 63.858 264.974 63.4851 264.689 63.2209C264.403 62.9567 263.992 62.8246 263.455 62.8246C262.888 62.8246 262.439 62.9482 262.106 63.1953C261.778 63.4425 261.557 63.7344 261.441 64.071L259.281 63.7642C259.451 63.1676 259.733 62.669 260.125 62.2685C260.517 61.8636 260.996 61.5611 261.563 61.3608C262.13 61.1562 262.756 61.054 263.442 61.054C263.915 61.054 264.386 61.1094 264.855 61.2202C265.324 61.331 265.752 61.5142 266.14 61.7699C266.527 62.0213 266.838 62.3643 267.073 62.799C267.311 63.2337 267.431 63.777 267.431 64.429V71H265.206V69.6513H265.13C264.989 69.924 264.791 70.1797 264.535 70.4183C264.284 70.6527 263.966 70.8423 263.583 70.9872C263.204 71.1278 262.758 71.1982 262.247 71.1982ZM262.848 69.4979C263.312 69.4979 263.715 69.4062 264.056 69.223C264.397 69.0355 264.659 68.7884 264.842 68.4815C265.03 68.1747 265.123 67.8402 265.123 67.478V66.321C265.051 66.3807 264.927 66.4361 264.753 66.4872C264.582 66.5384 264.39 66.5831 264.177 66.6214C263.964 66.6598 263.753 66.6939 263.544 66.7237C263.336 66.7536 263.155 66.7791 263.001 66.8004C262.656 66.8473 262.347 66.924 262.074 67.0305C261.802 67.1371 261.586 67.2862 261.429 67.478C261.271 67.6655 261.192 67.9084 261.192 68.2067C261.192 68.6328 261.348 68.9545 261.659 69.1719C261.97 69.3892 262.366 69.4979 262.848 69.4979ZM143.632 98.1918C142.647 98.1918 141.797 97.9872 141.081 97.5781C140.37 97.1648 139.822 96.581 139.438 95.8267C139.055 95.0682 138.863 94.1754 138.863 93.1484C138.863 92.1385 139.055 91.2521 139.438 90.4893C139.826 89.7223 140.367 89.1257 141.062 88.6996C141.757 88.2692 142.573 88.054 143.51 88.054C144.115 88.054 144.686 88.152 145.223 88.348C145.764 88.5398 146.242 88.8381 146.655 89.2429C147.073 89.6477 147.401 90.1634 147.639 90.7898C147.878 91.4119 147.997 92.1534 147.997 93.0142V93.7237H139.95V92.1641H145.779C145.775 91.7209 145.679 91.3267 145.492 90.9815C145.304 90.6321 145.042 90.3572 144.705 90.157C144.373 89.9567 143.985 89.8565 143.542 89.8565C143.069 89.8565 142.654 89.9716 142.296 90.2017C141.938 90.4276 141.659 90.7259 141.458 91.0966C141.262 91.4631 141.162 91.8658 141.158 92.3047V93.6662C141.158 94.2372 141.262 94.7273 141.471 95.1364C141.68 95.5412 141.972 95.8523 142.347 96.0696C142.722 96.2827 143.161 96.3892 143.664 96.3892C144 96.3892 144.305 96.3423 144.578 96.2486C144.85 96.1506 145.087 96.0078 145.287 95.8203C145.487 95.6328 145.639 95.4006 145.741 95.1236L147.901 95.3665C147.765 95.9375 147.505 96.4361 147.122 96.8622C146.742 97.2841 146.257 97.6122 145.664 97.8466C145.072 98.0767 144.394 98.1918 143.632 98.1918ZM151.438 88.1818L153.42 91.8061L155.433 88.1818H157.881L154.922 93.0909L157.932 98H155.497L153.42 94.4652L151.361 98H148.907L151.898 93.0909L148.983 88.1818H151.438ZM164.376 88.1818V89.9716H158.732V88.1818H164.376ZM160.125 85.8295H162.439V95.0469C162.439 95.358 162.486 95.5966 162.58 95.7628C162.678 95.9247 162.805 96.0355 162.963 96.0952C163.121 96.1548 163.295 96.1847 163.487 96.1847C163.632 96.1847 163.764 96.174 163.884 96.1527C164.007 96.1314 164.101 96.1122 164.165 96.0952L164.555 97.9041C164.431 97.9467 164.254 97.9936 164.024 98.0447C163.798 98.0959 163.521 98.1257 163.193 98.1342C162.614 98.1513 162.092 98.0639 161.627 97.8722C161.163 97.6761 160.794 97.3736 160.521 96.9645C160.253 96.5554 160.121 96.044 160.125 95.4304V85.8295ZM166.113 98V88.1818H168.356V89.8182H168.459C168.638 89.2514 168.945 88.8146 169.379 88.5078C169.818 88.1967 170.319 88.0412 170.881 88.0412C171.009 88.0412 171.152 88.0476 171.31 88.0604C171.472 88.0689 171.606 88.0838 171.712 88.1051V90.2337C171.614 90.1996 171.459 90.1697 171.246 90.1442C171.037 90.1143 170.834 90.0994 170.638 90.0994C170.217 90.0994 169.837 90.1911 169.501 90.3743C169.168 90.5533 168.906 90.8026 168.714 91.1222C168.523 91.4418 168.427 91.8104 168.427 92.228V98H166.113ZM175.701 98.1982C175.079 98.1982 174.519 98.0874 174.02 97.8658C173.526 97.6399 173.134 97.3075 172.844 96.8686C172.558 96.4297 172.416 95.8885 172.416 95.245C172.416 94.6911 172.518 94.233 172.722 93.8707C172.927 93.5085 173.206 93.2188 173.56 93.0014C173.913 92.7841 174.312 92.62 174.755 92.5092C175.203 92.3942 175.665 92.3111 176.142 92.2599C176.717 92.2003 177.184 92.147 177.542 92.1001C177.9 92.049 178.16 91.9723 178.322 91.87C178.488 91.7635 178.571 91.5994 178.571 91.3778V91.3395C178.571 90.858 178.428 90.4851 178.143 90.2209C177.857 89.9567 177.446 89.8246 176.909 89.8246C176.342 89.8246 175.893 89.9482 175.56 90.1953C175.232 90.4425 175.011 90.7344 174.896 91.071L172.735 90.7642C172.906 90.1676 173.187 89.669 173.579 89.2685C173.971 88.8636 174.45 88.5611 175.017 88.3608C175.584 88.1562 176.21 88.054 176.896 88.054C177.369 88.054 177.84 88.1094 178.309 88.2202C178.778 88.331 179.206 88.5142 179.594 88.7699C179.982 89.0213 180.293 89.3643 180.527 89.799C180.766 90.2337 180.885 90.777 180.885 91.429V98H178.661V96.6513H178.584C178.443 96.924 178.245 97.1797 177.989 97.4183C177.738 97.6527 177.421 97.8423 177.037 97.9872C176.658 98.1278 176.212 98.1982 175.701 98.1982ZM176.302 96.4979C176.766 96.4979 177.169 96.4062 177.51 96.223C177.851 96.0355 178.113 95.7884 178.296 95.4815C178.484 95.1747 178.578 94.8402 178.578 94.478V93.321C178.505 93.3807 178.381 93.4361 178.207 93.4872C178.036 93.5384 177.845 93.5831 177.631 93.6214C177.418 93.6598 177.207 93.6939 176.999 93.7237C176.79 93.7536 176.609 93.7791 176.455 93.8004C176.11 93.8473 175.801 93.924 175.529 94.0305C175.256 94.1371 175.041 94.2862 174.883 94.478C174.725 94.6655 174.646 94.9084 174.646 95.2067C174.646 95.6328 174.802 95.9545 175.113 96.1719C175.424 96.3892 175.82 96.4979 176.302 96.4979ZM187.296 98.1918C186.316 98.1918 185.475 97.9766 184.772 97.5462C184.073 97.1158 183.534 96.5213 183.154 95.7628C182.779 95 182.592 94.1222 182.592 93.1293C182.592 92.1321 182.784 91.2521 183.167 90.4893C183.551 89.7223 184.092 89.1257 184.791 88.6996C185.494 88.2692 186.325 88.054 187.284 88.054C188.081 88.054 188.786 88.201 189.399 88.495C190.017 88.7848 190.509 89.196 190.876 89.7287C191.242 90.2571 191.451 90.875 191.502 91.5824H189.291C189.201 91.1094 188.988 90.7152 188.652 90.3999C188.319 90.0803 187.874 89.9205 187.316 89.9205C186.843 89.9205 186.427 90.0483 186.069 90.304C185.711 90.5554 185.432 90.9176 185.232 91.3906C185.036 91.8636 184.938 92.4304 184.938 93.0909C184.938 93.7599 185.036 94.3352 185.232 94.8168C185.428 95.294 185.703 95.6626 186.056 95.9226C186.414 96.1783 186.834 96.3061 187.316 96.3061C187.657 96.3061 187.961 96.2422 188.23 96.1143C188.502 95.9822 188.73 95.7926 188.914 95.5455C189.097 95.2983 189.223 94.9979 189.291 94.6442H191.502C191.447 95.3388 191.242 95.9545 190.889 96.4915C190.535 97.0241 190.054 97.4418 189.444 97.7443C188.835 98.0426 188.119 98.1918 187.296 98.1918ZM186.632 97.9489H187.884L187.782 98.4922C188.183 98.5518 188.522 98.7053 188.799 98.9524C189.08 99.2038 189.22 99.5639 189.22 100.033C189.225 100.638 188.954 101.124 188.409 101.49C187.863 101.857 187.085 102.04 186.076 102.04L186.05 100.902C186.54 100.902 186.93 100.836 187.22 100.704C187.509 100.576 187.657 100.371 187.661 100.09C187.669 99.8175 187.567 99.6172 187.354 99.4893C187.145 99.3658 186.813 99.2805 186.357 99.2337L186.632 97.9489ZM196.03 98.1982C195.408 98.1982 194.847 98.0874 194.349 97.8658C193.854 97.6399 193.462 97.3075 193.172 96.8686C192.887 96.4297 192.744 95.8885 192.744 95.245C192.744 94.6911 192.846 94.233 193.051 93.8707C193.256 93.5085 193.535 93.2188 193.888 93.0014C194.242 92.7841 194.641 92.62 195.084 92.5092C195.531 92.3942 195.993 92.3111 196.471 92.2599C197.046 92.2003 197.513 92.147 197.871 92.1001C198.229 92.049 198.489 91.9723 198.65 91.87C198.817 91.7635 198.9 91.5994 198.9 91.3778V91.3395C198.9 90.858 198.757 90.4851 198.471 90.2209C198.186 89.9567 197.775 89.8246 197.238 89.8246C196.671 89.8246 196.221 89.9482 195.889 90.1953C195.561 90.4425 195.339 90.7344 195.224 91.071L193.064 90.7642C193.234 90.1676 193.516 89.669 193.908 89.2685C194.3 88.8636 194.779 88.5611 195.346 88.3608C195.913 88.1562 196.539 88.054 197.225 88.054C197.698 88.054 198.169 88.1094 198.638 88.2202C199.106 88.331 199.535 88.5142 199.922 88.7699C200.31 89.0213 200.621 89.3643 200.856 89.799C201.094 90.2337 201.214 90.777 201.214 91.429V98H198.989V96.6513H198.913C198.772 96.924 198.574 97.1797 198.318 97.4183C198.067 97.6527 197.749 97.8423 197.366 97.9872C196.986 98.1278 196.541 98.1982 196.03 98.1982ZM196.631 96.4979C197.095 96.4979 197.498 96.4062 197.839 96.223C198.18 96.0355 198.442 95.7884 198.625 95.4815C198.812 95.1747 198.906 94.8402 198.906 94.478V93.321C198.834 93.3807 198.71 93.4361 198.535 93.4872C198.365 93.5384 198.173 93.5831 197.96 93.6214C197.747 93.6598 197.536 93.6939 197.327 93.7237C197.118 93.7536 196.937 93.7791 196.784 93.8004C196.439 93.8473 196.13 93.924 195.857 94.0305C195.584 94.1371 195.369 94.2862 195.212 94.478C195.054 94.6655 194.975 94.9084 194.975 95.2067C194.975 95.6328 195.131 95.9545 195.442 96.1719C195.753 96.3892 196.149 96.4979 196.631 96.4979ZM195.448 86.9865L194.048 86.9545C194.048 86.196 194.244 85.6016 194.636 85.1712C195.028 84.7408 195.512 84.5256 196.087 84.5256C196.364 84.5256 196.605 84.5724 196.81 84.6662C197.014 84.7557 197.202 84.8601 197.372 84.9794C197.547 85.0987 197.717 85.2053 197.883 85.299C198.05 85.3885 198.233 85.4332 198.433 85.4332C198.676 85.4332 198.868 85.3416 199.008 85.1584C199.153 84.9751 199.228 84.7408 199.232 84.4553L200.606 84.5128C200.602 85.2756 200.404 85.8679 200.012 86.2898C199.62 86.7074 199.138 86.9183 198.567 86.9226C198.261 86.9268 198.003 86.8821 197.794 86.7884C197.585 86.6946 197.402 86.5881 197.244 86.4688C197.091 86.3494 196.935 86.245 196.778 86.1555C196.62 86.0618 196.435 86.0149 196.221 86.0149C195.996 86.0149 195.81 86.1044 195.665 86.2834C195.52 86.4624 195.448 86.6967 195.448 86.9865ZM207.625 98.1918C206.666 98.1918 205.835 97.9808 205.132 97.5589C204.429 97.1371 203.884 96.5469 203.496 95.7884C203.112 95.0298 202.92 94.1435 202.92 93.1293C202.92 92.1151 203.112 91.2266 203.496 90.4638C203.884 89.701 204.429 89.1087 205.132 88.6868C205.835 88.2649 206.666 88.054 207.625 88.054C208.584 88.054 209.415 88.2649 210.118 88.6868C210.821 89.1087 211.364 89.701 211.748 90.4638C212.136 91.2266 212.33 92.1151 212.33 93.1293C212.33 94.1435 212.136 95.0298 211.748 95.7884C211.364 96.5469 210.821 97.1371 210.118 97.5589C209.415 97.9808 208.584 98.1918 207.625 98.1918ZM207.638 96.3381C208.158 96.3381 208.592 96.1953 208.942 95.9098C209.291 95.62 209.551 95.2322 209.722 94.7464C209.896 94.2607 209.984 93.7195 209.984 93.1229C209.984 92.522 209.896 91.9787 209.722 91.4929C209.551 91.0028 209.291 90.6129 208.942 90.3232C208.592 90.0334 208.158 89.8885 207.638 89.8885C207.105 89.8885 206.662 90.0334 206.308 90.3232C205.959 90.6129 205.697 91.0028 205.522 91.4929C205.352 91.9787 205.266 92.522 205.266 93.1229C205.266 93.7195 205.352 94.2607 205.522 94.7464C205.697 95.2322 205.959 95.62 206.308 95.9098C206.662 96.1953 207.105 96.3381 207.638 96.3381ZM222.006 98.1726C221.235 98.1726 220.544 97.9744 219.935 97.5781C219.325 97.1818 218.844 96.6065 218.49 95.8523C218.137 95.098 217.96 94.1818 217.96 93.1037C217.96 92.0128 218.139 91.0923 218.497 90.3423C218.859 89.5881 219.347 89.0192 219.96 88.6357C220.574 88.2479 221.258 88.054 222.012 88.054C222.588 88.054 223.061 88.152 223.431 88.348C223.802 88.5398 224.096 88.772 224.313 89.0447C224.531 89.3132 224.699 89.5668 224.818 89.8054H224.914V84.9091H227.235V98H224.959V96.4531H224.818C224.699 96.6918 224.526 96.9453 224.301 97.2138C224.075 97.478 223.776 97.7038 223.406 97.8913C223.035 98.0788 222.568 98.1726 222.006 98.1726ZM222.651 96.2741C223.142 96.2741 223.559 96.142 223.904 95.8778C224.249 95.6094 224.512 95.2365 224.691 94.7592C224.869 94.282 224.959 93.7259 224.959 93.0909C224.959 92.456 224.869 91.9041 224.691 91.4354C224.516 90.9666 224.256 90.6023 223.911 90.3423C223.57 90.0824 223.15 89.9524 222.651 89.9524C222.136 89.9524 221.705 90.0866 221.36 90.3551C221.015 90.6236 220.755 90.9943 220.58 91.4673C220.406 91.9403 220.318 92.4815 220.318 93.0909C220.318 93.7045 220.406 94.2521 220.58 94.7337C220.759 95.2109 221.021 95.5881 221.367 95.8651C221.716 96.1378 222.144 96.2741 222.651 96.2741ZM233.849 98.1918C232.864 98.1918 232.014 97.9872 231.298 97.5781C230.587 97.1648 230.039 96.581 229.656 95.8267C229.272 95.0682 229.08 94.1754 229.08 93.1484C229.08 92.1385 229.272 91.2521 229.656 90.4893C230.043 89.7223 230.585 89.1257 231.279 88.6996C231.974 88.2692 232.79 88.054 233.727 88.054C234.333 88.054 234.904 88.152 235.44 88.348C235.982 88.5398 236.459 88.8381 236.872 89.2429C237.29 89.6477 237.618 90.1634 237.857 90.7898C238.095 91.4119 238.215 92.1534 238.215 93.0142V93.7237H230.167V92.1641H235.997C235.992 91.7209 235.896 91.3267 235.709 90.9815C235.521 90.6321 235.259 90.3572 234.923 90.157C234.59 89.9567 234.203 89.8565 233.759 89.8565C233.286 89.8565 232.871 89.9716 232.513 90.2017C232.155 90.4276 231.876 90.7259 231.676 91.0966C231.48 91.4631 231.379 91.8658 231.375 92.3047V93.6662C231.375 94.2372 231.48 94.7273 231.688 95.1364C231.897 95.5412 232.189 95.8523 232.564 96.0696C232.939 96.2827 233.378 96.3892 233.881 96.3892C234.217 96.3892 234.522 96.3423 234.795 96.2486C235.068 96.1506 235.304 96.0078 235.504 95.8203C235.705 95.6328 235.856 95.4006 235.958 95.1236L238.119 95.3665C237.982 95.9375 237.722 96.4361 237.339 96.8622C236.96 97.2841 236.474 97.6122 235.882 97.8466C235.289 98.0767 234.612 98.1918 233.849 98.1918ZM247.885 98.1726C247.113 98.1726 246.423 97.9744 245.813 97.5781C245.204 97.1818 244.723 96.6065 244.369 95.8523C244.015 95.098 243.838 94.1818 243.838 93.1037C243.838 92.0128 244.017 91.0923 244.375 90.3423C244.737 89.5881 245.225 89.0192 245.839 88.6357C246.453 88.2479 247.137 88.054 247.891 88.054C248.466 88.054 248.939 88.152 249.31 88.348C249.681 88.5398 249.975 88.772 250.192 89.0447C250.409 89.3132 250.578 89.5668 250.697 89.8054H250.793V84.9091H253.113V98H250.838V96.4531H250.697C250.578 96.6918 250.405 96.9453 250.179 97.2138C249.953 97.478 249.655 97.7038 249.284 97.8913C248.914 98.0788 248.447 98.1726 247.885 98.1726ZM248.53 96.2741C249.02 96.2741 249.438 96.142 249.783 95.8778C250.128 95.6094 250.39 95.2365 250.569 94.7592C250.748 94.282 250.838 93.7259 250.838 93.0909C250.838 92.456 250.748 91.9041 250.569 91.4354C250.394 90.9666 250.135 90.6023 249.789 90.3423C249.448 90.0824 249.029 89.9524 248.53 89.9524C248.014 89.9524 247.584 90.0866 247.239 90.3551C246.894 90.6236 246.634 90.9943 246.459 91.4673C246.284 91.9403 246.197 92.4815 246.197 93.0909C246.197 93.7045 246.284 94.2521 246.459 94.7337C246.638 95.2109 246.9 95.5881 247.245 95.8651C247.595 96.1378 248.023 96.2741 248.53 96.2741ZM258.206 98.1982C257.584 98.1982 257.024 98.0874 256.525 97.8658C256.031 97.6399 255.639 97.3075 255.349 96.8686C255.063 96.4297 254.921 95.8885 254.921 95.245C254.921 94.6911 255.023 94.233 255.228 93.8707C255.432 93.5085 255.711 93.2188 256.065 93.0014C256.419 92.7841 256.817 92.62 257.26 92.5092C257.708 92.3942 258.17 92.3111 258.647 92.2599C259.223 92.2003 259.689 92.147 260.047 92.1001C260.405 92.049 260.665 91.9723 260.827 91.87C260.993 91.7635 261.076 91.5994 261.076 91.3778V91.3395C261.076 90.858 260.933 90.4851 260.648 90.2209C260.362 89.9567 259.951 89.8246 259.414 89.8246C258.848 89.8246 258.398 89.9482 258.066 90.1953C257.737 90.4425 257.516 90.7344 257.401 91.071L255.24 90.7642C255.411 90.1676 255.692 89.669 256.084 89.2685C256.476 88.8636 256.956 88.5611 257.522 88.3608C258.089 88.1562 258.715 88.054 259.402 88.054C259.875 88.054 260.345 88.1094 260.814 88.2202C261.283 88.331 261.711 88.5142 262.099 88.7699C262.487 89.0213 262.798 89.3643 263.032 89.799C263.271 90.2337 263.39 90.777 263.39 91.429V98H261.166V96.6513H261.089C260.948 96.924 260.75 97.1797 260.495 97.4183C260.243 97.6527 259.926 97.8423 259.542 97.9872C259.163 98.1278 258.718 98.1982 258.206 98.1982ZM258.807 96.4979C259.272 96.4979 259.674 96.4062 260.015 96.223C260.356 96.0355 260.618 95.7884 260.801 95.4815C260.989 95.1747 261.083 94.8402 261.083 94.478V93.321C261.01 93.3807 260.887 93.4361 260.712 93.4872C260.541 93.5384 260.35 93.5831 260.137 93.6214C259.924 93.6598 259.713 93.6939 259.504 93.7237C259.295 93.7536 259.114 93.7791 258.96 93.8004C258.615 93.8473 258.306 93.924 258.034 94.0305C257.761 94.1371 257.546 94.2862 257.388 94.478C257.23 94.6655 257.152 94.9084 257.152 95.2067C257.152 95.6328 257.307 95.9545 257.618 96.1719C257.929 96.3892 258.326 96.4979 258.807 96.4979ZM269.162 98.1726C268.391 98.1726 267.701 97.9744 267.091 97.5781C266.482 97.1818 266 96.6065 265.647 95.8523C265.293 95.098 265.116 94.1818 265.116 93.1037C265.116 92.0128 265.295 91.0923 265.653 90.3423C266.015 89.5881 266.503 89.0192 267.117 88.6357C267.731 88.2479 268.414 88.054 269.169 88.054C269.744 88.054 270.217 88.152 270.588 88.348C270.958 88.5398 271.253 88.772 271.47 89.0447C271.687 89.3132 271.856 89.5668 271.975 89.8054H272.071V84.9091H274.391V98H272.115V96.4531H271.975C271.856 96.6918 271.683 96.9453 271.457 97.2138C271.231 97.478 270.933 97.7038 270.562 97.8913C270.191 98.0788 269.725 98.1726 269.162 98.1726ZM269.808 96.2741C270.298 96.2741 270.716 96.142 271.061 95.8778C271.406 95.6094 271.668 95.2365 271.847 94.7592C272.026 94.282 272.115 93.7259 272.115 93.0909C272.115 92.456 272.026 91.9041 271.847 91.4354C271.672 90.9666 271.412 90.6023 271.067 90.3423C270.726 90.0824 270.307 89.9524 269.808 89.9524C269.292 89.9524 268.862 90.0866 268.517 90.3551C268.172 90.6236 267.912 90.9943 267.737 91.4673C267.562 91.9403 267.475 92.4815 267.475 93.0909C267.475 93.7045 267.562 94.2521 267.737 94.7337C267.916 95.2109 268.178 95.5881 268.523 95.8651C268.873 96.1378 269.301 96.2741 269.808 96.2741ZM280.941 98.1918C279.983 98.1918 279.152 97.9808 278.449 97.5589C277.745 97.1371 277.2 96.5469 276.812 95.7884C276.429 95.0298 276.237 94.1435 276.237 93.1293C276.237 92.1151 276.429 91.2266 276.812 90.4638C277.2 89.701 277.745 89.1087 278.449 88.6868C279.152 88.2649 279.983 88.054 280.941 88.054C281.9 88.054 282.731 88.2649 283.434 88.6868C284.137 89.1087 284.681 89.701 285.064 90.4638C285.452 91.2266 285.646 92.1151 285.646 93.1293C285.646 94.1435 285.452 95.0298 285.064 95.7884C284.681 96.5469 284.137 97.1371 283.434 97.5589C282.731 97.9808 281.9 98.1918 280.941 98.1918ZM280.954 96.3381C281.474 96.3381 281.909 96.1953 282.258 95.9098C282.608 95.62 282.868 95.2322 283.038 94.7464C283.213 94.2607 283.3 93.7195 283.3 93.1229C283.3 92.522 283.213 91.9787 283.038 91.4929C282.868 91.0028 282.608 90.6129 282.258 90.3232C281.909 90.0334 281.474 89.8885 280.954 89.8885C280.422 89.8885 279.978 90.0334 279.625 90.3232C279.275 90.6129 279.013 91.0028 278.838 91.4929C278.668 91.9787 278.583 92.522 278.583 93.1229C278.583 93.7195 278.668 94.2607 278.838 94.7464C279.013 95.2322 279.275 95.62 279.625 95.9098C279.978 96.1953 280.422 96.3381 280.954 96.3381ZM295.172 90.777L293.062 91.0071C293.003 90.794 292.898 90.5938 292.749 90.4062C292.604 90.2188 292.408 90.0675 292.161 89.9524C291.914 89.8374 291.612 89.7798 291.254 89.7798C290.772 89.7798 290.367 89.8842 290.039 90.093C289.715 90.3018 289.555 90.5724 289.56 90.9048C289.555 91.1903 289.66 91.4226 289.873 91.6016C290.09 91.7805 290.448 91.9276 290.947 92.0426L292.621 92.4006C293.55 92.6009 294.241 92.9183 294.692 93.353C295.148 93.7876 295.379 94.3565 295.383 95.0597C295.379 95.6776 295.197 96.223 294.839 96.696C294.486 97.1648 293.994 97.5312 293.363 97.7955C292.732 98.0597 292.008 98.1918 291.19 98.1918C289.988 98.1918 289.021 97.9403 288.288 97.4375C287.555 96.9304 287.118 96.2251 286.977 95.3217L289.234 95.1044C289.336 95.5476 289.553 95.8821 289.886 96.108C290.218 96.3338 290.651 96.4467 291.183 96.4467C291.733 96.4467 292.174 96.3338 292.506 96.108C292.843 95.8821 293.011 95.603 293.011 95.2706C293.011 94.9893 292.903 94.7571 292.685 94.5739C292.472 94.3906 292.14 94.25 291.688 94.152L290.013 93.8004C289.072 93.6044 288.375 93.2741 287.923 92.8097C287.472 92.3409 287.248 91.7486 287.252 91.0327C287.248 90.4276 287.412 89.9034 287.744 89.4602C288.081 89.0128 288.548 88.6676 289.144 88.4247C289.745 88.1776 290.437 88.054 291.222 88.054C292.372 88.054 293.278 88.299 293.938 88.7891C294.603 89.2791 295.014 89.9418 295.172 90.777ZM175.619 115.182V116.972H169.815V115.182H175.619ZM171.266 125V114.255C171.266 113.594 171.402 113.045 171.675 112.606C171.952 112.167 172.323 111.839 172.787 111.621C173.252 111.404 173.767 111.295 174.334 111.295C174.734 111.295 175.09 111.327 175.401 111.391C175.712 111.455 175.943 111.513 176.092 111.564L175.632 113.354C175.534 113.324 175.41 113.294 175.261 113.264C175.112 113.23 174.945 113.213 174.762 113.213C174.332 113.213 174.027 113.317 173.848 113.526C173.673 113.731 173.586 114.025 173.586 114.408V125H171.266ZM177.233 125V115.182H179.547V125H177.233ZM178.396 113.788C178.03 113.788 177.714 113.667 177.45 113.424C177.186 113.177 177.054 112.881 177.054 112.536C177.054 112.186 177.186 111.89 177.45 111.647C177.714 111.4 178.03 111.276 178.396 111.276C178.767 111.276 179.082 111.4 179.342 111.647C179.606 111.89 179.739 112.186 179.739 112.536C179.739 112.881 179.606 113.177 179.342 113.424C179.082 113.667 178.767 113.788 178.396 113.788ZM184.042 119.247V125H181.728V115.182H183.94V116.85H184.055C184.281 116.3 184.641 115.864 185.135 115.54C185.634 115.216 186.25 115.054 186.982 115.054C187.66 115.054 188.25 115.199 188.753 115.489C189.26 115.778 189.652 116.198 189.929 116.748C190.21 117.298 190.349 117.964 190.345 118.749V125H188.031V119.107C188.031 118.45 187.86 117.937 187.519 117.566C187.183 117.195 186.716 117.01 186.12 117.01C185.715 117.01 185.355 117.099 185.039 117.278C184.728 117.453 184.483 117.707 184.304 118.039C184.13 118.371 184.042 118.774 184.042 119.247ZM195.324 125.198C194.702 125.198 194.142 125.087 193.643 124.866C193.149 124.64 192.757 124.308 192.467 123.869C192.182 123.43 192.039 122.888 192.039 122.245C192.039 121.691 192.141 121.233 192.346 120.871C192.55 120.509 192.829 120.219 193.183 120.001C193.537 119.784 193.935 119.62 194.378 119.509C194.826 119.394 195.288 119.311 195.765 119.26C196.341 119.2 196.807 119.147 197.165 119.1C197.523 119.049 197.783 118.972 197.945 118.87C198.111 118.763 198.194 118.599 198.194 118.378V118.339C198.194 117.858 198.052 117.485 197.766 117.221C197.481 116.957 197.069 116.825 196.532 116.825C195.966 116.825 195.516 116.948 195.184 117.195C194.856 117.442 194.634 117.734 194.519 118.071L192.358 117.764C192.529 117.168 192.81 116.669 193.202 116.268C193.594 115.864 194.074 115.561 194.64 115.361C195.207 115.156 195.834 115.054 196.52 115.054C196.993 115.054 197.463 115.109 197.932 115.22C198.401 115.331 198.829 115.514 199.217 115.77C199.605 116.021 199.916 116.364 200.15 116.799C200.389 117.234 200.508 117.777 200.508 118.429V125H198.284V123.651H198.207C198.066 123.924 197.868 124.18 197.613 124.418C197.361 124.653 197.044 124.842 196.66 124.987C196.281 125.128 195.836 125.198 195.324 125.198ZM195.925 123.498C196.39 123.498 196.792 123.406 197.133 123.223C197.474 123.036 197.736 122.788 197.919 122.482C198.107 122.175 198.201 121.84 198.201 121.478V120.321C198.128 120.381 198.005 120.436 197.83 120.487C197.659 120.538 197.468 120.583 197.255 120.621C197.042 120.66 196.831 120.694 196.622 120.724C196.413 120.754 196.232 120.779 196.079 120.8C195.733 120.847 195.424 120.924 195.152 121.031C194.879 121.137 194.664 121.286 194.506 121.478C194.348 121.665 194.27 121.908 194.27 122.207C194.27 122.633 194.425 122.955 194.736 123.172C195.047 123.389 195.444 123.498 195.925 123.498ZM204.951 119.247V125H202.637V115.182H204.849V116.85H204.964C205.189 116.3 205.55 115.864 206.044 115.54C206.542 115.216 207.158 115.054 207.891 115.054C208.569 115.054 209.159 115.199 209.662 115.489C210.169 115.778 210.561 116.198 210.838 116.748C211.119 117.298 211.258 117.964 211.253 118.749V125H208.939V119.107C208.939 118.45 208.769 117.937 208.428 117.566C208.091 117.195 207.625 117.01 207.028 117.01C206.623 117.01 206.263 117.099 205.948 117.278C205.637 117.453 205.392 117.707 205.213 118.039C205.038 118.371 204.951 118.774 204.951 119.247ZM217.69 125.192C216.71 125.192 215.869 124.977 215.165 124.546C214.467 124.116 213.928 123.521 213.548 122.763C213.173 122 212.986 121.122 212.986 120.129C212.986 119.132 213.178 118.252 213.561 117.489C213.945 116.722 214.486 116.126 215.185 115.7C215.888 115.269 216.719 115.054 217.678 115.054C218.474 115.054 219.18 115.201 219.793 115.495C220.411 115.785 220.903 116.196 221.27 116.729C221.636 117.257 221.845 117.875 221.896 118.582H219.685C219.595 118.109 219.382 117.715 219.045 117.4C218.713 117.08 218.268 116.92 217.71 116.92C217.237 116.92 216.821 117.048 216.463 117.304C216.105 117.555 215.826 117.918 215.626 118.391C215.43 118.864 215.332 119.43 215.332 120.091C215.332 120.76 215.43 121.335 215.626 121.817C215.822 122.294 216.097 122.663 216.45 122.923C216.808 123.178 217.228 123.306 217.71 123.306C218.05 123.306 218.355 123.242 218.624 123.114C218.896 122.982 219.124 122.793 219.308 122.545C219.491 122.298 219.616 121.998 219.685 121.644H221.896C221.841 122.339 221.636 122.955 221.283 123.491C220.929 124.024 220.447 124.442 219.838 124.744C219.229 125.043 218.513 125.192 217.69 125.192ZM227.945 125.192C226.961 125.192 226.11 124.987 225.395 124.578C224.683 124.165 224.135 123.581 223.752 122.827C223.368 122.068 223.176 121.175 223.176 120.148C223.176 119.138 223.368 118.252 223.752 117.489C224.14 116.722 224.681 116.126 225.375 115.7C226.07 115.269 226.886 115.054 227.823 115.054C228.429 115.054 229 115.152 229.537 115.348C230.078 115.54 230.555 115.838 230.968 116.243C231.386 116.648 231.714 117.163 231.953 117.79C232.191 118.412 232.311 119.153 232.311 120.014V120.724H224.263V119.164H230.093C230.088 118.721 229.993 118.327 229.805 117.982C229.618 117.632 229.355 117.357 229.019 117.157C228.686 116.957 228.299 116.857 227.855 116.857C227.382 116.857 226.967 116.972 226.609 117.202C226.251 117.428 225.972 117.726 225.772 118.097C225.576 118.463 225.475 118.866 225.471 119.305V120.666C225.471 121.237 225.576 121.727 225.784 122.136C225.993 122.541 226.285 122.852 226.66 123.07C227.035 123.283 227.474 123.389 227.977 123.389C228.314 123.389 228.618 123.342 228.891 123.249C229.164 123.151 229.4 123.008 229.6 122.82C229.801 122.633 229.952 122.401 230.054 122.124L232.215 122.366C232.078 122.937 231.819 123.436 231.435 123.862C231.056 124.284 230.57 124.612 229.978 124.847C229.385 125.077 228.708 125.192 227.945 125.192ZM234.07 125V115.182H236.384V125H234.07ZM235.234 113.788C234.867 113.788 234.552 113.667 234.288 113.424C234.023 113.177 233.891 112.881 233.891 112.536C233.891 112.186 234.023 111.89 234.288 111.647C234.552 111.4 234.867 111.276 235.234 111.276C235.604 111.276 235.92 111.4 236.18 111.647C236.444 111.89 236.576 112.186 236.576 112.536C236.576 112.881 236.444 113.177 236.18 113.424C235.92 113.667 235.604 113.788 235.234 113.788ZM238.566 125V115.182H240.809V116.818H240.912C241.09 116.251 241.397 115.815 241.832 115.508C242.271 115.197 242.772 115.041 243.334 115.041C243.462 115.041 243.605 115.048 243.762 115.06C243.924 115.069 244.059 115.084 244.165 115.105V117.234C244.067 117.2 243.912 117.17 243.698 117.144C243.49 117.114 243.287 117.099 243.091 117.099C242.669 117.099 242.29 117.191 241.953 117.374C241.621 117.553 241.359 117.803 241.167 118.122C240.975 118.442 240.88 118.81 240.88 119.228V125H238.566ZM249.383 125.192C248.424 125.192 247.593 124.981 246.89 124.559C246.187 124.137 245.641 123.547 245.253 122.788C244.87 122.03 244.678 121.143 244.678 120.129C244.678 119.115 244.87 118.227 245.253 117.464C245.641 116.701 246.187 116.109 246.89 115.687C247.593 115.265 248.424 115.054 249.383 115.054C250.342 115.054 251.172 115.265 251.876 115.687C252.579 116.109 253.122 116.701 253.506 117.464C253.893 118.227 254.087 119.115 254.087 120.129C254.087 121.143 253.893 122.03 253.506 122.788C253.122 123.547 252.579 124.137 251.876 124.559C251.172 124.981 250.342 125.192 249.383 125.192ZM249.396 123.338C249.915 123.338 250.35 123.195 250.699 122.91C251.049 122.62 251.309 122.232 251.479 121.746C251.654 121.261 251.741 120.719 251.741 120.123C251.741 119.522 251.654 118.979 251.479 118.493C251.309 118.003 251.049 117.613 250.699 117.323C250.35 117.033 249.915 116.888 249.396 116.888C248.863 116.888 248.42 117.033 248.066 117.323C247.717 117.613 247.454 118.003 247.28 118.493C247.109 118.979 247.024 119.522 247.024 120.123C247.024 120.719 247.109 121.261 247.28 121.746C247.454 122.232 247.717 122.62 248.066 122.91C248.42 123.195 248.863 123.338 249.396 123.338ZM263.613 117.777L261.504 118.007C261.444 117.794 261.34 117.594 261.191 117.406C261.046 117.219 260.85 117.067 260.603 116.952C260.355 116.837 260.053 116.78 259.695 116.78C259.213 116.78 258.808 116.884 258.48 117.093C258.156 117.302 257.997 117.572 258.001 117.905C257.997 118.19 258.101 118.423 258.314 118.602C258.531 118.781 258.889 118.928 259.388 119.043L261.063 119.401C261.992 119.601 262.682 119.918 263.134 120.353C263.59 120.788 263.82 121.357 263.824 122.06C263.82 122.678 263.639 123.223 263.281 123.696C262.927 124.165 262.435 124.531 261.804 124.795C261.174 125.06 260.449 125.192 259.631 125.192C258.429 125.192 257.462 124.94 256.729 124.438C255.996 123.93 255.559 123.225 255.419 122.322L257.675 122.104C257.777 122.548 257.995 122.882 258.327 123.108C258.659 123.334 259.092 123.447 259.625 123.447C260.174 123.447 260.615 123.334 260.948 123.108C261.284 122.882 261.453 122.603 261.453 122.271C261.453 121.989 261.344 121.757 261.127 121.574C260.914 121.391 260.581 121.25 260.129 121.152L258.455 120.8C257.513 120.604 256.816 120.274 256.365 119.81C255.913 119.341 255.689 118.749 255.693 118.033C255.689 117.428 255.853 116.903 256.186 116.46C256.522 116.013 256.989 115.668 257.585 115.425C258.186 115.178 258.879 115.054 259.663 115.054C260.813 115.054 261.719 115.299 262.379 115.789C263.044 116.279 263.455 116.942 263.613 117.777Z" fill="black"/>
</svg>
