<svg width="61" height="61" viewBox="0 0 61 61" fill="none" xmlns="http://www.w3.org/2000/svg">
<g clip-path="url(#clip0_419_299)">
<path d="M35.2277 -0.000147039C35.2038 0.00938116 35.1752 0.0236796 35.1514 0.037978L0.991409 6.51923C0.410006 6.62883 -0.00936908 7.14353 0.000159121 7.73923V53.2605C-0.00936908 53.8562 0.410006 54.3709 0.991409 54.4805L35.1514 60.9617C35.5041 61.0285 35.871 60.9379 36.1522 60.7092C36.4286 60.4804 36.5954 60.142 36.6002 59.7799V53.6799H57.3402C58.6745 53.6799 59.7802 52.5742 59.7802 51.2399V9.75985C59.7802 8.42548 58.6745 7.31985 57.3402 7.31985H36.6002V1.21985C36.6049 0.8672 36.4524 0.533603 36.1903 0.300083C35.9282 0.0665626 35.5755 -0.0430422 35.2277 -0.000147039ZM34.1602 2.6686V7.96798C33.9981 8.30633 33.9981 8.69712 34.1602 9.03548V52.2311C34.1268 52.3931 34.1268 52.5647 34.1602 52.7267V58.3311L2.44016 52.2692V8.73048L34.1602 2.6686ZM36.6002 9.75985H57.3402V51.2399H36.6002V45.1399H41.4802V42.6999H36.6002V35.3799H41.4802V32.9399H36.6002V26.8399H41.4802V24.3999H36.6002V18.2999H41.4802V15.8599H36.6002V9.75985ZM43.9202 15.8599V18.2999H53.6802V15.8599H43.9202ZM8.15891 19.1386L14.8308 30.538L7.54891 41.9374H13.6489L17.6139 34.5792C17.8903 33.8692 18.0714 33.3259 18.1477 32.978H18.1858C18.3431 33.7214 18.4956 34.2266 18.6433 34.503L22.6083 41.9374H28.6702L21.6552 30.4236L28.4795 19.1386H22.7608L19.1389 25.8867C18.791 26.7684 18.5432 27.4642 18.4145 27.9074H18.3764C18.1763 27.1639 17.9475 26.5015 17.6902 25.963L14.4114 19.1386H8.15891ZM43.9202 24.3999V26.8399H53.6802V24.3999H43.9202ZM43.9202 32.9399V35.3799H53.6802V32.9399H43.9202ZM43.9202 42.6999V45.1399H53.6802V42.6999H43.9202Z" fill="#FF1D92"/>
</g>
<defs>
<clipPath id="clip0_419_299">
<rect width="61" height="61" fill="white"/>
</clipPath>
</defs>
</svg>
