<svg width="38" height="51" viewBox="0 0 38 51" fill="none" xmlns="http://www.w3.org/2000/svg">
<path d="M36.5 11.5L26 1V9.5C26 10.6046 26.8954 11.5 28 11.5H36.5Z" fill="#FF1D92"/>
<path d="M26 1H3C1.89543 1 1 1.89543 1 3V47.5C1 48.6046 1.89543 49.5 3 49.5H34.5C35.6046 49.5 36.5 48.6046 36.5 47.5V11.5M26 1L36.5 11.5M26 1V9.5C26 10.6046 26.8954 11.5 28 11.5H36.5" stroke="#FF1D92" stroke-width="2"/>
<mask id="path-3-inside-1_419_295" fill="white">
<path d="M2 20H35.5V21V37V38H2V37H35.5V21H2V20Z"/>
</mask>
<path d="M35 21V37H36V21H35ZM2 20V19H1V20H2ZM35.5 20H36.5V19H35.5V20ZM35.5 38V39H36.5V38H35.5ZM2 38H1V39H2V38ZM2 21H1V22H2V21ZM35.5 21V22H36.5V21H35.5ZM35.5 37H36.5V36H35.5V37ZM2 37V36H1V37H2ZM2 21H35.5V19H2V21ZM35.5 37H2V39H35.5V37ZM3 21V20H1V21H3ZM34.5 20V21H36.5V20H34.5ZM2 22H35.5V20H2V22ZM34.5 37V38H36.5V37H34.5ZM3 38V37H1V38H3ZM35.5 36H2V38H35.5V36Z" fill="#FF1D92" mask="url(#path-3-inside-1_419_295)"/>
<path d="M5.07599 34V23.0909H9.1669C10.005 23.0909 10.7081 23.2472 11.2763 23.5597C11.848 23.8722 12.2795 24.3018 12.5707 24.8487C12.8654 25.392 13.0128 26.0099 13.0128 26.7024C13.0128 27.402 12.8654 28.0234 12.5707 28.5668C12.2759 29.1101 11.8409 29.538 11.2656 29.8505C10.6903 30.1594 9.98189 30.3139 9.14027 30.3139H6.42898V28.6893H8.87393C9.36399 28.6893 9.76527 28.604 10.0778 28.4336C10.3903 28.2631 10.6211 28.0288 10.7702 27.7305C10.9229 27.4322 10.9993 27.0895 10.9993 26.7024C10.9993 26.3153 10.9229 25.9744 10.7702 25.6797C10.6211 25.3849 10.3885 25.1559 10.0724 24.9925C9.75994 24.8256 9.35689 24.7422 8.86328 24.7422H7.0522V34H5.07599ZM18.426 34H14.7293V23.0909H18.5006C19.5837 23.0909 20.5141 23.3093 21.2918 23.7461C22.0731 24.1793 22.6732 24.8026 23.0922 25.6158C23.5113 26.429 23.7208 27.402 23.7208 28.5348C23.7208 29.6712 23.5095 30.6477 23.0869 31.4645C22.6679 32.2812 22.0624 32.908 21.2705 33.3448C20.4822 33.7816 19.534 34 18.426 34ZM16.7055 32.2901H18.3302C19.0901 32.2901 19.724 32.1516 20.2318 31.8746C20.7396 31.5941 21.1214 31.1768 21.377 30.6229C21.6327 30.0653 21.7606 29.3693 21.7606 28.5348C21.7606 27.7003 21.6327 27.0078 21.377 26.4574C21.1214 25.9034 20.7432 25.4897 20.2425 25.2163C19.7453 24.9393 19.1274 24.8008 18.3888 24.8008H16.7055V32.2901ZM25.5985 34V23.0909H32.5871V24.7475H27.5747V27.7092H32.1077V29.3658H27.5747V34H25.5985Z" fill="#FF1D92"/>
</svg>
