<svg width="38" height="51" viewBox="0 0 38 51" fill="none" xmlns="http://www.w3.org/2000/svg">
<path d="M36.5 11.5L26 1V9.5C26 10.6046 26.8954 11.5 28 11.5H36.5Z" fill="#FF1D92"/>
<path d="M26 1H3C1.89543 1 1 1.89543 1 3V47.5C1 48.6046 1.89543 49.5 3 49.5H34.5C35.6046 49.5 36.5 48.6046 36.5 47.5V11.5M26 1L36.5 11.5M26 1V9.5C26 10.6046 26.8954 11.5 28 11.5H36.5" stroke="#FF1D92" stroke-width="2"/>
<mask id="path-3-inside-1_419_287" fill="white">
<path d="M2 20H35.5V21V37V38H2V37H35.5V21H2V20Z"/>
</mask>
<path d="M35 21V37H36V21H35ZM2 20V19H1V20H2ZM35.5 20H36.5V19H35.5V20ZM35.5 38V39H36.5V38H35.5ZM2 38H1V39H2V38ZM2 21H1V22H2V21ZM35.5 21V22H36.5V21H35.5ZM35.5 37H36.5V36H35.5V37ZM2 37V36H1V37H2ZM2 21H35.5V19H2V21ZM35.5 37H2V39H35.5V37ZM3 21V20H1V21H3ZM34.5 20V21H36.5V20H34.5ZM2 22H35.5V20H2V22ZM34.5 37V38H36.5V37H34.5ZM3 38V37H1V38H3ZM35.5 36H2V38H35.5V36Z" fill="#FF1D92" mask="url(#path-3-inside-1_419_287)"/>
<path d="M4.09659 24.7475V23.0909H12.8004V24.7475H9.42862V34H7.46839V24.7475H4.09659ZM16.1296 23.0909L18.532 27.0859H18.6172L21.0302 23.0909H23.2834L19.9222 28.5455L23.3366 34H21.0462L18.6172 30.0316H18.532L16.103 34H13.8232L17.2695 28.5455L13.8658 23.0909H16.1296ZM24.3554 24.7475V23.0909H33.0592V24.7475H29.6874V34H27.7272V24.7475H24.3554Z" fill="#FF1D92"/>
</svg>
