<svg width="56" height="56" viewBox="0 0 56 56" fill="none" xmlns="http://www.w3.org/2000/svg">
<g clip-path="url(#clip0_419_309)">
<path d="M32.3401 8.11373e-05C32.3183 0.00882834 32.292 0.0219547 32.2701 0.0350811L0.910146 5.98508C0.376399 6.0857 -0.00860112 6.55821 0.000146079 7.10508V48.8951C-0.00860112 49.442 0.376399 49.9145 0.910146 50.0151L32.2701 55.9651C32.5939 56.0263 32.9308 55.9432 33.1889 55.7332C33.4426 55.5232 33.5958 55.2126 33.6001 54.8801V49.2801H52.6401C53.8651 49.2801 54.8801 48.2651 54.8801 47.0401V8.96008C54.8801 7.73508 53.8651 6.72008 52.6401 6.72008H33.6001V1.12008C33.6045 0.796334 33.4645 0.490081 33.2239 0.275702C32.9833 0.0613227 32.6595 -0.0392981 32.3401 8.11373e-05ZM31.3601 2.45008V7.49008C31.2945 7.70883 31.2945 7.93633 31.3601 8.15508V47.9501C31.3295 48.0988 31.3295 48.2563 31.3601 48.4051V53.5501L2.24015 47.9851V8.01508L31.3601 2.45008ZM33.6001 8.96008H52.6401V47.0401H33.6001V41.4401H49.2801V39.2001H33.6001V32.4801H49.2801V30.2401H33.6001V24.6401H49.2801V22.4001H33.6001V16.8001H49.2801V14.5601H33.6001V8.96008ZM5.18015 17.5351L9.45015 38.4651H13.6501L16.4151 25.0601C16.542 24.4432 16.6601 23.6338 16.7301 22.6801H16.7651C16.7958 23.5463 16.8658 24.3601 17.0101 25.0601L19.7051 38.4651H23.7651L28.0701 17.5351H24.3601L22.1201 31.5001C21.9889 32.2876 21.9058 33.0751 21.8751 33.8451H21.8401C21.7658 32.8607 21.6914 32.1213 21.5951 31.6051L18.9351 17.5351H15.0151L12.0751 31.4301C11.887 32.3182 11.7558 33.132 11.7251 33.8801H11.6551C11.6114 32.8782 11.5458 32.0601 11.4451 31.4651L9.17015 17.5351H5.18015Z" fill="#FF1D92"/>
</g>
<defs>
<clipPath id="clip0_419_309">
<rect width="56" height="56" fill="white"/>
</clipPath>
</defs>
</svg>
