<svg width="260" height="162" viewBox="0 0 260 162" fill="none" xmlns="http://www.w3.org/2000/svg">
<rect x="13.5" y="34.5" width="65" height="95" fill="white" stroke="#FF1D92"/>
<path d="M4.99059 15.2727V24H3.14542V17.0241H3.09428L1.0957 18.277V16.6406L3.25621 15.2727H4.99059ZM10.4867 24.1918C9.75373 24.1889 9.12305 24.0085 8.59464 23.6506C8.06907 23.2926 7.66424 22.7741 7.38015 22.0952C7.0989 21.4162 6.95969 20.5994 6.96254 19.6449C6.96254 18.6932 7.10316 17.8821 7.38441 17.2116C7.6685 16.5412 8.07333 16.0312 8.5989 15.6818C9.12731 15.3295 9.75657 15.1534 10.4867 15.1534C11.2168 15.1534 11.8446 15.3295 12.3702 15.6818C12.8986 16.0341 13.3049 16.5455 13.589 17.2159C13.873 17.8835 14.0137 18.6932 14.0108 19.6449C14.0108 20.6023 13.8688 21.4205 13.5847 22.0994C13.3034 22.7784 12.9 23.2969 12.3745 23.6548C11.8489 24.0128 11.2196 24.1918 10.4867 24.1918ZM10.4867 22.6619C10.9867 22.6619 11.3858 22.4105 11.6841 21.9077C11.9824 21.4048 12.1301 20.6506 12.1273 19.6449C12.1273 18.983 12.0591 18.4318 11.9228 17.9915C11.7892 17.5511 11.5989 17.2202 11.3517 16.9986C11.1074 16.777 10.8191 16.6662 10.4867 16.6662C9.98952 16.6662 9.5918 16.9148 9.2935 17.4119C8.99521 17.9091 8.84464 18.6534 8.8418 19.6449C8.8418 20.3153 8.90856 20.875 9.04208 21.3239C9.17844 21.7699 9.37021 22.1051 9.61737 22.3295C9.86452 22.5511 10.1543 22.6619 10.4867 22.6619ZM16.8606 17.4545L18.0623 19.7429L19.2939 17.4545H21.1561L19.2598 20.7273L21.2072 24H19.3535L18.0623 21.7372L16.7924 24H14.9174L16.8606 20.7273L14.9856 17.4545H16.8606ZM25.0115 24V17.4545H26.7417V18.6094H26.8184C26.9547 18.2259 27.182 17.9233 27.5002 17.7017C27.8184 17.4801 28.199 17.3693 28.6422 17.3693C29.0911 17.3693 29.4732 17.4815 29.7885 17.706C30.1039 17.9276 30.3141 18.2287 30.4192 18.6094H30.4874C30.6209 18.2344 30.8624 17.9347 31.2118 17.7102C31.5641 17.483 31.9803 17.3693 32.4604 17.3693C33.0712 17.3693 33.5669 17.5639 33.9476 17.9531C34.3311 18.3395 34.5229 18.8878 34.5229 19.598V24H32.7118V19.956C32.7118 19.5923 32.6152 19.3196 32.4221 19.1378C32.2289 18.956 31.9874 18.8651 31.6976 18.8651C31.3681 18.8651 31.111 18.9702 30.9263 19.1804C30.7417 19.3878 30.6493 19.6619 30.6493 20.0028V24H28.8894V19.9176C28.8894 19.5966 28.7971 19.3409 28.6124 19.1506C28.4306 18.9602 28.1905 18.8651 27.8922 18.8651C27.6905 18.8651 27.5087 18.9162 27.3468 19.0185C27.1877 19.1179 27.0613 19.2585 26.9675 19.4403C26.8738 19.6193 26.8269 19.8295 26.8269 20.071V24H25.0115ZM37.8233 24.1236C37.4057 24.1236 37.0336 24.0511 36.7069 23.9062C36.3801 23.7585 36.1216 23.5412 35.9313 23.2543C35.7438 22.9645 35.65 22.6037 35.65 22.1719C35.65 21.8082 35.7168 21.5028 35.8503 21.2557C35.9838 21.0085 36.1657 20.8097 36.3958 20.6591C36.6259 20.5085 36.8873 20.3949 37.1799 20.3182C37.4753 20.2415 37.785 20.1875 38.1088 20.1562C38.4895 20.1165 38.7963 20.0795 39.0293 20.0455C39.2623 20.0085 39.4313 19.9545 39.5364 19.8835C39.6415 19.8125 39.6941 19.7074 39.6941 19.5682V19.5426C39.6941 19.2727 39.6088 19.0639 39.4384 18.9162C39.2708 18.7685 39.0321 18.6946 38.7225 18.6946C38.3958 18.6946 38.1358 18.767 37.9426 18.9119C37.7495 19.054 37.6216 19.233 37.5591 19.4489L35.8801 19.3125C35.9654 18.9148 36.133 18.571 36.383 18.2812C36.633 17.9886 36.9554 17.7642 37.3503 17.608C37.748 17.4489 38.2083 17.3693 38.731 17.3693C39.0946 17.3693 39.4426 17.4119 39.775 17.4972C40.1103 17.5824 40.4071 17.7145 40.6657 17.8935C40.927 18.0724 41.133 18.3026 41.2836 18.5838C41.4341 18.8622 41.5094 19.196 41.5094 19.5852V24H39.7878V23.0923H39.7367C39.6316 23.2969 39.4909 23.4773 39.3148 23.6335C39.1387 23.7869 38.927 23.9077 38.6799 23.9957C38.4327 24.081 38.1472 24.1236 37.8233 24.1236ZM38.3432 22.8707C38.6103 22.8707 38.8461 22.8182 39.0506 22.7131C39.2551 22.6051 39.4157 22.4602 39.5321 22.2784C39.6486 22.0966 39.7069 21.8906 39.7069 21.6605V20.9659C39.65 21.0028 39.5719 21.0369 39.4725 21.0682C39.3759 21.0966 39.2665 21.1236 39.1444 21.1491C39.0222 21.1719 38.9 21.1932 38.7779 21.2131C38.6557 21.2301 38.5449 21.2457 38.4455 21.2599C38.2324 21.2912 38.0463 21.3409 37.8873 21.4091C37.7282 21.4773 37.6046 21.5696 37.5165 21.6861C37.4284 21.7997 37.3844 21.9418 37.3844 22.1122C37.3844 22.3594 37.4739 22.5483 37.6529 22.679C37.8347 22.8068 38.0648 22.8707 38.3432 22.8707ZM42.9178 24V17.4545H44.7331V24H42.9178ZM43.8297 16.6108C43.5598 16.6108 43.3283 16.5213 43.1351 16.3423C42.9448 16.1605 42.8496 15.9432 42.8496 15.6903C42.8496 15.4403 42.9448 15.2259 43.1351 15.0469C43.3283 14.8651 43.5598 14.7741 43.8297 14.7741C44.0996 14.7741 44.3297 14.8651 44.5201 15.0469C44.7132 15.2259 44.8098 15.4403 44.8098 15.6903C44.8098 15.9432 44.7132 16.1605 44.5201 16.3423C44.3297 16.5213 44.0996 16.6108 43.8297 16.6108ZM51.6333 19.321L49.9714 19.4233C49.943 19.2812 49.8819 19.1534 49.7882 19.0398C49.6944 18.9233 49.5708 18.831 49.4174 18.7628C49.2669 18.6918 49.0865 18.6562 48.8762 18.6562C48.595 18.6562 48.3578 18.7159 48.1646 18.8352C47.9714 18.9517 47.8748 19.108 47.8748 19.304C47.8748 19.4602 47.9373 19.5923 48.0623 19.7003C48.1873 19.8082 48.4018 19.8949 48.7058 19.9602L49.8904 20.1989C50.5268 20.3295 51.0012 20.5398 51.3137 20.8295C51.6262 21.1193 51.7825 21.5 51.7825 21.9716C51.7825 22.4006 51.6561 22.777 51.4032 23.1009C51.1532 23.4247 50.8095 23.6776 50.372 23.8594C49.9373 24.0384 49.4359 24.1278 48.8677 24.1278C48.0012 24.1278 47.3109 23.9474 46.7967 23.5866C46.2853 23.223 45.9856 22.7287 45.8975 22.1037L47.6831 22.0099C47.737 22.2741 47.8677 22.4759 48.0751 22.6151C48.2825 22.7514 48.5481 22.8196 48.872 22.8196C49.1902 22.8196 49.4458 22.7585 49.639 22.6364C49.835 22.5114 49.9345 22.3509 49.9373 22.1548C49.9345 21.9901 49.8649 21.8551 49.7285 21.75C49.5922 21.642 49.3819 21.5597 49.0978 21.5028L47.9643 21.277C47.3251 21.1491 46.8493 20.9276 46.5368 20.6122C46.2271 20.2969 46.0723 19.8949 46.0723 19.4062C46.0723 18.9858 46.1859 18.6236 46.4132 18.3196C46.6433 18.0156 46.9657 17.7812 47.3805 17.6165C47.7981 17.4517 48.2868 17.3693 48.8464 17.3693C49.6731 17.3693 50.3237 17.544 50.7981 17.8935C51.2754 18.2429 51.5538 18.7187 51.6333 19.321ZM55.7029 24V17.4545H57.4629V18.5966H57.5311C57.6504 18.1903 57.8507 17.8835 58.1319 17.6761C58.4132 17.4659 58.737 17.3608 59.1035 17.3608C59.1944 17.3608 59.2924 17.3665 59.3975 17.3778C59.5027 17.3892 59.595 17.4048 59.6745 17.4247V19.0355C59.5893 19.0099 59.4714 18.9872 59.3208 18.9673C59.1703 18.9474 59.0325 18.9375 58.9075 18.9375C58.6404 18.9375 58.4018 18.9957 58.1916 19.1122C57.9842 19.2259 57.8194 19.3849 57.6973 19.5895C57.5779 19.794 57.5183 20.0298 57.5183 20.2969V24H55.7029ZM62.2921 24.1236C61.8745 24.1236 61.5023 24.0511 61.1756 23.9062C60.8489 23.7585 60.5904 23.5412 60.4 23.2543C60.2125 22.9645 60.1188 22.6037 60.1188 22.1719C60.1188 21.8082 60.1855 21.5028 60.3191 21.2557C60.4526 21.0085 60.6344 20.8097 60.8645 20.6591C61.0946 20.5085 61.356 20.3949 61.6486 20.3182C61.9441 20.2415 62.2537 20.1875 62.5776 20.1562C62.9583 20.1165 63.2651 20.0795 63.498 20.0455C63.731 20.0085 63.9 19.9545 64.0051 19.8835C64.1103 19.8125 64.1628 19.7074 64.1628 19.5682V19.5426C64.1628 19.2727 64.0776 19.0639 63.9071 18.9162C63.7395 18.7685 63.5009 18.6946 63.1912 18.6946C62.8645 18.6946 62.6046 18.767 62.4114 18.9119C62.2182 19.054 62.0904 19.233 62.0279 19.4489L60.3489 19.3125C60.4341 18.9148 60.6017 18.571 60.8517 18.2812C61.1017 17.9886 61.4242 17.7642 61.8191 17.608C62.2168 17.4489 62.677 17.3693 63.1998 17.3693C63.5634 17.3693 63.9114 17.4119 64.2438 17.4972C64.579 17.5824 64.8759 17.7145 65.1344 17.8935C65.3958 18.0724 65.6017 18.3026 65.7523 18.5838C65.9029 18.8622 65.9782 19.196 65.9782 19.5852V24H64.2566V23.0923H64.2054C64.1003 23.2969 63.9597 23.4773 63.7836 23.6335C63.6074 23.7869 63.3958 23.9077 63.1486 23.9957C62.9015 24.081 62.6159 24.1236 62.2921 24.1236ZM62.812 22.8707C63.079 22.8707 63.3148 22.8182 63.5194 22.7131C63.7239 22.6051 63.8844 22.4602 64.0009 22.2784C64.1174 22.0966 64.1756 21.8906 64.1756 21.6605V20.9659C64.1188 21.0028 64.0407 21.0369 63.9412 21.0682C63.8446 21.0966 63.7353 21.1236 63.6131 21.1491C63.4909 21.1719 63.3688 21.1932 63.2466 21.2131C63.1245 21.2301 63.0137 21.2457 62.9142 21.2599C62.7012 21.2912 62.5151 21.3409 62.356 21.4091C62.1969 21.4773 62.0733 21.5696 61.9853 21.6861C61.8972 21.7997 61.8532 21.9418 61.8532 22.1122C61.8532 22.3594 61.9426 22.5483 62.1216 22.679C62.3034 22.8068 62.5336 22.8707 62.812 22.8707ZM67.3865 26.4545V17.4545H69.1763V18.554H69.2573C69.3368 18.3778 69.4519 18.1989 69.6025 18.017C69.7559 17.8324 69.9547 17.679 70.199 17.5568C70.4462 17.4318 70.753 17.3693 71.1195 17.3693C71.5968 17.3693 72.0371 17.4943 72.4405 17.7443C72.8439 17.9915 73.1664 18.3651 73.4078 18.8651C73.6493 19.3622 73.7701 19.9858 73.7701 20.7358C73.7701 21.4659 73.6522 22.0824 73.4164 22.5852C73.1834 23.0852 72.8652 23.4645 72.4618 23.723C72.0613 23.9787 71.6124 24.1065 71.1152 24.1065C70.763 24.1065 70.4632 24.0483 70.2161 23.9318C69.9718 23.8153 69.7715 23.669 69.6152 23.4929C69.459 23.3139 69.3397 23.1335 69.2573 22.9517H69.2019V26.4545H67.3865ZM69.1635 20.7273C69.1635 21.1165 69.2175 21.456 69.3255 21.7457C69.4334 22.0355 69.5897 22.2614 69.7942 22.4233C69.9988 22.5824 70.2473 22.6619 70.54 22.6619C70.8354 22.6619 71.0854 22.581 71.29 22.419C71.4945 22.2543 71.6493 22.027 71.7544 21.7372C71.8624 21.4446 71.9164 21.108 71.9164 20.7273C71.9164 20.3494 71.8638 20.017 71.7587 19.7301C71.6536 19.4432 71.4988 19.2187 71.2942 19.0568C71.0897 18.8949 70.8382 18.8139 70.54 18.8139C70.2445 18.8139 69.9945 18.892 69.79 19.0483C69.5882 19.2045 69.4334 19.4261 69.3255 19.7131C69.2175 20 69.1635 20.3381 69.1635 20.7273ZM74.9803 24V17.4545H76.7956V24H74.9803ZM75.8922 16.6108C75.6223 16.6108 75.3908 16.5213 75.1976 16.3423C75.0073 16.1605 74.9121 15.9432 74.9121 15.6903C74.9121 15.4403 75.0073 15.2259 75.1976 15.0469C75.3908 14.8651 75.6223 14.7741 75.8922 14.7741C76.1621 14.7741 76.3922 14.8651 76.5826 15.0469C76.7757 15.2259 76.8723 15.4403 76.8723 15.6903C76.8723 15.9432 76.7757 16.1605 76.5826 16.3423C76.3922 16.5213 76.1621 16.6108 75.8922 16.6108ZM80.6618 24.1065C80.1646 24.1065 79.7143 23.9787 79.3109 23.723C78.9103 23.4645 78.5922 23.0852 78.3564 22.5852C78.1234 22.0824 78.0069 21.4659 78.0069 20.7358C78.0069 19.9858 78.1277 19.3622 78.3691 18.8651C78.6106 18.3651 78.9316 17.9915 79.3322 17.7443C79.7356 17.4943 80.1774 17.3693 80.6575 17.3693C81.024 17.3693 81.3294 17.4318 81.5737 17.5568C81.8208 17.679 82.0197 17.8324 82.1703 18.017C82.3237 18.1989 82.4402 18.3778 82.5197 18.554H82.5751V15.2727H84.3862V24H82.5964V22.9517H82.5197C82.4345 23.1335 82.3137 23.3139 82.1575 23.4929C82.0041 23.669 81.8038 23.8153 81.5566 23.9318C81.3123 24.0483 81.014 24.1065 80.6618 24.1065ZM81.237 22.6619C81.5297 22.6619 81.7768 22.5824 81.9785 22.4233C82.1831 22.2614 82.3393 22.0355 82.4473 21.7457C82.5581 21.456 82.6135 21.1165 82.6135 20.7273C82.6135 20.3381 82.5595 20 82.4515 19.7131C82.3436 19.4261 82.1873 19.2045 81.9828 19.0483C81.7782 18.892 81.5297 18.8139 81.237 18.8139C80.9387 18.8139 80.6873 18.8949 80.4828 19.0568C80.2782 19.2187 80.1234 19.4432 80.0183 19.7301C79.9132 20.017 79.8606 20.3494 79.8606 20.7273C79.8606 21.108 79.9132 21.4446 80.0183 21.7372C80.1262 22.027 80.2811 22.2543 80.4828 22.419C80.6873 22.581 80.9387 22.6619 81.237 22.6619ZM88.8361 24.1278C88.1742 24.1278 87.6017 23.9872 87.1188 23.706C86.6387 23.4219 86.2679 23.027 86.0066 22.5213C85.7452 22.0128 85.6145 21.4233 85.6145 20.7528C85.6145 20.0767 85.7452 19.4858 86.0066 18.9801C86.2679 18.4716 86.6387 18.0767 87.1188 17.7955C87.6017 17.5114 88.1742 17.3693 88.8361 17.3693C89.498 17.3693 90.0691 17.5114 90.5492 17.7955C91.0321 18.0767 91.4043 18.4716 91.6657 18.9801C91.927 19.4858 92.0577 20.0767 92.0577 20.7528C92.0577 21.4233 91.927 22.0128 91.6657 22.5213C91.4043 23.027 91.0321 23.4219 90.5492 23.706C90.0691 23.9872 89.498 24.1278 88.8361 24.1278ZM88.8446 22.7216C89.1458 22.7216 89.3972 22.6364 89.5989 22.4659C89.8006 22.2926 89.9526 22.0568 90.0549 21.7585C90.16 21.4602 90.2125 21.1207 90.2125 20.7401C90.2125 20.3594 90.16 20.0199 90.0549 19.7216C89.9526 19.4233 89.8006 19.1875 89.5989 19.0142C89.3972 18.8409 89.1458 18.7543 88.8446 18.7543C88.5407 18.7543 88.285 18.8409 88.0776 19.0142C87.873 19.1875 87.7182 19.4233 87.6131 19.7216C87.5108 20.0199 87.4597 20.3594 87.4597 20.7401C87.4597 21.1207 87.5108 21.4602 87.6131 21.7585C87.7182 22.0568 87.873 22.2926 88.0776 22.4659C88.285 22.6364 88.5407 22.7216 88.8446 22.7216Z" fill="black"/>
<rect x="99.5" y="48.5" width="65" height="81" fill="white" stroke="#FF1D92"/>
<rect x="185.5" y="24.5" width="65" height="105" fill="white" stroke="#FF1D92"/>
<path d="M27.2658 137.455V138.818H23.226V137.455H27.2658ZM24.1507 144V136.982C24.1507 136.507 24.2431 136.114 24.4277 135.801C24.6152 135.489 24.8709 135.254 25.1948 135.098C25.5186 134.942 25.8865 134.864 26.2985 134.864C26.5769 134.864 26.8311 134.885 27.0613 134.928C27.2942 134.97 27.4675 135.009 27.5811 135.043L27.2573 136.406C27.1863 136.384 27.0982 136.362 26.9931 136.342C26.8908 136.322 26.7857 136.312 26.6777 136.312C26.4107 136.312 26.2246 136.375 26.1195 136.5C26.0144 136.622 25.9618 136.794 25.9618 137.016V144H24.1507ZM30.1902 135.273V144H28.3748V135.273H30.1902ZM35.8418 141.213V137.455H37.6571V144H35.9142V142.811H35.8461C35.6983 143.195 35.4526 143.503 35.1088 143.736C34.7679 143.969 34.3517 144.085 33.8603 144.085C33.4228 144.085 33.0378 143.986 32.7054 143.787C32.373 143.588 32.1131 143.305 31.9256 142.939C31.7409 142.572 31.6472 142.134 31.6444 141.622V137.455H33.4597V141.298C33.4625 141.685 33.5662 141.99 33.7708 142.214C33.9753 142.439 34.2495 142.551 34.5932 142.551C34.812 142.551 35.0165 142.501 35.2069 142.402C35.3972 142.3 35.5506 142.149 35.6671 141.95C35.7864 141.751 35.8446 141.506 35.8418 141.213ZM40.6262 137.455L41.8279 139.743L43.0595 137.455H44.9217L43.0254 140.727L44.9728 144H43.1191L41.8279 141.737L40.5581 144H38.6831L40.6262 140.727L38.7512 137.455H40.6262ZM48.7228 144.128C48.0609 144.128 47.4885 143.987 47.0055 143.706C46.5254 143.422 46.1547 143.027 45.8933 142.521C45.6319 142.013 45.5012 141.423 45.5012 140.753C45.5012 140.077 45.6319 139.486 45.8933 138.98C46.1547 138.472 46.5254 138.077 47.0055 137.795C47.4885 137.511 48.0609 137.369 48.7228 137.369C49.3848 137.369 49.9558 137.511 50.4359 137.795C50.9189 138.077 51.291 138.472 51.5524 138.98C51.8137 139.486 51.9444 140.077 51.9444 140.753C51.9444 141.423 51.8137 142.013 51.5524 142.521C51.291 143.027 50.9189 143.422 50.4359 143.706C49.9558 143.987 49.3848 144.128 48.7228 144.128ZM48.7314 142.722C49.0325 142.722 49.2839 142.636 49.4856 142.466C49.6873 142.293 49.8393 142.057 49.9416 141.759C50.0467 141.46 50.0993 141.121 50.0993 140.74C50.0993 140.359 50.0467 140.02 49.9416 139.722C49.8393 139.423 49.6873 139.187 49.4856 139.014C49.2839 138.841 49.0325 138.754 48.7314 138.754C48.4274 138.754 48.1717 138.841 47.9643 139.014C47.7598 139.187 47.6049 139.423 47.4998 139.722C47.3975 140.02 47.3464 140.359 47.3464 140.74C47.3464 141.121 47.3975 141.46 47.4998 141.759C47.6049 142.057 47.7598 142.293 47.9643 142.466C48.1717 142.636 48.4274 142.722 48.7314 142.722ZM58.3141 144.107C57.8169 144.107 57.3667 143.979 56.9632 143.723C56.5627 143.464 56.2445 143.085 56.0087 142.585C55.7757 142.082 55.6593 141.466 55.6593 140.736C55.6593 139.986 55.78 139.362 56.0215 138.865C56.263 138.365 56.584 137.991 56.9846 137.744C57.388 137.494 57.8297 137.369 58.3098 137.369C58.6763 137.369 58.9817 137.432 59.226 137.557C59.4732 137.679 59.6721 137.832 59.8226 138.017C59.976 138.199 60.0925 138.378 60.1721 138.554H60.2275V135.273H62.0385V144H60.2488V142.952H60.1721C60.0868 143.134 59.9661 143.314 59.8098 143.493C59.6564 143.669 59.4561 143.815 59.209 143.932C58.9647 144.048 58.6664 144.107 58.3141 144.107ZM58.8894 142.662C59.182 142.662 59.4292 142.582 59.6309 142.423C59.8354 142.261 59.9917 142.036 60.0996 141.746C60.2104 141.456 60.2658 141.116 60.2658 140.727C60.2658 140.338 60.2118 140 60.1039 139.713C59.9959 139.426 59.8397 139.205 59.6351 139.048C59.4306 138.892 59.182 138.814 58.8894 138.814C58.5911 138.814 58.3397 138.895 58.1351 139.057C57.9306 139.219 57.7757 139.443 57.6706 139.73C57.5655 140.017 57.513 140.349 57.513 140.727C57.513 141.108 57.5655 141.445 57.6706 141.737C57.7786 142.027 57.9334 142.254 58.1351 142.419C58.3397 142.581 58.5911 142.662 58.8894 142.662ZM66.514 144.128C65.8407 144.128 65.2612 143.991 64.7754 143.719C64.2924 143.443 63.9203 143.054 63.6589 142.551C63.3975 142.045 63.2669 141.447 63.2669 140.757C63.2669 140.084 63.3975 139.493 63.6589 138.984C63.9203 138.476 64.2882 138.08 64.7626 137.795C65.2399 137.511 65.7995 137.369 66.4416 137.369C66.8734 137.369 67.2754 137.439 67.6475 137.578C68.0225 137.714 68.3493 137.92 68.6277 138.196C68.9089 138.472 69.1277 138.818 69.2839 139.236C69.4402 139.651 69.5183 140.136 69.5183 140.693V141.192H63.9913V140.067H67.8095C67.8095 139.805 67.7527 139.574 67.639 139.372C67.5254 139.17 67.3677 139.013 67.166 138.899C66.9672 138.783 66.7356 138.724 66.4714 138.724C66.1958 138.724 65.9515 138.788 65.7385 138.916C65.5282 139.041 65.3635 139.21 65.2441 139.423C65.1248 139.634 65.0637 139.868 65.0609 140.126V141.196C65.0609 141.52 65.1206 141.8 65.2399 142.036C65.362 142.271 65.5339 142.453 65.7555 142.581C65.9771 142.709 66.2399 142.773 66.5439 142.773C66.7456 142.773 66.9302 142.744 67.0978 142.688C67.2654 142.631 67.4089 142.545 67.5282 142.432C67.6475 142.318 67.7385 142.179 67.801 142.014L69.4799 142.125C69.3947 142.528 69.22 142.881 68.9558 143.182C68.6944 143.48 68.3564 143.713 67.9416 143.881C67.5297 144.045 67.0538 144.128 66.514 144.128ZM26.1786 152.455V153.818H22.2369V152.455H26.1786ZM23.1317 150.886H24.9471V156.989C24.9471 157.156 24.9727 157.287 25.0238 157.381C25.0749 157.472 25.146 157.536 25.2369 157.572C25.3306 157.609 25.4386 157.628 25.5607 157.628C25.646 157.628 25.7312 157.621 25.8164 157.607C25.9016 157.589 25.967 157.577 26.0124 157.568L26.2979 158.919C26.207 158.947 26.0792 158.98 25.9144 159.017C25.7496 159.057 25.5494 159.081 25.3136 159.089C24.8761 159.107 24.4925 159.048 24.163 158.915C23.8363 158.781 23.582 158.574 23.4002 158.293C23.2184 158.011 23.1289 157.656 23.1317 157.227V150.886ZM27.3612 159V152.455H29.1211V153.597H29.1893C29.3086 153.19 29.5089 152.884 29.7901 152.676C30.0714 152.466 30.3952 152.361 30.7617 152.361C30.8526 152.361 30.9506 152.366 31.0558 152.378C31.1609 152.389 31.2532 152.405 31.3327 152.425V154.036C31.2475 154.01 31.1296 153.987 30.979 153.967C30.8285 153.947 30.6907 153.938 30.5657 153.938C30.2987 153.938 30.06 153.996 29.8498 154.112C29.6424 154.226 29.4776 154.385 29.3555 154.589C29.2362 154.794 29.1765 155.03 29.1765 155.297V159H27.3612ZM33.9503 159.124C33.5327 159.124 33.1605 159.051 32.8338 158.906C32.5071 158.759 32.2486 158.541 32.0582 158.254C31.8707 157.964 31.777 157.604 31.777 157.172C31.777 156.808 31.8438 156.503 31.9773 156.256C32.1108 156.009 32.2926 155.81 32.5227 155.659C32.7528 155.509 33.0142 155.395 33.3068 155.318C33.6023 155.241 33.9119 155.188 34.2358 155.156C34.6165 155.116 34.9233 155.08 35.1562 155.045C35.3892 155.009 35.5582 154.955 35.6634 154.884C35.7685 154.812 35.821 154.707 35.821 154.568V154.543C35.821 154.273 35.7358 154.064 35.5653 153.916C35.3977 153.768 35.1591 153.695 34.8494 153.695C34.5227 153.695 34.2628 153.767 34.0696 153.912C33.8764 154.054 33.7486 154.233 33.6861 154.449L32.0071 154.312C32.0923 153.915 32.2599 153.571 32.5099 153.281C32.7599 152.989 33.0824 152.764 33.4773 152.608C33.875 152.449 34.3352 152.369 34.858 152.369C35.2216 152.369 35.5696 152.412 35.902 152.497C36.2372 152.582 36.5341 152.714 36.7926 152.893C37.054 153.072 37.2599 153.303 37.4105 153.584C37.5611 153.862 37.6364 154.196 37.6364 154.585V159H35.9148V158.092H35.8636C35.7585 158.297 35.6179 158.477 35.4418 158.634C35.2656 158.787 35.054 158.908 34.8068 158.996C34.5597 159.081 34.2741 159.124 33.9503 159.124ZM34.4702 157.871C34.7372 157.871 34.973 157.818 35.1776 157.713C35.3821 157.605 35.5426 157.46 35.6591 157.278C35.7756 157.097 35.8338 156.891 35.8338 156.661V155.966C35.777 156.003 35.6989 156.037 35.5994 156.068C35.5028 156.097 35.3935 156.124 35.2713 156.149C35.1491 156.172 35.027 156.193 34.9048 156.213C34.7827 156.23 34.6719 156.246 34.5724 156.26C34.3594 156.291 34.1733 156.341 34.0142 156.409C33.8551 156.477 33.7315 156.57 33.6435 156.686C33.5554 156.8 33.5114 156.942 33.5114 157.112C33.5114 157.359 33.6009 157.548 33.7798 157.679C33.9616 157.807 34.1918 157.871 34.4702 157.871ZM39.0788 159V150.273H40.8942V153.554H40.9496C41.0291 153.378 41.1442 153.199 41.2947 153.017C41.4482 152.832 41.647 152.679 41.8913 152.557C42.1385 152.432 42.4453 152.369 42.8118 152.369C43.2891 152.369 43.7294 152.494 44.1328 152.744C44.5362 152.991 44.8587 153.365 45.1001 153.865C45.3416 154.362 45.4624 154.986 45.4624 155.736C45.4624 156.466 45.3445 157.082 45.1087 157.585C44.8757 158.085 44.5575 158.464 44.1541 158.723C43.7536 158.979 43.3047 159.107 42.8075 159.107C42.4553 159.107 42.1555 159.048 41.9084 158.932C41.6641 158.815 41.4638 158.669 41.3075 158.493C41.1513 158.314 41.032 158.134 40.9496 157.952H40.8686V159H39.0788ZM40.8558 155.727C40.8558 156.116 40.9098 156.456 41.0178 156.746C41.1257 157.036 41.282 157.261 41.4865 157.423C41.6911 157.582 41.9396 157.662 42.2322 157.662C42.5277 157.662 42.7777 157.581 42.9822 157.419C43.1868 157.254 43.3416 157.027 43.4467 156.737C43.5547 156.445 43.6087 156.108 43.6087 155.727C43.6087 155.349 43.5561 155.017 43.451 154.73C43.3459 154.443 43.1911 154.219 42.9865 154.057C42.782 153.895 42.5305 153.814 42.2322 153.814C41.9368 153.814 41.6868 153.892 41.4822 154.048C41.2805 154.205 41.1257 154.426 41.0178 154.713C40.9098 155 40.8558 155.338 40.8558 155.727ZM48.5401 159.124C48.1225 159.124 47.7504 159.051 47.4237 158.906C47.0969 158.759 46.8384 158.541 46.6481 158.254C46.4606 157.964 46.3668 157.604 46.3668 157.172C46.3668 156.808 46.4336 156.503 46.5671 156.256C46.7006 156.009 46.8825 155.81 47.1126 155.659C47.3427 155.509 47.604 155.395 47.8967 155.318C48.1921 155.241 48.5018 155.188 48.8256 155.156C49.2063 155.116 49.5131 155.08 49.7461 155.045C49.979 155.009 50.1481 154.955 50.2532 154.884C50.3583 154.812 50.4109 154.707 50.4109 154.568V154.543C50.4109 154.273 50.3256 154.064 50.1552 153.916C49.9876 153.768 49.7489 153.695 49.4393 153.695C49.1126 153.695 48.8526 153.767 48.6594 153.912C48.4663 154.054 48.3384 154.233 48.2759 154.449L46.5969 154.312C46.6822 153.915 46.8498 153.571 47.0998 153.281C47.3498 152.989 47.6722 152.764 48.0671 152.608C48.4648 152.449 48.9251 152.369 49.4478 152.369C49.8114 152.369 50.1594 152.412 50.4918 152.497C50.8271 152.582 51.1239 152.714 51.3825 152.893C51.6438 153.072 51.8498 153.303 52.0004 153.584C52.1509 153.862 52.2262 154.196 52.2262 154.585V159H50.5046V158.092H50.4535C50.3484 158.297 50.2077 158.477 50.0316 158.634C49.8555 158.787 49.6438 158.908 49.3967 158.996C49.1495 159.081 48.864 159.124 48.5401 159.124ZM49.06 157.871C49.3271 157.871 49.5629 157.818 49.7674 157.713C49.9719 157.605 50.1325 157.46 50.2489 157.278C50.3654 157.097 50.4237 156.891 50.4237 156.661V155.966C50.3668 156.003 50.2887 156.037 50.1893 156.068C50.0927 156.097 49.9833 156.124 49.8612 156.149C49.739 156.172 49.6168 156.193 49.4947 156.213C49.3725 156.23 49.2617 156.246 49.1623 156.26C48.9492 156.291 48.7631 156.341 48.604 156.409C48.445 156.477 48.3214 156.57 48.2333 156.686C48.1452 156.8 48.1012 156.942 48.1012 157.112C48.1012 157.359 48.1907 157.548 48.3697 157.679C48.5515 157.807 48.7816 157.871 49.06 157.871ZM55.4499 150.273V159H53.6346V150.273H55.4499ZM58.7195 155.216V159H56.9041V150.273H58.6683V153.609H58.745C58.8928 153.223 59.1314 152.92 59.4609 152.702C59.7905 152.48 60.2038 152.369 60.701 152.369C61.1555 152.369 61.5518 152.469 61.8899 152.668C62.2308 152.864 62.495 153.146 62.6825 153.516C62.8729 153.882 62.9666 154.321 62.9638 154.832V159H61.1484V155.156C61.1513 154.753 61.049 154.439 60.8416 154.214C60.6371 153.99 60.3501 153.878 59.9808 153.878C59.7337 153.878 59.5149 153.93 59.3246 154.036C59.1371 154.141 58.9893 154.294 58.8814 154.496C58.7763 154.695 58.7223 154.935 58.7195 155.216ZM67.3498 159.128C66.6879 159.128 66.1154 158.987 65.6325 158.706C65.1523 158.422 64.7816 158.027 64.5202 157.521C64.2589 157.013 64.1282 156.423 64.1282 155.753C64.1282 155.077 64.2589 154.486 64.5202 153.98C64.7816 153.472 65.1523 153.077 65.6325 152.795C66.1154 152.511 66.6879 152.369 67.3498 152.369C68.0117 152.369 68.5827 152.511 69.0629 152.795C69.5458 153.077 69.918 153.472 70.1793 153.98C70.4407 154.486 70.5714 155.077 70.5714 155.753C70.5714 156.423 70.4407 157.013 70.1793 157.521C69.918 158.027 69.5458 158.422 69.0629 158.706C68.5827 158.987 68.0117 159.128 67.3498 159.128ZM67.3583 157.722C67.6594 157.722 67.9109 157.636 68.1126 157.466C68.3143 157.293 68.4663 157.057 68.5685 156.759C68.6737 156.46 68.7262 156.121 68.7262 155.74C68.7262 155.359 68.6737 155.02 68.5685 154.722C68.4663 154.423 68.3143 154.187 68.1126 154.014C67.9109 153.841 67.6594 153.754 67.3583 153.754C67.0543 153.754 66.7987 153.841 66.5913 154.014C66.3867 154.187 66.2319 154.423 66.1268 154.722C66.0245 155.02 65.9734 155.359 65.9734 155.74C65.9734 156.121 66.0245 156.46 66.1268 156.759C66.2319 157.057 66.3867 157.293 66.5913 157.466C66.7987 157.636 67.0543 157.722 67.3583 157.722Z" fill="black"/>
<path d="M178.086 149.455V140.455H179.876V141.554H179.956C180.036 141.378 180.151 141.199 180.302 141.017C180.455 140.832 180.654 140.679 180.898 140.557C181.145 140.432 181.452 140.369 181.819 140.369C182.296 140.369 182.736 140.494 183.14 140.744C183.543 140.991 183.866 141.365 184.107 141.865C184.349 142.362 184.469 142.986 184.469 143.736C184.469 144.466 184.351 145.082 184.116 145.585C183.883 146.085 183.564 146.464 183.161 146.723C182.76 146.979 182.312 147.107 181.814 147.107C181.462 147.107 181.162 147.048 180.915 146.932C180.671 146.815 180.471 146.669 180.314 146.493C180.158 146.314 180.039 146.134 179.956 145.952H179.901V149.455H178.086ZM179.863 143.727C179.863 144.116 179.917 144.456 180.025 144.746C180.133 145.036 180.289 145.261 180.493 145.423C180.698 145.582 180.947 145.662 181.239 145.662C181.535 145.662 181.785 145.581 181.989 145.419C182.194 145.254 182.349 145.027 182.454 144.737C182.562 144.445 182.616 144.108 182.616 143.727C182.616 143.349 182.563 143.017 182.458 142.73C182.353 142.443 182.198 142.219 181.993 142.057C181.789 141.895 181.537 141.814 181.239 141.814C180.944 141.814 180.694 141.892 180.489 142.048C180.287 142.205 180.133 142.426 180.025 142.713C179.917 143 179.863 143.338 179.863 143.727ZM185.68 147V140.455H187.439V141.597H187.508C187.627 141.19 187.827 140.884 188.108 140.676C188.39 140.466 188.714 140.361 189.08 140.361C189.171 140.361 189.269 140.366 189.374 140.378C189.479 140.389 189.572 140.405 189.651 140.425V142.036C189.566 142.01 189.448 141.987 189.297 141.967C189.147 141.947 189.009 141.938 188.884 141.938C188.617 141.938 188.378 141.996 188.168 142.112C187.961 142.226 187.796 142.385 187.674 142.589C187.555 142.794 187.495 143.03 187.495 143.297V147H185.68ZM193.242 147.128C192.58 147.128 192.008 146.987 191.525 146.706C191.045 146.422 190.674 146.027 190.413 145.521C190.151 145.013 190.021 144.423 190.021 143.753C190.021 143.077 190.151 142.486 190.413 141.98C190.674 141.472 191.045 141.077 191.525 140.795C192.008 140.511 192.58 140.369 193.242 140.369C193.904 140.369 194.475 140.511 194.955 140.795C195.438 141.077 195.811 141.472 196.072 141.98C196.333 142.486 196.464 143.077 196.464 143.753C196.464 144.423 196.333 145.013 196.072 145.521C195.811 146.027 195.438 146.422 194.955 146.706C194.475 146.987 193.904 147.128 193.242 147.128ZM193.251 145.722C193.552 145.722 193.803 145.636 194.005 145.466C194.207 145.293 194.359 145.057 194.461 144.759C194.566 144.46 194.619 144.121 194.619 143.74C194.619 143.359 194.566 143.02 194.461 142.722C194.359 142.423 194.207 142.187 194.005 142.014C193.803 141.841 193.552 141.754 193.251 141.754C192.947 141.754 192.691 141.841 192.484 142.014C192.279 142.187 192.124 142.423 192.019 142.722C191.917 143.02 191.866 143.359 191.866 143.74C191.866 144.121 191.917 144.46 192.019 144.759C192.124 145.057 192.279 145.293 192.484 145.466C192.691 145.636 192.947 145.722 193.251 145.722ZM200.056 147.107C199.559 147.107 199.109 146.979 198.705 146.723C198.305 146.464 197.987 146.085 197.751 145.585C197.518 145.082 197.401 144.466 197.401 143.736C197.401 142.986 197.522 142.362 197.764 141.865C198.005 141.365 198.326 140.991 198.727 140.744C199.13 140.494 199.572 140.369 200.052 140.369C200.419 140.369 200.724 140.432 200.968 140.557C201.215 140.679 201.414 140.832 201.565 141.017C201.718 141.199 201.835 141.378 201.914 141.554H201.97V138.273H203.781V147H201.991V145.952H201.914C201.829 146.134 201.708 146.314 201.552 146.493C201.399 146.669 201.198 146.815 200.951 146.932C200.707 147.048 200.409 147.107 200.056 147.107ZM200.632 145.662C200.924 145.662 201.171 145.582 201.373 145.423C201.578 145.261 201.734 145.036 201.842 144.746C201.953 144.456 202.008 144.116 202.008 143.727C202.008 143.338 201.954 143 201.846 142.713C201.738 142.426 201.582 142.205 201.377 142.048C201.173 141.892 200.924 141.814 200.632 141.814C200.333 141.814 200.082 141.895 199.877 142.057C199.673 142.219 199.518 142.443 199.413 142.73C199.308 143.017 199.255 143.349 199.255 143.727C199.255 144.108 199.308 144.445 199.413 144.737C199.521 145.027 199.676 145.254 199.877 145.419C200.082 145.581 200.333 145.662 200.632 145.662ZM209.471 144.213V140.455H211.286V147H209.543V145.811H209.475C209.327 146.195 209.081 146.503 208.738 146.736C208.397 146.969 207.981 147.085 207.489 147.085C207.052 147.085 206.667 146.986 206.334 146.787C206.002 146.588 205.742 146.305 205.555 145.939C205.37 145.572 205.276 145.134 205.273 144.622V140.455H207.089V144.298C207.091 144.685 207.195 144.99 207.4 145.214C207.604 145.439 207.878 145.551 208.222 145.551C208.441 145.551 208.645 145.501 208.836 145.402C209.026 145.3 209.18 145.149 209.296 144.95C209.415 144.751 209.474 144.506 209.471 144.213ZM216.22 140.455V141.818H212.278V140.455H216.22ZM213.173 138.886H214.988V144.989C214.988 145.156 215.014 145.287 215.065 145.381C215.116 145.472 215.187 145.536 215.278 145.572C215.372 145.609 215.48 145.628 215.602 145.628C215.687 145.628 215.772 145.621 215.857 145.607C215.943 145.589 216.008 145.577 216.053 145.568L216.339 146.919C216.248 146.947 216.12 146.98 215.955 147.017C215.791 147.057 215.59 147.081 215.355 147.089C214.917 147.107 214.534 147.048 214.204 146.915C213.877 146.781 213.623 146.574 213.441 146.293C213.259 146.011 213.17 145.656 213.173 145.227V138.886ZM217.402 147V140.455H219.218V147H217.402ZM218.314 139.611C218.044 139.611 217.813 139.521 217.619 139.342C217.429 139.161 217.334 138.943 217.334 138.69C217.334 138.44 217.429 138.226 217.619 138.047C217.813 137.865 218.044 137.774 218.314 137.774C218.584 137.774 218.814 137.865 219.004 138.047C219.198 138.226 219.294 138.44 219.294 138.69C219.294 138.943 219.198 139.161 219.004 139.342C218.814 139.521 218.584 139.611 218.314 139.611ZM226.774 140.455L224.486 147H222.44L220.152 140.455H222.069L223.429 145.138H223.497L224.852 140.455H226.774ZM227.703 147V140.455H229.518V147H227.703ZM228.615 139.611C228.345 139.611 228.113 139.521 227.92 139.342C227.73 139.161 227.635 138.943 227.635 138.69C227.635 138.44 227.73 138.226 227.92 138.047C228.113 137.865 228.345 137.774 228.615 137.774C228.885 137.774 229.115 137.865 229.305 138.047C229.498 138.226 229.595 138.44 229.595 138.69C229.595 138.943 229.498 139.161 229.305 139.342C229.115 139.521 228.885 139.611 228.615 139.611ZM233.384 147.107C232.887 147.107 232.437 146.979 232.034 146.723C231.633 146.464 231.315 146.085 231.079 145.585C230.846 145.082 230.73 144.466 230.73 143.736C230.73 142.986 230.85 142.362 231.092 141.865C231.333 141.365 231.654 140.991 232.055 140.744C232.458 140.494 232.9 140.369 233.38 140.369C233.747 140.369 234.052 140.432 234.296 140.557C234.544 140.679 234.742 140.832 234.893 141.017C235.046 141.199 235.163 141.378 235.242 141.554H235.298V138.273H237.109V147H235.319V145.952H235.242C235.157 146.134 235.036 146.314 234.88 146.493C234.727 146.669 234.526 146.815 234.279 146.932C234.035 147.048 233.737 147.107 233.384 147.107ZM233.96 145.662C234.252 145.662 234.499 145.582 234.701 145.423C234.906 145.261 235.062 145.036 235.17 144.746C235.281 144.456 235.336 144.116 235.336 143.727C235.336 143.338 235.282 143 235.174 142.713C235.066 142.426 234.91 142.205 234.705 142.048C234.501 141.892 234.252 141.814 233.96 141.814C233.661 141.814 233.41 141.895 233.205 142.057C233.001 142.219 232.846 142.443 232.741 142.73C232.636 143.017 232.583 143.349 232.583 143.727C232.583 144.108 232.636 144.445 232.741 144.737C232.849 145.027 233.004 145.254 233.205 145.419C233.41 145.581 233.661 145.662 233.96 145.662ZM240.468 147.124C240.05 147.124 239.678 147.051 239.351 146.906C239.025 146.759 238.766 146.541 238.576 146.254C238.388 145.964 238.295 145.604 238.295 145.172C238.295 144.808 238.361 144.503 238.495 144.256C238.628 144.009 238.81 143.81 239.04 143.659C239.27 143.509 239.532 143.395 239.824 143.318C240.12 143.241 240.43 143.188 240.753 143.156C241.134 143.116 241.441 143.08 241.674 143.045C241.907 143.009 242.076 142.955 242.181 142.884C242.286 142.812 242.339 142.707 242.339 142.568V142.543C242.339 142.273 242.253 142.064 242.083 141.916C241.915 141.768 241.677 141.695 241.367 141.695C241.04 141.695 240.78 141.767 240.587 141.912C240.394 142.054 240.266 142.233 240.204 142.449L238.525 142.312C238.61 141.915 238.778 141.571 239.028 141.281C239.278 140.989 239.6 140.764 239.995 140.608C240.393 140.449 240.853 140.369 241.376 140.369C241.739 140.369 242.087 140.412 242.42 140.497C242.755 140.582 243.052 140.714 243.31 140.893C243.572 141.072 243.778 141.303 243.928 141.584C244.079 141.862 244.154 142.196 244.154 142.585V147H242.432V146.092H242.381C242.276 146.297 242.135 146.477 241.959 146.634C241.783 146.787 241.572 146.908 241.324 146.996C241.077 147.081 240.792 147.124 240.468 147.124ZM240.988 145.871C241.255 145.871 241.491 145.818 241.695 145.713C241.9 145.605 242.06 145.46 242.177 145.278C242.293 145.097 242.351 144.891 242.351 144.661V143.966C242.295 144.003 242.216 144.037 242.117 144.068C242.02 144.097 241.911 144.124 241.789 144.149C241.667 144.172 241.545 144.193 241.422 144.213C241.3 144.23 241.189 144.246 241.09 144.26C240.877 144.291 240.691 144.341 240.532 144.409C240.373 144.477 240.249 144.57 240.161 144.686C240.073 144.8 240.029 144.942 240.029 145.112C240.029 145.359 240.118 145.548 240.297 145.679C240.479 145.807 240.709 145.871 240.988 145.871ZM247.974 147.107C247.477 147.107 247.027 146.979 246.623 146.723C246.223 146.464 245.905 146.085 245.669 145.585C245.436 145.082 245.319 144.466 245.319 143.736C245.319 142.986 245.44 142.362 245.682 141.865C245.923 141.365 246.244 140.991 246.645 140.744C247.048 140.494 247.49 140.369 247.97 140.369C248.336 140.369 248.642 140.432 248.886 140.557C249.133 140.679 249.332 140.832 249.483 141.017C249.636 141.199 249.753 141.378 249.832 141.554H249.888V138.273H251.699V147H249.909V145.952H249.832C249.747 146.134 249.626 146.314 249.47 146.493C249.317 146.669 249.116 146.815 248.869 146.932C248.625 147.048 248.327 147.107 247.974 147.107ZM248.55 145.662C248.842 145.662 249.089 145.582 249.291 145.423C249.496 145.261 249.652 145.036 249.76 144.746C249.871 144.456 249.926 144.116 249.926 143.727C249.926 143.338 249.872 143 249.764 142.713C249.656 142.426 249.5 142.205 249.295 142.048C249.091 141.892 248.842 141.814 248.55 141.814C248.251 141.814 248 141.895 247.795 142.057C247.591 142.219 247.436 142.443 247.331 142.73C247.226 143.017 247.173 143.349 247.173 143.727C247.173 144.108 247.226 144.445 247.331 144.737C247.439 145.027 247.594 145.254 247.795 145.419C248 145.581 248.251 145.662 248.55 145.662ZM256.174 147.128C255.501 147.128 254.921 146.991 254.436 146.719C253.953 146.443 253.58 146.054 253.319 145.551C253.058 145.045 252.927 144.447 252.927 143.757C252.927 143.084 253.058 142.493 253.319 141.984C253.58 141.476 253.948 141.08 254.423 140.795C254.9 140.511 255.46 140.369 256.102 140.369C256.534 140.369 256.936 140.439 257.308 140.578C257.683 140.714 258.009 140.92 258.288 141.196C258.569 141.472 258.788 141.818 258.944 142.236C259.1 142.651 259.178 143.136 259.178 143.693V144.192H253.651V143.067H257.47C257.47 142.805 257.413 142.574 257.299 142.372C257.186 142.17 257.028 142.013 256.826 141.899C256.627 141.783 256.396 141.724 256.132 141.724C255.856 141.724 255.612 141.788 255.399 141.916C255.188 142.041 255.024 142.21 254.904 142.423C254.785 142.634 254.724 142.868 254.721 143.126V144.196C254.721 144.52 254.781 144.8 254.9 145.036C255.022 145.271 255.194 145.453 255.416 145.581C255.637 145.709 255.9 145.773 256.204 145.773C256.406 145.773 256.59 145.744 256.758 145.688C256.926 145.631 257.069 145.545 257.188 145.432C257.308 145.318 257.399 145.179 257.461 145.014L259.14 145.125C259.055 145.528 258.88 145.881 258.616 146.182C258.355 146.48 258.017 146.713 257.602 146.881C257.19 147.045 256.714 147.128 256.174 147.128Z" fill="black"/>
<path d="M113.371 144.128C112.698 144.128 112.119 143.991 111.633 143.719C111.15 143.443 110.778 143.054 110.516 142.551C110.255 142.045 110.124 141.447 110.124 140.757C110.124 140.084 110.255 139.493 110.516 138.984C110.778 138.476 111.146 138.08 111.62 137.795C112.097 137.511 112.657 137.369 113.299 137.369C113.731 137.369 114.133 137.439 114.505 137.578C114.88 137.714 115.207 137.92 115.485 138.196C115.766 138.472 115.985 138.818 116.141 139.236C116.298 139.651 116.376 140.136 116.376 140.693V141.192H110.849V140.067H114.667C114.667 139.805 114.61 139.574 114.496 139.372C114.383 139.17 114.225 139.013 114.023 138.899C113.825 138.783 113.593 138.724 113.329 138.724C113.053 138.724 112.809 138.788 112.596 138.916C112.386 139.041 112.221 139.21 112.102 139.423C111.982 139.634 111.921 139.868 111.918 140.126V141.196C111.918 141.52 111.978 141.8 112.097 142.036C112.219 142.271 112.391 142.453 112.613 142.581C112.835 142.709 113.097 142.773 113.401 142.773C113.603 142.773 113.788 142.744 113.955 142.688C114.123 142.631 114.266 142.545 114.386 142.432C114.505 142.318 114.596 142.179 114.658 142.014L116.337 142.125C116.252 142.528 116.077 142.881 115.813 143.182C115.552 143.48 115.214 143.713 114.799 143.881C114.387 144.045 113.911 144.128 113.371 144.128ZM123.006 139.321L121.344 139.423C121.316 139.281 121.255 139.153 121.161 139.04C121.067 138.923 120.944 138.831 120.79 138.763C120.64 138.692 120.46 138.656 120.249 138.656C119.968 138.656 119.731 138.716 119.538 138.835C119.344 138.952 119.248 139.108 119.248 139.304C119.248 139.46 119.31 139.592 119.435 139.7C119.56 139.808 119.775 139.895 120.079 139.96L121.263 140.199C121.9 140.33 122.374 140.54 122.687 140.83C122.999 141.119 123.156 141.5 123.156 141.972C123.156 142.401 123.029 142.777 122.776 143.101C122.526 143.425 122.183 143.678 121.745 143.859C121.31 144.038 120.809 144.128 120.241 144.128C119.374 144.128 118.684 143.947 118.17 143.587C117.658 143.223 117.359 142.729 117.271 142.104L119.056 142.01C119.11 142.274 119.241 142.476 119.448 142.615C119.656 142.751 119.921 142.82 120.245 142.82C120.563 142.82 120.819 142.759 121.012 142.636C121.208 142.511 121.308 142.351 121.31 142.155C121.308 141.99 121.238 141.855 121.102 141.75C120.965 141.642 120.755 141.56 120.471 141.503L119.337 141.277C118.698 141.149 118.222 140.928 117.91 140.612C117.6 140.297 117.445 139.895 117.445 139.406C117.445 138.986 117.559 138.624 117.786 138.32C118.016 138.016 118.339 137.781 118.754 137.616C119.171 137.452 119.66 137.369 120.219 137.369C121.046 137.369 121.697 137.544 122.171 137.893C122.648 138.243 122.927 138.719 123.006 139.321ZM127.819 137.455V138.818H123.779V137.455H127.819ZM124.703 144V136.982C124.703 136.507 124.796 136.114 124.98 135.801C125.168 135.489 125.424 135.254 125.748 135.098C126.071 134.942 126.439 134.864 126.851 134.864C127.13 134.864 127.384 134.885 127.614 134.928C127.847 134.97 128.02 135.009 128.134 135.043L127.81 136.406C127.739 136.384 127.651 136.362 127.546 136.342C127.444 136.322 127.338 136.312 127.23 136.312C126.963 136.312 126.777 136.375 126.672 136.5C126.567 136.622 126.515 136.794 126.515 137.016V144H124.703ZM131.651 144.128C130.989 144.128 130.416 143.987 129.933 143.706C129.453 143.422 129.082 143.027 128.821 142.521C128.56 142.013 128.429 141.423 128.429 140.753C128.429 140.077 128.56 139.486 128.821 138.98C129.082 138.472 129.453 138.077 129.933 137.795C130.416 137.511 130.989 137.369 131.651 137.369C132.312 137.369 132.884 137.511 133.364 137.795C133.847 138.077 134.219 138.472 134.48 138.98C134.741 139.486 134.872 140.077 134.872 140.753C134.872 141.423 134.741 142.013 134.48 142.521C134.219 143.027 133.847 143.422 133.364 143.706C132.884 143.987 132.312 144.128 131.651 144.128ZM131.659 142.722C131.96 142.722 132.212 142.636 132.413 142.466C132.615 142.293 132.767 142.057 132.869 141.759C132.974 141.46 133.027 141.121 133.027 140.74C133.027 140.359 132.974 140.02 132.869 139.722C132.767 139.423 132.615 139.187 132.413 139.014C132.212 138.841 131.96 138.754 131.659 138.754C131.355 138.754 131.099 138.841 130.892 139.014C130.688 139.187 130.533 139.423 130.428 139.722C130.325 140.02 130.274 140.359 130.274 140.74C130.274 141.121 130.325 141.46 130.428 141.759C130.533 142.057 130.688 142.293 130.892 142.466C131.099 142.636 131.355 142.722 131.659 142.722ZM136.053 144V137.455H137.812V138.597H137.881C138 138.19 138.2 137.884 138.482 137.676C138.763 137.466 139.087 137.361 139.453 137.361C139.544 137.361 139.642 137.366 139.747 137.378C139.852 137.389 139.945 137.405 140.024 137.425V139.036C139.939 139.01 139.821 138.987 139.67 138.967C139.52 138.947 139.382 138.938 139.257 138.938C138.99 138.938 138.751 138.996 138.541 139.112C138.334 139.226 138.169 139.385 138.047 139.589C137.928 139.794 137.868 140.03 137.868 140.297V144H136.053ZM143.615 144.128C142.945 144.128 142.368 143.986 141.885 143.702C141.405 143.415 141.036 143.017 140.777 142.509C140.522 142 140.394 141.415 140.394 140.753C140.394 140.082 140.523 139.494 140.782 138.989C141.043 138.48 141.414 138.084 141.894 137.8C142.374 137.513 142.945 137.369 143.607 137.369C144.178 137.369 144.678 137.473 145.107 137.68C145.536 137.888 145.875 138.179 146.125 138.554C146.375 138.929 146.513 139.369 146.539 139.875H144.826C144.777 139.548 144.65 139.286 144.442 139.087C144.238 138.885 143.969 138.784 143.637 138.784C143.355 138.784 143.11 138.861 142.9 139.014C142.692 139.165 142.53 139.385 142.414 139.675C142.297 139.964 142.239 140.315 142.239 140.727C142.239 141.145 142.296 141.5 142.409 141.793C142.526 142.085 142.689 142.308 142.9 142.462C143.11 142.615 143.355 142.692 143.637 142.692C143.844 142.692 144.03 142.649 144.195 142.564C144.363 142.479 144.5 142.355 144.608 142.193C144.719 142.028 144.792 141.831 144.826 141.601H146.539C146.51 142.101 146.374 142.541 146.13 142.922C145.888 143.3 145.554 143.595 145.128 143.808C144.702 144.021 144.198 144.128 143.615 144.128ZM143.189 143.966H144.025L143.956 144.337C144.249 144.382 144.488 144.491 144.672 144.665C144.86 144.838 144.955 145.074 144.958 145.372C144.961 145.795 144.765 146.132 144.37 146.382C143.975 146.635 143.421 146.761 142.708 146.761L142.691 145.952C143.049 145.952 143.328 145.908 143.53 145.82C143.735 145.734 143.841 145.601 143.85 145.419C143.855 145.246 143.789 145.114 143.65 145.023C143.51 144.932 143.293 144.868 142.998 144.831L143.189 143.966ZM150.658 144.128C149.996 144.128 149.424 143.987 148.941 143.706C148.461 143.422 148.09 143.027 147.829 142.521C147.567 142.013 147.437 141.423 147.437 140.753C147.437 140.077 147.567 139.486 147.829 138.98C148.09 138.472 148.461 138.077 148.941 137.795C149.424 137.511 149.996 137.369 150.658 137.369C151.32 137.369 151.891 137.511 152.371 137.795C152.854 138.077 153.227 138.472 153.488 138.98C153.749 139.486 153.88 140.077 153.88 140.753C153.88 141.423 153.749 142.013 153.488 142.521C153.227 143.027 152.854 143.422 152.371 143.706C151.891 143.987 151.32 144.128 150.658 144.128ZM150.667 142.722C150.968 142.722 151.219 142.636 151.421 142.466C151.623 142.293 151.775 142.057 151.877 141.759C151.982 141.46 152.035 141.121 152.035 140.74C152.035 140.359 151.982 140.02 151.877 139.722C151.775 139.423 151.623 139.187 151.421 139.014C151.219 138.841 150.968 138.754 150.667 138.754C150.363 138.754 150.107 138.841 149.9 139.014C149.695 139.187 149.54 139.423 149.435 139.722C149.333 140.02 149.282 140.359 149.282 140.74C149.282 141.121 149.333 141.46 149.435 141.759C149.54 142.057 149.695 142.293 149.9 142.466C150.107 142.636 150.363 142.722 150.667 142.722ZM111.191 159V152.455H112.921V153.609H112.998C113.134 153.226 113.362 152.923 113.68 152.702C113.998 152.48 114.379 152.369 114.822 152.369C115.271 152.369 115.653 152.482 115.968 152.706C116.284 152.928 116.494 153.229 116.599 153.609H116.667C116.801 153.234 117.042 152.935 117.392 152.71C117.744 152.483 118.16 152.369 118.64 152.369C119.251 152.369 119.747 152.564 120.127 152.953C120.511 153.339 120.703 153.888 120.703 154.598V159H118.892V154.956C118.892 154.592 118.795 154.32 118.602 154.138C118.409 153.956 118.167 153.865 117.877 153.865C117.548 153.865 117.291 153.97 117.106 154.18C116.921 154.388 116.829 154.662 116.829 155.003V159H115.069V154.918C115.069 154.597 114.977 154.341 114.792 154.151C114.61 153.96 114.37 153.865 114.072 153.865C113.87 153.865 113.688 153.916 113.526 154.018C113.367 154.118 113.241 154.259 113.147 154.44C113.053 154.619 113.007 154.83 113.007 155.071V159H111.191ZM124.003 159.124C123.585 159.124 123.213 159.051 122.887 158.906C122.56 158.759 122.301 158.541 122.111 158.254C121.923 157.964 121.83 157.604 121.83 157.172C121.83 156.808 121.896 156.503 122.03 156.256C122.164 156.009 122.345 155.81 122.575 155.659C122.806 155.509 123.067 155.395 123.36 155.318C123.655 155.241 123.965 155.188 124.289 155.156C124.669 155.116 124.976 155.08 125.209 155.045C125.442 155.009 125.611 154.955 125.716 154.884C125.821 154.812 125.874 154.707 125.874 154.568V154.543C125.874 154.273 125.789 154.064 125.618 153.916C125.45 153.768 125.212 153.695 124.902 153.695C124.575 153.695 124.316 153.767 124.122 153.912C123.929 154.054 123.801 154.233 123.739 154.449L122.06 154.312C122.145 153.915 122.313 153.571 122.563 153.281C122.813 152.989 123.135 152.764 123.53 152.608C123.928 152.449 124.388 152.369 124.911 152.369C125.274 152.369 125.622 152.412 125.955 152.497C126.29 152.582 126.587 152.714 126.845 152.893C127.107 153.072 127.313 153.303 127.463 153.584C127.614 153.862 127.689 154.196 127.689 154.585V159H125.968V158.092H125.916C125.811 158.297 125.671 158.477 125.494 158.634C125.318 158.787 125.107 158.908 124.86 158.996C124.612 159.081 124.327 159.124 124.003 159.124ZM124.523 157.871C124.79 157.871 125.026 157.818 125.23 157.713C125.435 157.605 125.595 157.46 125.712 157.278C125.828 157.097 125.887 156.891 125.887 156.661V155.966C125.83 156.003 125.752 156.037 125.652 156.068C125.556 156.097 125.446 156.124 125.324 156.149C125.202 156.172 125.08 156.193 124.958 156.213C124.835 156.23 124.725 156.246 124.625 156.26C124.412 156.291 124.226 156.341 124.067 156.409C123.908 156.477 123.784 156.57 123.696 156.686C123.608 156.8 123.564 156.942 123.564 157.112C123.564 157.359 123.654 157.548 123.833 157.679C124.014 157.807 124.244 157.871 124.523 157.871ZM130.913 155.216V159H129.097V152.455H130.828V153.609H130.904C131.049 153.229 131.292 152.928 131.633 152.706C131.974 152.482 132.387 152.369 132.873 152.369C133.328 152.369 133.724 152.469 134.062 152.668C134.4 152.866 134.663 153.151 134.85 153.52C135.038 153.886 135.132 154.324 135.132 154.832V159H133.316V155.156C133.319 154.756 133.217 154.443 133.009 154.219C132.802 153.991 132.517 153.878 132.153 153.878C131.909 153.878 131.693 153.93 131.505 154.036C131.32 154.141 131.176 154.294 131.07 154.496C130.968 154.695 130.916 154.935 130.913 155.216ZM140.76 156.213V152.455H142.575V159H140.832V157.811H140.764C140.616 158.195 140.371 158.503 140.027 158.736C139.686 158.969 139.27 159.085 138.778 159.085C138.341 159.085 137.956 158.986 137.623 158.787C137.291 158.588 137.031 158.305 136.844 157.939C136.659 157.572 136.565 157.134 136.562 156.622V152.455H138.378V156.298C138.381 156.685 138.484 156.99 138.689 157.214C138.893 157.439 139.167 157.551 139.511 157.551C139.73 157.551 139.934 157.501 140.125 157.402C140.315 157.3 140.469 157.149 140.585 156.95C140.704 156.751 140.763 156.506 140.76 156.213ZM145.894 159.124C145.476 159.124 145.104 159.051 144.777 158.906C144.45 158.759 144.192 158.541 144.002 158.254C143.814 157.964 143.72 157.604 143.72 157.172C143.72 156.808 143.787 156.503 143.921 156.256C144.054 156.009 144.236 155.81 144.466 155.659C144.696 155.509 144.958 155.395 145.25 155.318C145.546 155.241 145.855 155.188 146.179 155.156C146.56 155.116 146.867 155.08 147.1 155.045C147.333 155.009 147.502 154.955 147.607 154.884C147.712 154.812 147.764 154.707 147.764 154.568V154.543C147.764 154.273 147.679 154.064 147.509 153.916C147.341 153.768 147.102 153.695 146.793 153.695C146.466 153.695 146.206 153.767 146.013 153.912C145.82 154.054 145.692 154.233 145.629 154.449L143.95 154.312C144.036 153.915 144.203 153.571 144.453 153.281C144.703 152.989 145.026 152.764 145.421 152.608C145.818 152.449 146.279 152.369 146.801 152.369C147.165 152.369 147.513 152.412 147.845 152.497C148.181 152.582 148.477 152.714 148.736 152.893C148.997 153.072 149.203 153.303 149.354 153.584C149.504 153.862 149.58 154.196 149.58 154.585V159H147.858V158.092H147.807C147.702 158.297 147.561 158.477 147.385 158.634C147.209 158.787 146.997 158.908 146.75 158.996C146.503 159.081 146.218 159.124 145.894 159.124ZM146.414 157.871C146.681 157.871 146.916 157.818 147.121 157.713C147.325 157.605 147.486 157.46 147.602 157.278C147.719 157.097 147.777 156.891 147.777 156.661V155.966C147.72 156.003 147.642 156.037 147.543 156.068C147.446 156.097 147.337 156.124 147.215 156.149C147.093 156.172 146.97 156.193 146.848 156.213C146.726 156.23 146.615 156.246 146.516 156.26C146.303 156.291 146.117 156.341 145.958 156.409C145.798 156.477 145.675 156.57 145.587 156.686C145.499 156.8 145.455 156.942 145.455 157.112C145.455 157.359 145.544 157.548 145.723 157.679C145.905 157.807 146.135 157.871 146.414 157.871ZM152.803 150.273V159H150.988V150.273H152.803Z" fill="black"/>
<path d="M121.236 32.9162V34.3565H117.256V32.9162H121.236ZM126.022 38.1193C125.365 38.1193 124.782 38.0128 124.27 37.7997C123.762 37.5838 123.363 37.2898 123.073 36.9176C122.783 36.5455 122.638 36.1236 122.638 35.652C122.638 35.2884 122.721 34.9545 122.885 34.6506C123.053 34.3438 123.28 34.0895 123.567 33.8878C123.854 33.6832 124.175 33.5526 124.53 33.4957V33.4361C124.064 33.3423 123.686 33.1165 123.397 32.7585C123.107 32.3977 122.962 31.9787 122.962 31.5014C122.962 31.0497 123.094 30.6477 123.358 30.2955C123.623 29.9403 123.985 29.6619 124.445 29.4602C124.908 29.2557 125.434 29.1534 126.022 29.1534C126.61 29.1534 127.134 29.2557 127.594 29.4602C128.057 29.6648 128.421 29.9446 128.685 30.2997C128.949 30.652 129.083 31.0526 129.086 31.5014C129.083 31.9815 128.935 32.4006 128.642 32.7585C128.35 33.1165 127.975 33.3423 127.517 33.4361V33.4957C127.867 33.5526 128.184 33.6832 128.468 33.8878C128.755 34.0895 128.982 34.3438 129.15 34.6506C129.32 34.9545 129.407 35.2884 129.409 35.652C129.407 36.1236 129.26 36.5455 128.971 36.9176C128.681 37.2898 128.28 37.5838 127.769 37.7997C127.26 38.0128 126.678 38.1193 126.022 38.1193ZM126.022 36.7642C126.314 36.7642 126.57 36.7116 126.789 36.6065C127.007 36.4986 127.178 36.3509 127.3 36.1634C127.425 35.973 127.488 35.7543 127.488 35.5071C127.488 35.2543 127.424 35.0312 127.296 34.8381C127.168 34.642 126.995 34.4886 126.776 34.3778C126.557 34.2642 126.306 34.2074 126.022 34.2074C125.74 34.2074 125.489 34.2642 125.267 34.3778C125.046 34.4886 124.871 34.642 124.743 34.8381C124.618 35.0312 124.556 35.2543 124.556 35.5071C124.556 35.7543 124.617 35.973 124.739 36.1634C124.861 36.3509 125.033 36.4986 125.255 36.6065C125.476 36.7116 125.732 36.7642 126.022 36.7642ZM126.022 32.8651C126.266 32.8651 126.483 32.8153 126.674 32.7159C126.864 32.6165 127.013 32.4787 127.121 32.3026C127.229 32.1264 127.283 31.9233 127.283 31.6932C127.283 31.4659 127.229 31.267 127.121 31.0966C127.013 30.9233 126.865 30.7884 126.678 30.6918C126.49 30.5923 126.272 30.5426 126.022 30.5426C125.775 30.5426 125.556 30.5923 125.365 30.6918C125.175 30.7884 125.026 30.9233 124.918 31.0966C124.813 31.267 124.76 31.4659 124.76 31.6932C124.76 31.9233 124.814 32.1264 124.922 32.3026C125.03 32.4787 125.179 32.6165 125.37 32.7159C125.56 32.8153 125.777 32.8651 126.022 32.8651ZM134.121 38.1918C133.388 38.1889 132.758 38.0085 132.229 37.6506C131.704 37.2926 131.299 36.7741 131.015 36.0952C130.734 35.4162 130.594 34.5994 130.597 33.6449C130.597 32.6932 130.738 31.8821 131.019 31.2116C131.303 30.5412 131.708 30.0312 132.234 29.6818C132.762 29.3295 133.391 29.1534 134.121 29.1534C134.852 29.1534 135.479 29.3295 136.005 29.6818C136.533 30.0341 136.94 30.5455 137.224 31.2159C137.508 31.8835 137.648 32.6932 137.646 33.6449C137.646 34.6023 137.504 35.4205 137.219 36.0994C136.938 36.7784 136.535 37.2969 136.009 37.6548C135.484 38.0128 134.854 38.1918 134.121 38.1918ZM134.121 36.6619C134.621 36.6619 135.021 36.4105 135.319 35.9077C135.617 35.4048 135.765 34.6506 135.762 33.6449C135.762 32.983 135.694 32.4318 135.558 31.9915C135.424 31.5511 135.234 31.2202 134.987 30.9986C134.742 30.777 134.454 30.6662 134.121 30.6662C133.624 30.6662 133.227 30.9148 132.928 31.4119C132.63 31.9091 132.479 32.6534 132.477 33.6449C132.477 34.3153 132.543 34.875 132.677 35.3239C132.813 35.7699 133.005 36.1051 133.252 36.3295C133.499 36.5511 133.789 36.6619 134.121 36.6619ZM143.738 36.3636V35.9034C143.738 35.554 143.812 35.233 143.96 34.9403C144.11 34.6449 144.328 34.4091 144.612 34.233C144.899 34.054 145.248 33.9645 145.66 33.9645C146.078 33.9645 146.429 34.0526 146.713 34.2287C147 34.4048 147.216 34.6406 147.36 34.9361C147.508 35.2287 147.582 35.5511 147.582 35.9034V36.3636C147.582 36.7131 147.508 37.0355 147.36 37.331C147.213 37.6236 146.995 37.858 146.708 38.0341C146.422 38.2131 146.072 38.3026 145.66 38.3026C145.243 38.3026 144.892 38.2131 144.608 38.0341C144.324 37.858 144.108 37.6236 143.96 37.331C143.812 37.0355 143.738 36.7131 143.738 36.3636ZM144.978 35.9034V36.3636C144.978 36.5653 145.027 36.7557 145.123 36.9347C145.223 37.1136 145.402 37.2031 145.66 37.2031C145.919 37.2031 146.095 37.1151 146.189 36.9389C146.285 36.7628 146.333 36.571 146.333 36.3636V35.9034C146.333 35.696 146.288 35.5028 146.197 35.3239C146.106 35.1449 145.927 35.0554 145.66 35.0554C145.404 35.0554 145.227 35.1449 145.127 35.3239C145.028 35.5028 144.978 35.696 144.978 35.9034ZM139.26 31.3693V30.9091C139.26 30.5568 139.335 30.2344 139.485 29.9418C139.636 29.6463 139.853 29.4105 140.137 29.2344C140.424 29.0582 140.771 28.9702 141.177 28.9702C141.598 28.9702 141.95 29.0582 142.234 29.2344C142.518 29.4105 142.734 29.6463 142.882 29.9418C143.029 30.2344 143.103 30.5568 143.103 30.9091V31.3693C143.103 31.7216 143.028 32.044 142.877 32.3366C142.73 32.6293 142.512 32.8636 142.225 33.0398C141.941 33.2131 141.592 33.2997 141.177 33.2997C140.762 33.2997 140.412 33.2116 140.125 33.0355C139.841 32.8565 139.625 32.6222 139.477 32.3324C139.332 32.0398 139.26 31.7187 139.26 31.3693ZM140.508 30.9091V31.3693C140.508 31.5767 140.556 31.7685 140.653 31.9446C140.752 32.1207 140.927 32.2088 141.177 32.2088C141.439 32.2088 141.616 32.1207 141.71 31.9446C141.806 31.7685 141.855 31.5767 141.855 31.3693V30.9091C141.855 30.7017 141.809 30.5085 141.718 30.3295C141.627 30.1506 141.447 30.0611 141.177 30.0611C140.924 30.0611 140.75 30.152 140.653 30.3338C140.556 30.5156 140.508 30.7074 140.508 30.9091ZM139.822 38L145.822 29.2727H146.939L140.939 38H139.822Z" fill="black"/>
<path d="M204.489 10.6705V4.63636H206.015V10.6705H204.489ZM202.235 8.41619V6.89062H208.269V8.41619H202.235ZM213.195 3.15341C213.644 3.15341 214.076 3.22869 214.491 3.37926C214.908 3.52983 215.28 3.76989 215.607 4.09943C215.937 4.42898 216.197 4.86648 216.387 5.41193C216.58 5.95455 216.678 6.62074 216.681 7.41051C216.681 8.15199 216.597 8.81392 216.43 9.39631C216.265 9.97585 216.028 10.4688 215.718 10.875C215.408 11.2812 215.035 11.5909 214.597 11.804C214.16 12.0142 213.671 12.1193 213.131 12.1193C212.549 12.1193 212.035 12.0071 211.589 11.7827C211.143 11.5554 210.783 11.2472 210.51 10.858C210.241 10.4659 210.077 10.0256 210.02 9.53693H211.84C211.911 9.85511 212.06 10.1023 212.287 10.2784C212.515 10.4517 212.796 10.5384 213.131 10.5384C213.699 10.5384 214.131 10.2912 214.427 9.79688C214.722 9.29972 214.871 8.61932 214.874 7.75568H214.814C214.684 8.01136 214.508 8.23153 214.286 8.41619C214.064 8.59801 213.81 8.73864 213.523 8.83807C213.239 8.9375 212.937 8.98722 212.616 8.98722C212.101 8.98722 211.643 8.86648 211.239 8.625C210.836 8.38352 210.518 8.05114 210.285 7.62784C210.052 7.20455 209.935 6.72159 209.935 6.17898C209.932 5.59375 210.067 5.07244 210.34 4.61506C210.613 4.15767 210.993 3.79972 211.482 3.54119C211.974 3.27983 212.545 3.15057 213.195 3.15341ZM213.208 4.60227C212.921 4.60227 212.665 4.67045 212.441 4.80682C212.219 4.94318 212.043 5.12642 211.912 5.35653C211.785 5.58665 211.722 5.84375 211.725 6.12784C211.725 6.41477 211.787 6.6733 211.912 6.90341C212.04 7.13068 212.214 7.3125 212.432 7.44886C212.654 7.58239 212.907 7.64915 213.191 7.64915C213.404 7.64915 213.601 7.60937 213.783 7.52983C213.965 7.45028 214.123 7.34091 214.256 7.2017C214.393 7.05966 214.499 6.89631 214.576 6.71165C214.653 6.52699 214.691 6.33097 214.691 6.12358C214.688 5.84801 214.623 5.59517 214.495 5.36506C214.367 5.13494 214.191 4.95028 213.966 4.81108C213.742 4.67187 213.489 4.60227 213.208 4.60227ZM221.381 12.1918C220.648 12.1889 220.018 12.0085 219.489 11.6506C218.964 11.2926 218.559 10.7741 218.275 10.0952C217.993 9.41619 217.854 8.59943 217.857 7.64489C217.857 6.69318 217.998 5.8821 218.279 5.21165C218.563 4.54119 218.968 4.03125 219.493 3.68182C220.022 3.32955 220.651 3.15341 221.381 3.15341C222.111 3.15341 222.739 3.32955 223.265 3.68182C223.793 4.03409 224.199 4.54545 224.483 5.21591C224.768 5.88352 224.908 6.69318 224.905 7.64489C224.905 8.60227 224.763 9.42045 224.479 10.0994C224.198 10.7784 223.795 11.2969 223.269 11.6548C222.743 12.0128 222.114 12.1918 221.381 12.1918ZM221.381 10.6619C221.881 10.6619 222.28 10.4105 222.579 9.90767C222.877 9.40483 223.025 8.65057 223.022 7.64489C223.022 6.98295 222.954 6.43182 222.817 5.99148C222.684 5.55114 222.493 5.22017 222.246 4.99858C222.002 4.77699 221.714 4.66619 221.381 4.66619C220.884 4.66619 220.486 4.91477 220.188 5.41193C219.89 5.90909 219.739 6.65341 219.736 7.64489C219.736 8.31534 219.803 8.875 219.937 9.32386C220.073 9.76989 220.265 10.1051 220.512 10.3295C220.759 10.5511 221.049 10.6619 221.381 10.6619ZM230.998 10.3636V9.90341C230.998 9.55398 231.072 9.23295 231.22 8.94034C231.37 8.64489 231.588 8.40909 231.872 8.23295C232.159 8.05398 232.508 7.96449 232.92 7.96449C233.338 7.96449 233.688 8.05256 233.972 8.22869C234.259 8.40483 234.475 8.64062 234.62 8.93608C234.768 9.22869 234.842 9.55114 234.842 9.90341V10.3636C234.842 10.7131 234.768 11.0355 234.62 11.331C234.472 11.6236 234.255 11.858 233.968 12.0341C233.681 12.2131 233.332 12.3026 232.92 12.3026C232.502 12.3026 232.151 12.2131 231.867 12.0341C231.583 11.858 231.367 11.6236 231.22 11.331C231.072 11.0355 230.998 10.7131 230.998 10.3636ZM232.238 9.90341V10.3636C232.238 10.5653 232.286 10.7557 232.383 10.9347C232.482 11.1136 232.661 11.2031 232.92 11.2031C233.178 11.2031 233.355 11.1151 233.448 10.9389C233.545 10.7628 233.593 10.571 233.593 10.3636V9.90341C233.593 9.69602 233.548 9.50284 233.457 9.32386C233.366 9.14489 233.187 9.0554 232.92 9.0554C232.664 9.0554 232.487 9.14489 232.387 9.32386C232.288 9.50284 232.238 9.69602 232.238 9.90341ZM226.519 5.36932V4.90909C226.519 4.55682 226.595 4.23437 226.745 3.94176C226.896 3.64631 227.113 3.41051 227.397 3.23438C227.684 3.05824 228.031 2.97017 228.437 2.97017C228.857 2.97017 229.21 3.05824 229.494 3.23438C229.778 3.41051 229.994 3.64631 230.142 3.94176C230.289 4.23437 230.363 4.55682 230.363 4.90909V5.36932C230.363 5.72159 230.288 6.04403 230.137 6.33665C229.99 6.62926 229.772 6.86364 229.485 7.03977C229.201 7.21307 228.852 7.29972 228.437 7.29972C228.022 7.29972 227.671 7.21165 227.384 7.03551C227.1 6.85653 226.884 6.62216 226.737 6.33239C226.592 6.03977 226.519 5.71875 226.519 5.36932ZM227.768 4.90909V5.36932C227.768 5.5767 227.816 5.76847 227.913 5.9446C228.012 6.12074 228.187 6.20881 228.437 6.20881C228.698 6.20881 228.876 6.12074 228.97 5.9446C229.066 5.76847 229.115 5.5767 229.115 5.36932V4.90909C229.115 4.7017 229.069 4.50852 228.978 4.32955C228.887 4.15057 228.707 4.06108 228.437 4.06108C228.184 4.06108 228.009 4.15199 227.913 4.33381C227.816 4.51562 227.768 4.70739 227.768 4.90909ZM227.082 12L233.082 3.27273H234.198L228.198 12H227.082Z" fill="black"/>
</svg>
