<svg width="5" height="21" viewBox="0 0 5 21" fill="none" xmlns="http://www.w3.org/2000/svg">
<path d="M2.33333 4.66667C2.79482 4.66667 3.24595 4.52982 3.62966 4.27343C4.01338 4.01704 4.31245 3.65262 4.48905 3.22626C4.66566 2.7999 4.71187 2.33075 4.62183 1.87812C4.5318 1.4255 4.30957 1.00974 3.98325 0.683418C3.65693 0.357096 3.24117 0.134868 2.78855 0.0448354C2.33592 -0.0451968 1.86677 0.00101099 1.44041 0.177615C1.01405 0.35422 0.649629 0.653289 0.393239 1.037C0.136849 1.42072 1.25742e-06 1.87184 1.25742e-06 2.33333C1.25742e-06 2.95217 0.245834 3.54567 0.683419 3.98325C1.121 4.42084 1.7145 4.66667 2.33333 4.66667ZM2.33333 16.3333C1.87184 16.3333 1.42072 16.4702 1.037 16.7266C0.65329 16.983 0.35422 17.3474 0.177615 17.7737C0.00101099 18.2001 -0.0451968 18.6693 0.0448354 19.1219C0.134868 19.5745 0.357097 19.9903 0.683419 20.3166C1.00974 20.6429 1.4255 20.8651 1.87812 20.9552C2.33075 21.0452 2.7999 20.999 3.22626 20.8224C3.65262 20.6458 4.01704 20.3467 4.27343 19.963C4.52982 19.5793 4.66667 19.1282 4.66667 18.6667C4.66667 18.0478 4.42083 17.4543 3.98325 17.0168C3.54567 16.5792 2.95217 16.3333 2.33333 16.3333ZM2.33333 8.16667C1.87184 8.16667 1.42072 8.30352 1.037 8.55991C0.65329 8.8163 0.35422 9.18071 0.177615 9.60707C0.00101099 10.0334 -0.0451968 10.5026 0.0448354 10.9552C0.134868 11.4078 0.357097 11.8236 0.683419 12.1499C1.00974 12.4762 1.4255 12.6985 1.87812 12.7885C2.33075 12.8785 2.7999 12.8323 3.22626 12.6557C3.65262 12.4791 4.01704 12.18 4.27343 11.7963C4.52982 11.4126 4.66667 10.9615 4.66667 10.5C4.66667 9.88116 4.42083 9.28767 3.98325 8.85009C3.54567 8.4125 2.95217 8.16667 2.33333 8.16667Z" fill="#FF1D92"/>
</svg>
