<svg width="663" height="307" viewBox="0 0 663 307" fill="none" xmlns="http://www.w3.org/2000/svg">
<g clip-path="url(#clip0_519_386)">
<rect width="663" height="307" fill="white"/>
<path d="M60 68.25V68.25C61.6569 66.5931 64.3431 66.5931 66 68.25V68.25C67.6569 69.9069 67.6569 72.5931 66 74.25V74.25C64.3431 75.9069 61.6569 75.9069 60 74.25V74.25C58.3431 72.5931 58.3431 69.9069 60 68.25V68.25Z" fill="#FF1D92"/>
<path d="M60 68.25L20.5516 35.0966C16.3644 31.5775 15.7813 25.3473 19.2429 21.1124L36.5 0M60 68.25V68.25C61.6569 66.5931 64.3431 66.5931 66 68.25V68.25C67.6569 69.9069 67.6569 72.5931 66 74.25V74.25C64.3431 75.9069 61.6569 75.9069 60 74.25V74.25C58.3431 72.5931 58.3431 69.9069 60 68.25V68.25Z" stroke="#FF1D92" stroke-width="2"/>
<path d="M595.686 121.004L641.056 96.5728C645.872 93.9796 651.877 95.7366 654.536 100.516L667.791 124.346M595.686 121.004V121.004C596.615 123.156 595.623 125.652 593.472 126.581V126.581C591.321 127.509 588.824 126.518 587.896 124.367V124.367C586.967 122.216 587.958 119.719 590.109 118.79V118.79C592.261 117.862 594.757 118.853 595.686 121.004V121.004Z" stroke="#FF1D92" stroke-width="2"/>
<path d="M556.309 272.056L576.984 319.257C579.178 324.267 576.94 330.11 571.961 332.373L547.135 343.653M556.309 272.056V272.056C554.089 272.807 551.681 271.617 550.93 269.398V269.398C550.179 267.178 551.369 264.77 553.588 264.019V264.019C555.808 263.268 558.216 264.458 558.967 266.677V266.677C559.719 268.897 558.528 271.305 556.309 272.056V272.056Z" stroke="#FF1D92" stroke-width="2"/>
<path d="M207.5 100.5V100.25C207.5 97.9028 205.597 96 203.25 96V96C200.903 96 199 97.9028 199 100.25V100.75C199 103.097 200.903 105 203.25 105V105C205.597 105 207.5 103.097 207.5 100.75V100.5Z" fill="#FF1D92"/>
<path d="M342 56L268 100.5M342 56L341.854 55.7657C340.543 53.6683 341.137 50.9087 343.195 49.5368V49.5368C345.296 48.1357 348.155 48.732 349.556 50.8335V50.8335C350.913 52.8693 350.446 55.6397 348.473 57.0866L348.304 57.2105C346.25 58.7165 343.35 58.1595 342 56V56ZM268 100.5H207.5M268 100.5L307.498 149.292C309.397 151.637 312.253 153 315.271 153H401.424C403.114 153 404.776 152.572 406.255 151.756L454.869 124.934C459.022 122.643 464.212 123.584 467.296 127.186L524.5 194M207.5 100.5V100.25C207.5 97.9028 205.597 96 203.25 96V96C200.903 96 199 97.9028 199 100.25V100.75C199 103.097 200.903 105 203.25 105V105C205.597 105 207.5 103.097 207.5 100.75V100.5ZM524.5 194V194C526.157 192.343 528.843 192.343 530.5 194L530.75 194.25C532.545 196.045 532.545 198.955 530.75 200.75V200.75C528.955 202.545 526.045 202.545 524.25 200.75V200.75C522.455 198.955 522.455 196.045 524.25 194.25L524.5 194Z" stroke="#FF1D92" stroke-width="2"/>
<path d="M347.646 275.127C344.157 273.92 340.322 275.553 338.775 278.905L338.5 279.5V279.5C337.36 282.635 338.751 286.126 341.734 287.617L342.483 287.991C346.214 289.857 350.736 288.04 352.139 284.111V284.111C353.439 280.471 351.519 276.468 347.866 275.204L347.646 275.127Z" fill="#FF1D92"/>
<path d="M156 147L91.5071 185.783C86.4236 188.84 85.1034 195.625 88.6697 200.365L121.5 244M156 147L155.854 146.766C154.543 144.668 155.137 141.909 157.195 140.537V140.537C159.296 139.136 162.155 139.732 163.556 141.834V141.834C164.913 143.869 164.446 146.64 162.473 148.087L162.304 148.211C160.25 149.717 157.35 149.16 156 147V147ZM121.5 244L209 258L303.5 273L338.5 279.5M121.5 244L-1 309.5M338.5 279.5L338.775 278.905C340.322 275.553 344.157 273.92 347.646 275.127L347.866 275.204C351.519 276.468 353.439 280.471 352.139 284.111V284.111C350.736 288.04 346.214 289.857 342.483 287.991L341.734 287.617C338.751 286.126 337.36 282.635 338.5 279.5V279.5Z" stroke="#FF1D92" stroke-width="2"/>
<rect width="663" height="307" fill="white" fill-opacity="0.9"/>
</g>
<defs>
<clipPath id="clip0_519_386">
<rect width="663" height="307" fill="white"/>
</clipPath>
</defs>
</svg>
