<svg width="370" height="76" viewBox="0 0 370 76" fill="none" xmlns="http://www.w3.org/2000/svg">
<g clip-path="url(#clip0_321_273)">
<path d="M155.643 16.0176H167.273C170.945 16.0176 173.719 17.9316 175.594 21.7598C176.043 22.8926 176.268 24.2305 176.268 25.7734V32.7168C172.322 34.5723 170.291 35.5 170.174 35.5V24.8652C170.174 23.5957 169.393 22.6777 167.83 22.1113C167.537 22.0332 167.244 21.9941 166.951 21.9941H156.316C154.324 21.9941 153.211 23.1367 152.977 25.4219V43.9082C150.828 44.6504 148.836 46.1934 147 48.5371V25.0996C147 21.252 148.992 18.4102 152.977 16.5742C153.934 16.2031 154.822 16.0176 155.643 16.0176ZM176.268 34.1816V40.6855L157.664 49.6504C154.598 51.0176 153.064 52.1309 153.064 52.9902C153.006 53.3613 152.977 53.7129 152.977 54.0449V58H147V53.4297C147 49.4453 149.666 46.418 154.998 44.3477L176.268 34.1816ZM176.268 42.2383V58H170.174V45.2266L176.268 42.2383Z" fill="#FF1D92"/>
<path d="M185 11C187.761 11 190 8.76142 190 6C190 3.23858 187.761 1 185 1C182.239 1 180 3.23858 180 6C180 8.76142 182.239 11 185 11Z" fill="#FF1D92" stroke="#FF1D92" stroke-width="2"/>
<path d="M182 16H183C185.761 16 188 18.2386 188 21V53H182V16Z" fill="#FF1D92"/>
<path d="M48.542 55.9798C43.642 55.9798 39.82 54.5751 37.076 51.7658C34.332 48.9565 32.96 45.1671 32.96 40.3978C32.96 36.2165 34.332 32.7865 37.076 30.1078C39.8853 27.4291 43.4787 26.0898 47.856 26.0898C52.1027 26.0898 55.5 27.3311 58.048 29.8138C60.596 32.2311 61.87 35.2365 61.87 38.8298C61.87 40.2671 61.478 41.3451 60.694 42.0638C59.9753 42.7825 59.028 43.1418 57.852 43.1418H40.8C40.1467 43.1418 39.918 43.5011 40.114 44.2198C40.6367 46.0491 41.682 47.4865 43.25 48.5318C44.8833 49.5118 46.7127 50.0018 48.738 50.0018C50.2407 50.0018 51.678 49.8058 53.05 49.4138C54.4873 49.0218 55.7287 48.4338 56.774 47.6498C57.1007 47.3885 57.5253 47.2578 58.048 47.2578C58.7667 47.2578 59.42 47.5845 60.008 48.2378C60.596 48.8258 60.89 49.5445 60.89 50.3938C60.89 50.7858 60.8247 51.1778 60.694 51.5698C60.5633 51.9618 60.2693 52.3538 59.812 52.7458C58.1133 53.9871 56.284 54.8365 54.324 55.2938C52.4293 55.7511 50.502 55.9798 48.542 55.9798ZM54.226 38.0458C54.618 38.0458 54.814 37.8498 54.814 37.4578C54.814 35.9551 54.128 34.6485 52.756 33.5378C51.4493 32.4271 49.816 31.8718 47.856 31.8718C46.1573 31.8718 44.524 32.3291 42.956 33.2438C41.4533 34.1585 40.5387 35.3671 40.212 36.8698C40.212 36.8698 40.212 36.9025 40.212 36.9678C40.1467 37.2291 40.114 37.4578 40.114 37.6538C40.1793 37.8498 40.4733 37.9478 40.996 37.9478L54.226 38.0458ZM68.7262 55.9798C67.8768 55.9798 67.0928 55.6531 66.3742 54.9998C65.6555 54.2811 65.2962 53.4971 65.2962 52.6478C65.2962 51.8638 65.5902 51.1778 66.1782 50.5898L74.6062 41.7698C74.9328 41.3125 75.0962 40.9531 75.0962 40.6918C75.0962 40.2998 74.9328 39.9405 74.6062 39.6138L66.6682 31.3818C66.2108 30.8591 65.9822 30.2385 65.9822 29.5198C65.9822 28.6051 66.3742 27.8211 67.1582 27.1678C67.9422 26.4491 68.7588 26.0898 69.6082 26.0898C70.0002 26.0898 70.3922 26.1878 70.7842 26.3838C71.2415 26.5145 71.6335 26.8085 71.9602 27.2658L78.4282 35.0078C78.8855 35.4651 79.2448 35.6938 79.5062 35.6938C79.8982 35.6938 80.2575 35.4651 80.5842 35.0078L87.0522 27.2658C87.3788 26.8085 87.7382 26.5145 88.1302 26.3838C88.5875 26.1878 89.0122 26.0898 89.4042 26.0898C90.3188 26.0898 91.1355 26.4491 91.8542 27.1678C92.5728 27.8865 92.9322 28.7031 92.9322 29.6178C92.9322 30.3365 92.7035 30.9571 92.2462 31.4798L84.5042 39.6138C84.2428 39.8751 84.1122 40.2345 84.1122 40.6918C84.1122 41.0838 84.2428 41.4431 84.5042 41.7698L92.8342 50.5898C93.4222 51.1778 93.7162 51.8638 93.7162 52.6478C93.7162 53.4971 93.3568 54.2811 92.6382 54.9998C91.9195 55.6531 91.1355 55.9798 90.2862 55.9798C89.4368 55.9798 88.6855 55.6531 88.0322 54.9998L80.5842 46.2778C80.3228 45.8205 79.9635 45.5918 79.5062 45.5918C79.1795 45.5918 78.8202 45.8205 78.4282 46.2778L70.9802 54.9998C70.3268 55.6531 69.5755 55.9798 68.7262 55.9798ZM110.211 55.9798C107.663 55.9798 105.572 55.1958 103.939 53.6278C102.305 52.0598 101.489 49.7078 101.489 46.5718V34.1258C101.489 33.4725 101.162 33.1458 100.509 33.1458H98.7448C97.8955 33.1458 97.1768 32.8845 96.5888 32.3618C96.0008 31.7738 95.7068 31.0551 95.7068 30.2058C95.7068 29.2911 96.0008 28.5398 96.5888 27.9518C97.1768 27.3638 97.8955 27.0698 98.7448 27.0698H100.509C101.162 27.0698 101.489 26.7431 101.489 26.0898V17.8578C101.489 16.9431 101.783 16.2245 102.371 15.7018C103.024 15.1138 103.808 14.8198 104.723 14.8198C105.703 14.8198 106.487 15.1138 107.075 15.7018C107.728 16.2245 108.055 16.9431 108.055 17.8578V26.0898C108.055 26.7431 108.381 27.0698 109.035 27.0698H114.327C115.111 27.0698 115.797 27.3638 116.385 27.9518C116.973 28.5398 117.267 29.2911 117.267 30.2058C117.267 31.0551 116.973 31.7738 116.385 32.3618C115.862 32.8845 115.143 33.1458 114.229 33.1458H109.035C108.381 33.1458 108.055 33.4725 108.055 34.1258V45.6898C108.055 48.4338 109.165 49.8058 111.387 49.8058C112.04 49.8058 112.726 49.7078 113.445 49.5118C114.163 49.3158 114.653 49.2178 114.915 49.2178C115.829 49.2178 116.515 49.5118 116.973 50.0998C117.495 50.6878 117.757 51.3738 117.757 52.1578C117.757 52.7458 117.593 53.3338 117.267 53.9218C116.94 54.4445 116.417 54.8365 115.699 55.0978C114.98 55.3591 114.065 55.5551 112.955 55.6858C111.909 55.8818 110.995 55.9798 110.211 55.9798ZM129.344 40.4958V52.9418C129.344 53.9218 128.984 54.6731 128.266 55.1958C127.612 55.7185 126.861 55.9798 126.012 55.9798C125.162 55.9798 124.378 55.7185 123.66 55.1958C123.006 54.6731 122.68 53.9218 122.68 52.9418V29.9118C122.68 28.8011 123.006 27.9845 123.66 27.4618C124.378 26.8738 125.162 26.5798 126.012 26.5798C126.861 26.5798 127.612 26.8738 128.266 27.4618C128.984 27.9845 129.344 28.8011 129.344 29.9118V30.3038C130.258 29.0625 131.434 28.0498 132.872 27.2658C134.374 26.4818 135.942 26.0898 137.576 26.0898C138.36 26.0898 139.144 26.1878 139.928 26.3838C140.712 26.5798 141.3 26.9718 141.692 27.5598C142.084 28.1478 142.28 28.8011 142.28 29.5198C142.28 30.3691 141.986 31.1531 141.398 31.8718C140.875 32.5251 140.091 32.8518 139.046 32.8518C138.588 32.8518 138.098 32.7865 137.576 32.6558C137.118 32.5251 136.53 32.4598 135.812 32.4598C133.917 32.4598 132.349 33.1785 131.108 34.6158C129.932 36.0531 129.344 38.0131 129.344 40.4958Z" fill="white"/>
<path d="M206.68 55.9801C203.871 55.9801 201.356 55.3268 199.134 54.0201C196.913 52.7134 195.182 50.9168 193.94 48.6301C192.699 46.2781 192.078 43.6648 192.078 40.7901C192.078 37.9808 192.699 35.4654 193.94 33.2441C195.182 31.0228 196.913 29.2914 199.134 28.0501C201.356 26.7434 203.871 26.0901 206.68 26.0901C208.51 26.0901 210.143 26.3841 211.58 26.9721C213.018 27.5601 214.259 28.3768 215.304 29.4221V15.7021C215.304 14.5914 215.631 13.7748 216.284 13.2521C217.003 12.6641 217.787 12.3701 218.636 12.3701C219.486 12.3701 220.237 12.6641 220.89 13.2521C221.609 13.7748 221.968 14.5914 221.968 15.7021V52.9421C221.968 53.9221 221.609 54.6734 220.89 55.1961C220.237 55.7188 219.486 55.9801 218.636 55.9801C217.787 55.9801 217.003 55.7188 216.284 55.1961C215.631 54.6734 215.304 53.9221 215.304 52.9421V52.5501C214.259 53.5954 213.018 54.4121 211.58 55.0001C210.143 55.6534 208.51 55.9801 206.68 55.9801ZM207.268 49.9041C209.751 49.9041 211.711 49.0874 213.148 47.4541C214.586 45.7554 215.304 43.5341 215.304 40.7901C215.304 38.1768 214.586 36.0861 213.148 34.5181C211.711 32.9501 209.751 32.1661 207.268 32.1661C204.72 32.1661 202.662 32.9501 201.094 34.5181C199.526 36.0861 198.742 38.1768 198.742 40.7901C198.742 43.5341 199.526 45.7554 201.094 47.4541C202.662 49.0874 204.72 49.9041 207.268 49.9041ZM241.995 55.9801C239.186 55.9801 236.67 55.3268 234.449 54.0201C232.228 52.7134 230.496 50.9168 229.255 48.6301C228.014 46.2781 227.393 43.6648 227.393 40.7901C227.393 37.9808 228.014 35.4654 229.255 33.2441C230.496 31.0228 232.228 29.2914 234.449 28.0501C236.67 26.7434 239.186 26.0901 241.995 26.0901C243.824 26.0901 245.458 26.4168 246.895 27.0701C248.332 27.6581 249.574 28.4421 250.619 29.4221C250.75 28.5074 251.142 27.8214 251.795 27.3641C252.448 26.8414 253.167 26.5801 253.951 26.5801C254.8 26.5801 255.552 26.8741 256.205 27.4621C256.924 27.9848 257.283 28.8014 257.283 29.9121V52.9421C257.283 53.9221 256.924 54.6734 256.205 55.1961C255.552 55.7188 254.8 55.9801 253.951 55.9801C253.102 55.9801 252.318 55.7188 251.599 55.1961C250.946 54.6734 250.619 53.9221 250.619 52.9421V52.5501C249.574 53.5954 248.332 54.4121 246.895 55.0001C245.458 55.6534 243.824 55.9801 241.995 55.9801ZM242.583 49.9041C245.066 49.9041 247.026 49.0874 248.463 47.4541C249.9 45.7554 250.619 43.5341 250.619 40.7901C250.619 38.1768 249.9 36.0861 248.463 34.5181C247.026 32.9501 245.066 32.1661 242.583 32.1661C240.035 32.1661 237.977 32.9501 236.409 34.5181C234.841 36.0861 234.057 38.1768 234.057 40.7901C234.057 43.5341 234.841 45.7554 236.409 47.4541C237.977 49.0874 240.035 49.9041 242.583 49.9041ZM277.309 55.9801C274.5 55.9801 271.985 55.3268 269.763 54.0201C267.542 52.7134 265.811 50.9168 264.569 48.6301C263.328 46.2781 262.707 43.6648 262.707 40.7901C262.707 37.9808 263.328 35.4654 264.569 33.2441C265.811 31.0228 267.542 29.2914 269.763 28.0501C271.985 26.7434 274.5 26.0901 277.309 26.0901C279.139 26.0901 280.772 26.3841 282.209 26.9721C283.647 27.5601 284.888 28.3768 285.933 29.4221V15.7021C285.933 14.5914 286.26 13.7748 286.913 13.2521C287.632 12.6641 288.416 12.3701 289.265 12.3701C290.115 12.3701 290.866 12.6641 291.519 13.2521C292.238 13.7748 292.597 14.5914 292.597 15.7021V52.9421C292.597 53.9221 292.238 54.6734 291.519 55.1961C290.866 55.7188 290.115 55.9801 289.265 55.9801C288.416 55.9801 287.632 55.7188 286.913 55.1961C286.26 54.6734 285.933 53.9221 285.933 52.9421V52.5501C284.888 53.5954 283.647 54.4121 282.209 55.0001C280.772 55.6534 279.139 55.9801 277.309 55.9801ZM277.897 49.9041C280.38 49.9041 282.34 49.0874 283.777 47.4541C285.215 45.7554 285.933 43.5341 285.933 40.7901C285.933 38.1768 285.215 36.0861 283.777 34.5181C282.34 32.9501 280.38 32.1661 277.897 32.1661C275.349 32.1661 273.291 32.9501 271.723 34.5181C270.155 36.0861 269.371 38.1768 269.371 40.7901C269.371 43.5341 270.155 45.7554 271.723 47.4541C273.291 49.0874 275.349 49.9041 277.897 49.9041ZM313.212 55.9801C310.337 55.9801 307.724 55.3268 305.372 54.0201C303.085 52.7134 301.288 50.9168 299.982 48.6301C298.675 46.2781 298.022 43.6648 298.022 40.7901C298.022 37.9808 298.675 35.4654 299.982 33.2441C301.288 31.0228 303.085 29.2914 305.372 28.0501C307.724 26.7434 310.337 26.0901 313.212 26.0901C316.086 26.0901 318.667 26.7434 320.954 28.0501C323.24 29.2914 325.037 31.0228 326.344 33.2441C327.716 35.4654 328.402 37.9808 328.402 40.7901C328.402 43.6648 327.716 46.2781 326.344 48.6301C325.037 50.9168 323.24 52.7134 320.954 54.0201C318.667 55.3268 316.086 55.9801 313.212 55.9801ZM313.212 49.9041C315.76 49.9041 317.818 49.0874 319.386 47.4541C320.954 45.7554 321.738 43.5341 321.738 40.7901C321.738 38.1768 320.954 36.0861 319.386 34.5181C317.818 32.9501 315.76 32.1661 313.212 32.1661C310.598 32.1661 308.508 32.9501 306.94 34.5181C305.437 36.0861 304.686 38.1768 304.686 40.7901C304.686 43.5341 305.437 45.7554 306.94 47.4541C308.508 49.0874 310.598 49.9041 313.212 49.9041ZM344.435 55.9801C342.541 55.9801 340.613 55.7188 338.653 55.1961C336.693 54.7388 334.962 53.9874 333.459 52.9421C332.675 52.2234 332.283 51.4394 332.283 50.5901C332.283 49.7408 332.61 48.9894 333.263 48.3361C333.982 47.6828 334.766 47.3561 335.615 47.3561C336.073 47.3561 336.53 47.4868 336.987 47.7481C338.163 48.4668 339.503 49.0548 341.005 49.5121C342.573 49.9041 344.043 50.1001 345.415 50.1001C346.722 50.1001 347.833 49.8714 348.747 49.4141C349.727 48.9568 350.217 48.2054 350.217 47.1601C350.217 46.1148 349.76 45.3308 348.845 44.8081C347.931 44.2854 346.363 43.8934 344.141 43.6321C343.227 43.5014 342.116 43.3381 340.809 43.1421C339.568 42.9461 338.327 42.5868 337.085 42.0641C335.844 41.5414 334.799 40.7574 333.949 39.7121C333.1 38.6668 332.675 37.2621 332.675 35.4981C332.675 32.6234 333.721 30.3368 335.811 28.6381C337.967 26.9394 340.842 26.0901 344.435 26.0901C346.526 26.0901 348.486 26.3514 350.315 26.8741C352.21 27.3968 353.615 28.0501 354.529 28.8341C355.248 29.4221 355.607 30.1081 355.607 30.8921C355.607 31.7414 355.313 32.4928 354.725 33.1461C354.137 33.7994 353.419 34.1261 352.569 34.1261C352.112 34.1261 351.687 34.0281 351.295 33.8321C350.25 33.2441 349.074 32.8194 347.767 32.5581C346.526 32.2314 345.317 32.0681 344.141 32.0681C342.769 32.0681 341.593 32.2968 340.613 32.7541C339.699 33.1461 339.241 33.7994 339.241 34.7141C339.241 35.3674 339.503 35.9554 340.025 36.4781C340.613 36.9354 342.083 37.3274 344.435 37.6541C345.546 37.7848 346.787 37.9808 348.159 38.2421C349.597 38.5034 350.969 38.9281 352.275 39.5161C353.582 40.0388 354.66 40.8881 355.509 42.0641C356.359 43.2401 356.783 44.8408 356.783 46.8661C356.783 48.9568 356.195 50.6881 355.019 52.0601C353.843 53.3668 352.308 54.3468 350.413 55.0001C348.584 55.6534 346.591 55.9801 344.435 55.9801Z" fill="white"/>
<path d="M8.03571 48.5714C11.6453 48.5714 14.5714 45.6453 14.5714 42.0357C14.5714 38.4261 11.6453 35.5 8.03571 35.5C4.42614 35.5 1.5 38.4261 1.5 42.0357C1.5 45.6453 4.42614 48.5714 8.03571 48.5714Z" fill="#FF1D92" stroke="#FF1D92" stroke-width="3"/>
<path d="M12 47.5L28.5159 66.9467C32.3159 71.421 37.8897 74 43.76 74H75.1523H347.749C356.338 74 363.968 68.5164 366.706 60.3757L366.957 59.6303C367.648 57.5756 368 55.4223 368 53.2545V29.5516C368 27.7112 367.746 25.8796 367.245 24.1086L366.241 20.557C363.805 11.9453 355.945 6 346.995 6H195.621H190.5" stroke="#FF1D92" stroke-width="3"/>
<path d="M153 56H147V70H153V56Z" fill="#FF1D92"/>
</g>
<defs>
<clipPath id="clip0_321_273">
<rect width="370" height="76" fill="white"/>
</clipPath>
</defs>
</svg>
