<svg width="370" height="76" viewBox="0 0 370 76" fill="none" xmlns="http://www.w3.org/2000/svg">
<path d="M155.643 16.0176H167.273C170.945 16.0176 173.719 17.9316 175.594 21.7598C176.043 22.8926 176.268 24.2305 176.268 25.7734V32.7168C172.322 34.5723 170.291 35.5 170.174 35.5V24.8652C170.174 23.5957 169.393 22.6777 167.83 22.1113C167.537 22.0332 167.244 21.9941 166.951 21.9941H156.316C154.324 21.9941 153.211 23.1367 152.977 25.4219V43.9082C150.828 44.6504 148.836 46.1934 147 48.5371V25.0996C147 21.252 148.992 18.4102 152.977 16.5742C153.934 16.2031 154.822 16.0176 155.643 16.0176ZM176.268 34.1816V40.6855L157.664 49.6504C154.598 51.0176 153.064 52.1309 153.064 52.9902C153.006 53.3613 152.977 53.7129 152.977 54.0449V58H147V53.4297C147 49.4453 149.666 46.418 154.998 44.3477L176.268 34.1816ZM176.268 42.2383V58H170.174V45.2266L176.268 42.2383Z" fill="#FF1D92"/>
<circle cx="185" cy="6" r="5" fill="#FF1D92" stroke="#FF1D92" stroke-width="2"/>
<path d="M182 16H183C185.761 16 188 18.2386 188 21V53H182V16Z" fill="#FF1D92"/>
<path d="M48.542 55.98C43.642 55.98 39.82 54.5753 37.076 51.766C34.332 48.9567 32.96 45.1673 32.96 40.398C32.96 36.2167 34.332 32.7867 37.076 30.108C39.8853 27.4293 43.4787 26.09 47.856 26.09C52.1027 26.09 55.5 27.3313 58.048 29.814C60.596 32.2313 61.87 35.2367 61.87 38.83C61.87 40.2673 61.478 41.3453 60.694 42.064C59.9753 42.7827 59.028 43.142 57.852 43.142H40.8C40.1467 43.142 39.918 43.5013 40.114 44.22C40.6367 46.0493 41.682 47.4867 43.25 48.532C44.8833 49.512 46.7127 50.002 48.738 50.002C50.2407 50.002 51.678 49.806 53.05 49.414C54.4873 49.022 55.7287 48.434 56.774 47.65C57.1007 47.3887 57.5253 47.258 58.048 47.258C58.7667 47.258 59.42 47.5847 60.008 48.238C60.596 48.826 60.89 49.5447 60.89 50.394C60.89 50.786 60.8247 51.178 60.694 51.57C60.5633 51.962 60.2693 52.354 59.812 52.746C58.1133 53.9873 56.284 54.8367 54.324 55.294C52.4293 55.7513 50.502 55.98 48.542 55.98ZM54.226 38.046C54.618 38.046 54.814 37.85 54.814 37.458C54.814 35.9553 54.128 34.6487 52.756 33.538C51.4493 32.4273 49.816 31.872 47.856 31.872C46.1573 31.872 44.524 32.3293 42.956 33.244C41.4533 34.1587 40.5387 35.3673 40.212 36.87C40.212 36.87 40.212 36.9027 40.212 36.968C40.1467 37.2293 40.114 37.458 40.114 37.654C40.1793 37.85 40.4733 37.948 40.996 37.948L54.226 38.046ZM68.7262 55.98C67.8768 55.98 67.0928 55.6533 66.3742 55C65.6555 54.2813 65.2962 53.4973 65.2962 52.648C65.2962 51.864 65.5902 51.178 66.1782 50.59L74.6062 41.77C74.9328 41.3127 75.0962 40.9533 75.0962 40.692C75.0962 40.3 74.9328 39.9407 74.6062 39.614L66.6682 31.382C66.2108 30.8593 65.9822 30.2387 65.9822 29.52C65.9822 28.6053 66.3742 27.8213 67.1582 27.168C67.9422 26.4493 68.7588 26.09 69.6082 26.09C70.0002 26.09 70.3922 26.188 70.7842 26.384C71.2415 26.5147 71.6335 26.8087 71.9602 27.266L78.4282 35.008C78.8855 35.4653 79.2448 35.694 79.5062 35.694C79.8982 35.694 80.2575 35.4653 80.5842 35.008L87.0522 27.266C87.3788 26.8087 87.7382 26.5147 88.1302 26.384C88.5875 26.188 89.0122 26.09 89.4042 26.09C90.3188 26.09 91.1355 26.4493 91.8542 27.168C92.5728 27.8867 92.9322 28.7033 92.9322 29.618C92.9322 30.3367 92.7035 30.9573 92.2462 31.48L84.5042 39.614C84.2428 39.8753 84.1122 40.2347 84.1122 40.692C84.1122 41.084 84.2428 41.4433 84.5042 41.77L92.8342 50.59C93.4222 51.178 93.7162 51.864 93.7162 52.648C93.7162 53.4973 93.3568 54.2813 92.6382 55C91.9195 55.6533 91.1355 55.98 90.2862 55.98C89.4368 55.98 88.6855 55.6533 88.0322 55L80.5842 46.278C80.3228 45.8207 79.9635 45.592 79.5062 45.592C79.1795 45.592 78.8202 45.8207 78.4282 46.278L70.9802 55C70.3268 55.6533 69.5755 55.98 68.7262 55.98ZM110.211 55.98C107.663 55.98 105.572 55.196 103.939 53.628C102.305 52.06 101.489 49.708 101.489 46.572V34.126C101.489 33.4727 101.162 33.146 100.509 33.146H98.7448C97.8955 33.146 97.1768 32.8847 96.5888 32.362C96.0008 31.774 95.7068 31.0553 95.7068 30.206C95.7068 29.2913 96.0008 28.54 96.5888 27.952C97.1768 27.364 97.8955 27.07 98.7448 27.07H100.509C101.162 27.07 101.489 26.7433 101.489 26.09V17.858C101.489 16.9433 101.783 16.2247 102.371 15.702C103.024 15.114 103.808 14.82 104.723 14.82C105.703 14.82 106.487 15.114 107.075 15.702C107.728 16.2247 108.055 16.9433 108.055 17.858V26.09C108.055 26.7433 108.381 27.07 109.035 27.07H114.327C115.111 27.07 115.797 27.364 116.385 27.952C116.973 28.54 117.267 29.2913 117.267 30.206C117.267 31.0553 116.973 31.774 116.385 32.362C115.862 32.8847 115.143 33.146 114.229 33.146H109.035C108.381 33.146 108.055 33.4727 108.055 34.126V45.69C108.055 48.434 109.165 49.806 111.387 49.806C112.04 49.806 112.726 49.708 113.445 49.512C114.163 49.316 114.653 49.218 114.915 49.218C115.829 49.218 116.515 49.512 116.973 50.1C117.495 50.688 117.757 51.374 117.757 52.158C117.757 52.746 117.593 53.334 117.267 53.922C116.94 54.4447 116.417 54.8367 115.699 55.098C114.98 55.3593 114.065 55.5553 112.955 55.686C111.909 55.882 110.995 55.98 110.211 55.98ZM129.344 40.496V52.942C129.344 53.922 128.984 54.6733 128.266 55.196C127.612 55.7187 126.861 55.98 126.012 55.98C125.162 55.98 124.378 55.7187 123.66 55.196C123.006 54.6733 122.68 53.922 122.68 52.942V29.912C122.68 28.8013 123.006 27.9847 123.66 27.462C124.378 26.874 125.162 26.58 126.012 26.58C126.861 26.58 127.612 26.874 128.266 27.462C128.984 27.9847 129.344 28.8013 129.344 29.912V30.304C130.258 29.0627 131.434 28.05 132.872 27.266C134.374 26.482 135.942 26.09 137.576 26.09C138.36 26.09 139.144 26.188 139.928 26.384C140.712 26.58 141.3 26.972 141.692 27.56C142.084 28.148 142.28 28.8013 142.28 29.52C142.28 30.3693 141.986 31.1533 141.398 31.872C140.875 32.5253 140.091 32.852 139.046 32.852C138.588 32.852 138.098 32.7867 137.576 32.656C137.118 32.5253 136.53 32.46 135.812 32.46C133.917 32.46 132.349 33.1787 131.108 34.616C129.932 36.0533 129.344 38.0133 129.344 40.496Z" fill="#1F1F1F"/>
<path d="M206.68 55.98C203.871 55.98 201.356 55.3267 199.134 54.02C196.913 52.7133 195.182 50.9167 193.94 48.63C192.699 46.278 192.078 43.6647 192.078 40.79C192.078 37.9807 192.699 35.4653 193.94 33.244C195.182 31.0227 196.913 29.2913 199.134 28.05C201.356 26.7433 203.871 26.09 206.68 26.09C208.51 26.09 210.143 26.384 211.58 26.972C213.018 27.56 214.259 28.3767 215.304 29.422V15.702C215.304 14.5913 215.631 13.7747 216.284 13.252C217.003 12.664 217.787 12.37 218.636 12.37C219.486 12.37 220.237 12.664 220.89 13.252C221.609 13.7747 221.968 14.5913 221.968 15.702V52.942C221.968 53.922 221.609 54.6733 220.89 55.196C220.237 55.7187 219.486 55.98 218.636 55.98C217.787 55.98 217.003 55.7187 216.284 55.196C215.631 54.6733 215.304 53.922 215.304 52.942V52.55C214.259 53.5953 213.018 54.412 211.58 55C210.143 55.6533 208.51 55.98 206.68 55.98ZM207.268 49.904C209.751 49.904 211.711 49.0873 213.148 47.454C214.586 45.7553 215.304 43.534 215.304 40.79C215.304 38.1767 214.586 36.086 213.148 34.518C211.711 32.95 209.751 32.166 207.268 32.166C204.72 32.166 202.662 32.95 201.094 34.518C199.526 36.086 198.742 38.1767 198.742 40.79C198.742 43.534 199.526 45.7553 201.094 47.454C202.662 49.0873 204.72 49.904 207.268 49.904ZM241.995 55.98C239.186 55.98 236.67 55.3267 234.449 54.02C232.228 52.7133 230.496 50.9167 229.255 48.63C228.014 46.278 227.393 43.6647 227.393 40.79C227.393 37.9807 228.014 35.4653 229.255 33.244C230.496 31.0227 232.228 29.2913 234.449 28.05C236.67 26.7433 239.186 26.09 241.995 26.09C243.824 26.09 245.458 26.4167 246.895 27.07C248.332 27.658 249.574 28.442 250.619 29.422C250.75 28.5073 251.142 27.8213 251.795 27.364C252.448 26.8413 253.167 26.58 253.951 26.58C254.8 26.58 255.552 26.874 256.205 27.462C256.924 27.9847 257.283 28.8013 257.283 29.912V52.942C257.283 53.922 256.924 54.6733 256.205 55.196C255.552 55.7187 254.8 55.98 253.951 55.98C253.102 55.98 252.318 55.7187 251.599 55.196C250.946 54.6733 250.619 53.922 250.619 52.942V52.55C249.574 53.5953 248.332 54.412 246.895 55C245.458 55.6533 243.824 55.98 241.995 55.98ZM242.583 49.904C245.066 49.904 247.026 49.0873 248.463 47.454C249.9 45.7553 250.619 43.534 250.619 40.79C250.619 38.1767 249.9 36.086 248.463 34.518C247.026 32.95 245.066 32.166 242.583 32.166C240.035 32.166 237.977 32.95 236.409 34.518C234.841 36.086 234.057 38.1767 234.057 40.79C234.057 43.534 234.841 45.7553 236.409 47.454C237.977 49.0873 240.035 49.904 242.583 49.904ZM277.309 55.98C274.5 55.98 271.985 55.3267 269.763 54.02C267.542 52.7133 265.811 50.9167 264.569 48.63C263.328 46.278 262.707 43.6647 262.707 40.79C262.707 37.9807 263.328 35.4653 264.569 33.244C265.811 31.0227 267.542 29.2913 269.763 28.05C271.985 26.7433 274.5 26.09 277.309 26.09C279.139 26.09 280.772 26.384 282.209 26.972C283.647 27.56 284.888 28.3767 285.933 29.422V15.702C285.933 14.5913 286.26 13.7747 286.913 13.252C287.632 12.664 288.416 12.37 289.265 12.37C290.115 12.37 290.866 12.664 291.519 13.252C292.238 13.7747 292.597 14.5913 292.597 15.702V52.942C292.597 53.922 292.238 54.6733 291.519 55.196C290.866 55.7187 290.115 55.98 289.265 55.98C288.416 55.98 287.632 55.7187 286.913 55.196C286.26 54.6733 285.933 53.922 285.933 52.942V52.55C284.888 53.5953 283.647 54.412 282.209 55C280.772 55.6533 279.139 55.98 277.309 55.98ZM277.897 49.904C280.38 49.904 282.34 49.0873 283.777 47.454C285.215 45.7553 285.933 43.534 285.933 40.79C285.933 38.1767 285.215 36.086 283.777 34.518C282.34 32.95 280.38 32.166 277.897 32.166C275.349 32.166 273.291 32.95 271.723 34.518C270.155 36.086 269.371 38.1767 269.371 40.79C269.371 43.534 270.155 45.7553 271.723 47.454C273.291 49.0873 275.349 49.904 277.897 49.904ZM313.212 55.98C310.337 55.98 307.724 55.3267 305.372 54.02C303.085 52.7133 301.288 50.9167 299.982 48.63C298.675 46.278 298.022 43.6647 298.022 40.79C298.022 37.9807 298.675 35.4653 299.982 33.244C301.288 31.0227 303.085 29.2913 305.372 28.05C307.724 26.7433 310.337 26.09 313.212 26.09C316.086 26.09 318.667 26.7433 320.954 28.05C323.24 29.2913 325.037 31.0227 326.344 33.244C327.716 35.4653 328.402 37.9807 328.402 40.79C328.402 43.6647 327.716 46.278 326.344 48.63C325.037 50.9167 323.24 52.7133 320.954 54.02C318.667 55.3267 316.086 55.98 313.212 55.98ZM313.212 49.904C315.76 49.904 317.818 49.0873 319.386 47.454C320.954 45.7553 321.738 43.534 321.738 40.79C321.738 38.1767 320.954 36.086 319.386 34.518C317.818 32.95 315.76 32.166 313.212 32.166C310.598 32.166 308.508 32.95 306.94 34.518C305.437 36.086 304.686 38.1767 304.686 40.79C304.686 43.534 305.437 45.7553 306.94 47.454C308.508 49.0873 310.598 49.904 313.212 49.904ZM344.435 55.98C342.541 55.98 340.613 55.7187 338.653 55.196C336.693 54.7387 334.962 53.9873 333.459 52.942C332.675 52.2233 332.283 51.4393 332.283 50.59C332.283 49.7407 332.61 48.9893 333.263 48.336C333.982 47.6827 334.766 47.356 335.615 47.356C336.073 47.356 336.53 47.4867 336.987 47.748C338.163 48.4667 339.503 49.0547 341.005 49.512C342.573 49.904 344.043 50.1 345.415 50.1C346.722 50.1 347.833 49.8713 348.747 49.414C349.727 48.9567 350.217 48.2053 350.217 47.16C350.217 46.1147 349.76 45.3307 348.845 44.808C347.931 44.2853 346.363 43.8933 344.141 43.632C343.227 43.5013 342.116 43.338 340.809 43.142C339.568 42.946 338.327 42.5867 337.085 42.064C335.844 41.5413 334.799 40.7573 333.949 39.712C333.1 38.6667 332.675 37.262 332.675 35.498C332.675 32.6233 333.721 30.3367 335.811 28.638C337.967 26.9393 340.842 26.09 344.435 26.09C346.526 26.09 348.486 26.3513 350.315 26.874C352.21 27.3967 353.615 28.05 354.529 28.834C355.248 29.422 355.607 30.108 355.607 30.892C355.607 31.7413 355.313 32.4927 354.725 33.146C354.137 33.7993 353.419 34.126 352.569 34.126C352.112 34.126 351.687 34.028 351.295 33.832C350.25 33.244 349.074 32.8193 347.767 32.558C346.526 32.2313 345.317 32.068 344.141 32.068C342.769 32.068 341.593 32.2967 340.613 32.754C339.699 33.146 339.241 33.7993 339.241 34.714C339.241 35.3673 339.503 35.9553 340.025 36.478C340.613 36.9353 342.083 37.3273 344.435 37.654C345.546 37.7847 346.787 37.9807 348.159 38.242C349.597 38.5033 350.969 38.928 352.275 39.516C353.582 40.0387 354.66 40.888 355.509 42.064C356.359 43.24 356.783 44.8407 356.783 46.866C356.783 48.9567 356.195 50.688 355.019 52.06C353.843 53.3667 352.308 54.3467 350.413 55C348.584 55.6533 346.591 55.98 344.435 55.98Z" fill="#1F1F1F"/>
<circle cx="8.03571" cy="42.0357" r="6.53571" fill="#FF1D92" stroke="#FF1D92" stroke-width="3"/>
<path d="M12 47.5L28.5159 66.9467C32.3159 71.421 37.8897 74 43.76 74H75.1523H347.749C356.338 74 363.968 68.5164 366.706 60.3757L366.957 59.6303C367.648 57.5756 368 55.4223 368 53.2545V29.5516C368 27.7112 367.746 25.8796 367.245 24.1086L366.241 20.557C363.805 11.9453 355.945 6 346.995 6H195.621H190.5" stroke="#FF1D92" stroke-width="3"/>
<rect x="147" y="56" width="6" height="14" fill="#FF1D92"/>
</svg>
